<?xml version="1.0" encoding="UTF-8"?><svg id="Camada_1" xmlns="http://www.w3.org/2000/svg" viewBox="0 0 305.4 436.11"><defs><style>.cls-1{fill:#d88e45;}</style></defs><g><path class="cls-1" d="M253.93,432.75c-.09-28.61-.66-57.33-4.86-85.68-3.77-25.4-10.18-49.36-26.3-69.75-16.11-20.37-32.45-41.13-53.44-56.68-19.56-14.49-40.94-26.56-62.67-37.47-19.95-10.01-40.47-19.46-61.7-26.45-1.24-.41-1.71,1.54-.49,1.95,18.27,6.22,36.02,14.28,53.35,22.73,21.64,10.56,42.99,22.18,62.7,36.06,8.7,6.13,17.16,12.73,24.72,20.25,9.72,9.66,18.17,20.83,26.98,31.32,8.82,10.51,17.36,20.87,22.65,33.64,4.87,11.76,7.83,24.29,10.04,36.8,5.42,30.71,6.51,62.18,7.1,93.29,.02,1.24,1.93,1.21,1.92-.02h0Z"/><path class="cls-1" d="M43.49,158.1c-.08-.29-.07-.61,.02-.89,.23-.69,.87-1.01,1.55-.78,23.24,7.66,45.2,18.17,61.74,26.47,25.6,12.85,45.53,24.77,62.72,37.49,20.85,15.44,37.24,36.17,53.09,56.22l.41,.51c17.36,21.95,23.07,47.65,26.37,69.9,4.33,29.22,4.78,59.57,4.87,85.72h0c0,.82-.64,1.26-1.27,1.27-.63,0-1.29-.41-1.3-1.24-.57-30.09-1.59-62.07-7.09-93.24-2.63-14.91-5.82-26.58-10.02-36.73-5.42-13.1-14.55-23.97-22.6-33.56-2.35-2.8-4.72-5.69-7-8.49-6.31-7.73-12.84-15.72-19.96-22.8-6.66-6.62-14.5-13.04-24.68-20.21-17.24-12.14-37.14-23.59-62.65-36.03-14.42-7.04-33.51-15.98-53.31-22.72-.48-.16-.76-.51-.87-.89Zm199.24,160.1c-4.01-13.89-10.15-27.92-20.23-40.68l-.41-.51c-15.83-20.02-32.19-40.71-52.97-56.1-17.15-12.71-37.05-24.6-62.62-37.44-16.52-8.29-38.45-18.79-61.65-26.43-.51-.17-.69,.24-.73,.37-.1,.29-.06,.79,.44,.96,19.84,6.75,38.96,15.71,53.39,22.75,25.54,12.46,45.48,23.93,62.74,36.09,10.21,7.19,18.08,13.63,24.77,20.28,7.14,7.1,13.68,15.11,20.01,22.85,2.29,2.8,4.65,5.69,7,8.49,8.08,9.62,17.24,20.53,22.7,33.72,4.22,10.2,7.42,21.91,10.06,36.87,5.51,31.21,6.53,63.22,7.1,93.34,.01,.44,.35,.6,.64,.6,.29,0,.63-.17,.63-.61h0c-.08-26.13-.53-56.45-4.86-85.63-1.37-9.22-3.15-19.03-6.01-28.92Z"/></g><g><path class="cls-1" d="M248.33,346.21c-1.66-7.72,5.37-14.34,8.54-20.78,2.65-5.39,4.44-11.17,5.5-17.08,2.12-11.83,1.31-24.02-.92-35.77-6.05-31.98-22.52-60.93-27.46-93.25-.22-1.44-2.41-.8-2.19,.63,4.98,32.31,21.48,61.25,27.59,93.22,2.59,13.55,3.21,27.83-.54,41.24-1.84,6.57-4.88,12.33-8.44,18.09-2.74,4.43-4.94,8.9-3.71,14.17,.25,1.07,1.86,.59,1.63-.47h0Z"/><path class="cls-1" d="M246.4,346.83s-.01-.05-.02-.07c-1.29-5.59,1.26-10.37,3.75-14.42,3.05-4.94,6.43-10.95,8.41-18.01,3.3-11.82,3.48-25.65,.53-41.09-2.89-15.13-8.21-29.84-13.35-44.06-5.71-15.8-11.62-32.14-14.24-49.17-.09-.56,.12-1.09,.57-1.45,.45-.36,1.04-.47,1.51-.29,.41,.16,.67,.52,.75,1,2.59,16.95,8.46,33.26,14.14,49.03,5.14,14.27,10.45,29.01,13.32,44.22,2.54,13.41,2.84,25.15,.92,35.89-1.1,6.17-2.96,11.94-5.53,17.16-.91,1.86-2.11,3.68-3.38,5.61-3.09,4.71-6.29,9.57-5.13,14.96,.16,.76-.36,1.31-.95,1.44-.61,.14-1.13-.17-1.3-.75Zm9.42-89.69c1.52,5.27,2.86,10.6,3.89,15.98,2.97,15.54,2.79,29.47-.54,41.39-1.99,7.14-5.4,13.19-8.48,18.17-2.54,4.12-4.91,8.58-3.67,13.93,.1,.39,.44,.36,.55,.33,.2-.04,.54-.24,.45-.66h0c-1.22-5.65,2.06-10.64,5.22-15.45,1.26-1.91,2.45-3.72,3.34-5.54,2.54-5.17,4.38-10.89,5.47-16.99,1.91-10.66,1.61-22.32-.92-35.65-2.87-15.15-8.17-29.88-13.3-44.12-5.69-15.8-11.57-32.13-14.17-49.15-.04-.26-.15-.42-.35-.5-.25-.1-.61-.02-.87,.19-.15,.12-.4,.4-.33,.84,2.61,16.96,8.51,33.27,14.21,49.04,3.32,9.19,6.72,18.59,9.49,28.18Z"/></g><g><path class="cls-1" d="M242.74,319.69c-4.14-3.49-9.12-3.57-14.31-3.15-6.75,.54-13.26,.63-19.95-.73-13.64-2.78-26.07-9.84-36.95-18.32-7.72-6.02-14.77-12.76-21.57-19.75-.05,.1-.11,.19-.21,.24-.46,.24-.93,.44-1.41,.64-.14,.06-.28,.12-.42,.18,6.98,7.18,14.2,14.1,22.14,20.26,9.45,7.34,19.92,13.61,31.42,17.12,5.74,1.75,11.71,2.79,17.71,2.89,7.18,.12,16.27-3.13,22.39,1.87,.84,.69,2-.53,1.16-1.24Z"/><path class="cls-1" d="M147.36,278.67l.86-.37c.45-.19,.93-.39,1.39-.62,0,0,.03-.02,.06-.09l.2-.43,.33,.34c8.16,8.39,14.81,14.47,21.54,19.72,12.4,9.67,24.79,15.81,36.81,18.26,7.18,1.46,14.07,1.19,19.86,.73,4.74-.38,10.16-.47,14.54,3.23,.49,.41,.54,1.05,.13,1.55-.38,.46-1.11,.68-1.71,.19-4.27-3.49-10.06-2.86-15.65-2.25-2.3,.25-4.47,.49-6.54,.45-5.82-.1-11.81-1.07-17.8-2.9-10.43-3.18-20.74-8.8-31.52-17.17-6.91-5.37-13.75-11.63-22.17-20.29l-.33-.34Zm2.62-.46s-.05,.03-.07,.04c-.47,.24-.96,.45-1.42,.64,8.25,8.47,14.98,14.61,21.77,19.89,10.72,8.32,20.96,13.91,31.31,17.06,5.93,1.81,11.86,2.78,17.62,2.87,2.03,.03,4.18-.2,6.45-.45,5.73-.62,11.66-1.27,16.13,2.39,.34,.28,.67,.06,.8-.1,.07-.08,.27-.37-.05-.64h0c-4.2-3.54-9.25-3.46-14.07-3.08-5.84,.46-12.78,.74-20.04-.74-12.13-2.47-24.6-8.65-37.08-18.38-6.69-5.21-13.28-11.24-21.35-19.52Z"/></g><g><path class="cls-1" d="M231.16,176.97c1.28,11.43,2.41,22.88,3.73,34.31,.67,5.82,1.24,11.67,1.28,17.53,.04,5.9-.47,11.71,.47,17.57,3.64,22.5,21.01,40.14,23.49,63.01,.1,.94,1.54,1.59,2.01,.5,4.42-10.24,9.69-18.82,10.78-30.21,1.13-11.87-1.25-23.81-5.83-34.75-4.87-11.62-12.44-21.02-19.13-31.53-7.42-11.67-11.52-24.99-15.03-38.26-.37-1.39-2.52-.77-2.15,.62,2.87,10.81,6.12,21.59,11.2,31.6,5.54,10.92,13.9,20.03,19.57,30.9,5.77,11.05,9.52,23.24,9.48,35.79-.02,5.86-.85,11.76-2.68,17.34-2.02,6.14-5.53,11.56-8.08,17.47,.67,.17,1.34,.34,2.01,.5-2.43-22.4-18.77-39.68-23.18-61.43-1.23-6.05-.8-12.01-.78-18.12,.02-5.87-.51-11.71-1.16-17.53-1.32-11.78-2.61-23.58-4.12-35.34-.15-1.18-2.01-1.18-1.88,.02h0Z"/><path class="cls-1" d="M237.92,253.46c-.66-2.3-1.21-4.64-1.59-7.03-.69-4.27-.61-8.59-.53-12.76,.03-1.59,.06-3.24,.05-4.86-.04-6-.64-11.95-1.28-17.49-.74-6.39-1.43-12.89-2.09-19.18-.52-4.92-1.05-9.85-1.6-14.77-.14-.51-.27-1.02-.41-1.53-.14-.51,0-1,.35-1.36,.38-.38,.98-.54,1.49-.4,.46,.13,.8,.47,.94,.98,3.21,12.1,7.27,26.03,14.99,38.17,1.88,2.95,3.86,5.86,5.77,8.67,4.86,7.14,9.88,14.52,13.39,22.91,4.89,11.68,6.92,23.75,5.86,34.9-.84,8.85-4.18,15.98-7.71,23.53-.96,2.06-1.96,4.18-2.91,6.35l.02,.2-.1-.02-.11,.26c-.24,.55-.73,.83-1.3,.75-.68-.1-1.27-.69-1.33-1.35-1.28-11.83-6.67-22.46-11.89-32.74-3.78-7.44-7.65-15.08-10.01-23.23Zm-5.95-72.12c.39,3.58,.77,7.15,1.15,10.73,.67,6.28,1.36,12.78,2.09,19.17,.64,5.56,1.24,11.54,1.28,17.56,.01,1.63-.02,3.28-.05,4.88-.08,4.14-.16,8.43,.52,12.64,1.74,10.75,6.72,20.57,11.54,30.07,5.04,9.94,10.25,20.19,11.79,31.6,.36-.8,.73-1.59,1.12-2.38-1.9-10.48-6.71-20.03-11.39-29.3-4.52-8.96-9.2-18.22-11.24-28.32-.99-4.88-.91-9.8-.83-14.56,.02-1.21,.04-2.42,.04-3.63,.02-6.17-.58-12.31-1.16-17.5l-.48-4.29c-.71-6.38-1.44-12.91-2.21-19.43-.77-2.43-1.49-4.85-2.17-7.26Zm3.19,10.36c.63,5.46,1.24,10.91,1.84,16.26l.48,4.29c.58,5.21,1.18,11.37,1.16,17.57,0,1.22-.02,2.43-.04,3.64-.08,4.94-.16,9.61,.82,14.42,2.03,10.01,6.69,19.23,11.19,28.15,4.57,9.06,9.27,18.38,11.29,28.62,.47-.93,.94-1.86,1.41-2.77,1.74-3.39,3.54-6.9,4.75-10.59,1.75-5.32,2.65-11.12,2.67-17.24,.04-11.57-3.13-23.56-9.44-35.64-2.77-5.3-6.24-10.27-9.59-15.08-3.51-5.03-7.14-10.23-9.98-15.83-2.6-5.13-4.72-10.46-6.54-15.81Zm25.29,117.54s0,.08,.01,.12c.04,.4,.44,.72,.78,.77,.28,.04,.48-.08,.61-.36,.02-.05,.05-.11,.07-.16l-1.47-.37Zm1.15-2.51c-.3,.63-.6,1.27-.88,1.91l1.18,.3c-.09-.74-.19-1.48-.31-2.21Zm.49-1.01c.15,.86,.29,1.73,.4,2.61,.81-1.83,1.65-3.62,2.46-5.35,3.51-7.49,6.82-14.57,7.65-23.31,1.05-11.05-.96-23.01-5.81-34.59-3.49-8.32-8.27-15.35-13.32-22.79-1.92-2.82-3.9-5.73-5.78-8.69-6.99-10.99-10.99-23.4-14.07-34.62,.4,3.16,.78,6.33,1.16,9.5,2.02,6.34,4.42,12.69,7.5,18.75,2.82,5.55,6.44,10.74,9.94,15.75,3.37,4.82,6.85,9.81,9.64,15.15,6.36,12.18,9.56,24.27,9.52,35.94-.02,6.19-.93,12.06-2.7,17.44-1.23,3.74-3.04,7.27-4.79,10.68-.59,1.16-1.2,2.34-1.79,3.54Zm-30.57-128.46c.69,2.56,1.41,5.14,2.19,7.75-.32-2.68-.65-5.35-.99-8.01-.06-.49-.53-.63-.81-.59-.18,.02-.47,.12-.42,.54h0c.01,.11,.02,.21,.04,.32Zm1.09-2.05c-.07-.26-.24-.43-.47-.49-.29-.08-.64,.02-.86,.24-.13,.13-.27,.37-.18,.73,.03,.11,.06,.23,.09,.34,.17-.15,.39-.24,.64-.27,.34-.04,.7,.05,.99,.25-.07-.26-.14-.51-.2-.77,0,0,0-.01,0-.02Z"/></g><g><path class="cls-1" d="M209.12,259.77c-11.04-27.46-10.42-56.83-13.89-85.73-2.99-24.97-9.71-51.33-23.33-72.76-.78-1.22-2.57-.1-1.91,1.17,12.84,24.41,20.85,49.97,23.52,77.49,2.64,27.18,3.2,54.74,13.79,80.35,.46,1.1,2.26,.6,1.8-.52h0Z"/><path class="cls-1" d="M202.49,247.42c-5.04-17.45-6.57-35.68-8.06-53.42-.39-4.6-.78-9.36-1.24-14.02-2.63-27.02-10.31-52.33-23.48-77.37-.43-.82-.04-1.62,.57-1.97,.56-.33,1.4-.32,1.9,.47,11.97,18.84,19.84,43.36,23.38,72.89,.9,7.48,1.53,15.11,2.14,22.48,1.75,21.06,3.56,42.85,11.72,63.16h0c.25,.62,0,1.23-.63,1.48-.62,.25-1.46,.06-1.78-.71-1.77-4.27-3.26-8.61-4.53-13Zm-15.68-104.45c3.48,12.04,5.81,24.31,7.04,36.95,.45,4.67,.85,9.43,1.24,14.03,1.85,22.16,3.77,45.07,12.53,66.22,.19,.46,.67,.46,.93,.36,.17-.07,.42-.25,.27-.63h0c-8.21-20.4-10.02-42.24-11.77-63.35-.61-7.37-1.24-14.99-2.14-22.46-3.53-29.43-11.36-53.87-23.28-72.62-.29-.46-.73-.43-1.02-.26-.33,.19-.57,.62-.32,1.1,7.05,13.4,12.54,26.89,16.52,40.66Z"/></g><g><path class="cls-1" d="M157.5,169.99c-.62,.05-1.24,.05-1.86-.03,0,0,0,0,0,0-.07,.04-.14,.06-.22,.05-.08,0-.17,0-.26,0,1.74,17.3,4.41,34.4,11.16,50.71,.46,1.1,2.26,.6,1.8-.52-6.53-16.24-8.98-33.14-10.61-50.22Z"/><path class="cls-1" d="M161.48,207.86c-3.77-13.04-5.49-26.17-6.66-37.81l-.03-.34,.46-.02s.08,0,.11,0l.03-.02,.12-.02,.09-.03h.07c.52,.08,1.09,.09,1.79,.04l.32-.02,.03,.32c1.55,16.21,3.9,33.5,10.59,50.13,.25,.62,0,1.23-.63,1.48-.62,.25-1.46,.06-1.78-.71-1.77-4.28-3.26-8.63-4.52-12.99Zm-5.98-37.53c1.56,15.41,4.11,33.39,11.1,50.28,.19,.46,.67,.46,.93,.36,.17-.07,.43-.24,.27-.63-6.68-16.6-9.05-33.83-10.6-50-.57,.03-1.06,.01-1.52-.04-.04,.02-.11,.04-.18,.04Z"/></g><g><path class="cls-1" d="M252.85,395.23c-5.21-9.37-16.59-14.12-25.52-19.21-10.41-5.93-21.08-11.49-32.37-15.58-23.4-8.47-51.72-6.49-69.93-25.89-.76-.81-1.85,.41-1.17,1.23,14.84,17.91,40.18,17.97,60.89,23.6,12.06,3.28,23.44,8.58,34.39,14.53,5.39,2.93,10.7,6.02,15.98,9.14,6.05,3.57,12.34,7,16.08,13.19,.64,1.06,2.24,.07,1.64-1.01h0Z"/><path class="cls-1" d="M123.37,335.54c-.14-.48,.05-.99,.39-1.3,.46-.41,1.08-.37,1.51,.09,12.16,12.96,29.19,16.39,45.66,19.71,8.08,1.63,16.44,3.31,24.14,6.1,12.21,4.42,23.74,10.66,32.42,15.6,1.53,.87,3.1,1.72,4.77,2.61,7.74,4.16,16.51,8.88,20.88,16.72h0c.41,.73,.06,1.44-.5,1.76-.53,.31-1.29,.26-1.7-.43-3.48-5.75-9.29-9.15-14.9-12.45l-1.07-.63c-4.77-2.81-10.34-6.07-15.97-9.13-13.02-7.07-23.93-11.68-34.32-14.5-5.07-1.38-10.54-2.44-15.84-3.48-16.69-3.25-33.95-6.62-45.22-20.23-.12-.14-.2-.29-.24-.45Zm129.2,59.84c-4.27-7.68-12.58-12.15-20.62-16.47-1.67-.9-3.24-1.74-4.78-2.62-8.66-4.93-20.16-11.15-32.32-15.55-7.66-2.77-15.99-4.45-24.05-6.07-16.57-3.34-33.7-6.79-46-19.9-.26-.27-.49-.15-.6-.04-.17,.15-.35,.52-.08,.85,11.12,13.43,28.27,16.77,44.85,20,5.3,1.03,10.79,2.1,15.88,3.49,10.44,2.84,21.4,7.46,34.46,14.56,5.64,3.06,11.22,6.33,15.99,9.14l1.07,.63c5.68,3.33,11.55,6.78,15.12,12.67,.29,.48,.73,.25,.82,.2,.21-.12,.5-.45,.26-.88h0Z"/></g><g><path class="cls-1" d="M237.37,381.99c-7.75-8.71-15.13-18.37-24.3-25.65-7.74-6.15-16.69-9.13-26.46-10.14-20.59-2.14-46.08,3.68-61.76-13.57-.84-.93-2.18,.31-1.63,1.32,4.58,8.48,12.02,14.3,19.88,19.6,8.9,6,18.04,12.19,28.28,15.64,5.23,1.76,10.68,2.62,16,4.01,5.52,1.44,10.71,3.95,16.27,5.23,10.48,2.42,21.47,.59,31.67,4.51,1.26,.48,1.76-1.56,.51-2.04-9.37-3.6-19.24-2.37-28.97-3.97-5.32-.87-10.14-3.09-15.24-4.7-4.63-1.47-9.42-2.31-14.13-3.47-10.55-2.61-19.63-8.03-28.64-13.92-9.18-6-18.49-12.1-23.83-21.99-.54,.44-1.09,.88-1.63,1.32,13.23,14.57,34.08,13.32,52.06,13.59,12.59,.19,25.08,1.67,35.39,9.54,9.52,7.27,17.21,17.24,25.24,26.06,.82,.9,2.09-.46,1.29-1.36h0Z"/><path class="cls-1" d="M122.83,333.83c-.18-.64,.14-1.28,.6-1.6,.55-.39,1.2-.33,1.66,.16l.05-.04,.14,.25c11.55,12.53,28.44,12.61,44.78,12.68,5.82,.03,11.31,.05,16.61,.6,10.66,1.11,19.37,4.45,26.62,10.21,7.03,5.58,13.06,12.62,18.9,19.42,1.78,2.07,3.62,4.22,5.44,6.26,.56,.63,.35,1.44-.13,1.87-.51,.46-1.19,.43-1.65-.08-.07-.08-.14-.16-.21-.24-.13,0-.27-.04-.41-.09-5.82-2.24-12.04-2.59-18.04-2.94-4.47-.26-9.1-.52-13.58-1.56-2.99-.69-5.91-1.74-8.74-2.76-2.45-.88-4.98-1.8-7.54-2.47-1.97-.52-4-.97-5.95-1.4-3.33-.74-6.77-1.5-10.07-2.62-10.21-3.44-19.33-9.59-28.16-15.54l-.2-.14c-7.6-5.12-15.27-11.04-19.94-19.63l-.06-.07h.02s0-.02,0-.02c-.05-.09-.09-.18-.11-.28Zm1.74-1.03c-.32-.3-.64-.13-.77-.04-.27,.19-.46,.57-.33,.93l1.1-.89Zm.36,.54l-1.06,.86c1.29,1.39,2.65,2.63,4.08,3.74-1.1-1.44-2.11-2.97-3.02-4.6Zm4.61,6.56c-1.61-1.08-3.15-2.3-4.61-3.69,4.66,7.24,11.54,12.49,18.36,17.08l.2,.13c8.79,5.93,17.88,12.05,28,15.47,3.27,1.1,6.69,1.86,10.01,2.6,1.96,.44,3.99,.89,5.98,1.41,2.58,.68,5.13,1.59,7.6,2.48,2.81,1.01,5.72,2.06,8.67,2.74,4.42,1.02,9.02,1.28,13.47,1.54,5.82,.33,11.84,.68,17.55,2.73-.63-.7-1.26-1.41-1.89-2.12-5.01-1.42-10.19-1.72-15.23-2-3.55-.2-7.21-.41-10.82-1-3.67-.6-7.15-1.86-10.53-3.07-1.55-.56-3.16-1.13-4.76-1.64-3.03-.96-6.19-1.66-9.24-2.34-1.6-.36-3.25-.72-4.87-1.13-10.97-2.72-20.59-8.63-28.74-13.96-6.82-4.46-13.8-9.02-19.15-15.21Zm106.05,40.56c-1.31-1.5-2.62-3.03-3.9-4.52-5.82-6.78-11.83-13.79-18.81-19.34-7.15-5.68-15.75-8.98-26.29-10.07-5.27-.55-10.75-.57-16.54-.6-15.65-.07-31.81-.14-43.46-11.08,1.02,1.61,2.16,3.13,3.39,4.55,11.63,7.77,26.92,7.88,40.66,7.98,1.63,.01,3.24,.02,4.83,.05,12.19,.18,24.93,1.48,35.58,9.61,7.22,5.52,13.43,12.63,19.44,19.5,.91,1.04,1.83,2.1,2.76,3.15,.79,.23,1.57,.48,2.35,.77Zm-3.49-1.08c-.71-.81-1.41-1.61-2.11-2.41-5.98-6.85-12.17-13.94-19.34-19.41-10.5-8.02-23.12-9.29-35.2-9.47-1.59-.02-3.2-.04-4.82-.05-13.09-.1-27.55-.21-39.05-6.86,5.06,5.28,11.33,9.39,17.46,13.39,8.48,5.54,17.67,11.18,28.54,13.88,1.61,.4,3.26,.77,4.86,1.12,3.07,.68,6.24,1.39,9.3,2.36,1.62,.51,3.23,1.09,4.78,1.65,3.34,1.2,6.8,2.45,10.41,3.04,3.57,.59,7.22,.8,10.75,1,4.76,.27,9.64,.55,14.41,1.77Zm4.11,2.35c-.06-.21-.21-.41-.48-.51-.55-.21-1.11-.41-1.67-.59,.61,.68,1.22,1.36,1.82,2.04,.17-.07,.26-.25,.3-.34,.06-.16,.08-.38,.02-.59Zm.69,.23c0,.2-.03,.41-.1,.6-.1,.26-.26,.47-.46,.6,.32,.33,.63,.1,.72,.02,.21-.19,.4-.59,.08-.95h0c-.08-.09-.15-.17-.23-.26Z"/></g><g><path class="cls-1" d="M202.46,239.11c-5-11.44-14.39-20.11-17.12-32.63-2.97-13.61-.94-27.74-.78-41.51,.14-11.75-.58-23.53-2.9-35.07-1.3-6.48-3.16-12.8-5.42-19.01-1.29-3.55-2.15-7.65-5.07-10.25-.92-.82-2.4,.29-1.72,1.39,13.63,21.93,30.45,44.27,36.08,69.92,2.82,12.86,1.54,24.66-2.16,37.15-3.33,11.23-3.9,22.3-1.83,33.83,.26,1.47,2.5,.81,2.23-.65-1.29-7.14-1.72-14.42-.72-21.63,.9-6.54,3.31-12.66,4.84-19.05,2.55-10.6,1.96-21.65-.61-32.19-6.12-25.09-22.49-46.96-35.93-68.56-.57,.46-1.14,.93-1.72,1.39,3.73,3.31,5.45,11.63,6.87,16.25,1.8,5.86,3.13,11.84,4.07,17.89,1.95,12.62,2.07,25.43,1.57,38.17-.46,11.8-1.41,24.06,2.01,35.55,3.33,11.18,11.87,19.31,16.72,29.7,.41,.88,1.97,.2,1.58-.7h0Z"/><path class="cls-1" d="M183.73,209.82c-2.98-10.3-2.51-21.22-2.05-31.79,.05-1.17,.1-2.33,.15-3.49,.6-15.43,.12-27.18-1.57-38.1-.95-6.17-2.32-12.17-4.06-17.85-.25-.81-.51-1.74-.79-2.74-.66-2.36-1.45-5.19-2.48-7.73-1.23-1.92-2.45-3.85-3.63-5.75l-.16-.14,.05-.04s0,0,0,0c-.44-.71-.17-1.42,.29-1.81,.47-.4,1.28-.57,1.92,0,0,0,0,0,.01,.01l.03-.03,.09,.14c1.54,1.42,2.5,3.24,3.26,5.17,1.48,2.31,2.97,4.63,4.43,6.89,11.49,17.8,23.37,36.2,28.38,56.76,2.8,11.5,3.01,22.38,.61,32.34-.57,2.36-1.26,4.72-1.93,7-1.15,3.89-2.33,7.91-2.9,12.02-.92,6.69-.69,13.73,.72,21.52,.1,.56-.09,1.09-.52,1.46-.44,.37-1.05,.5-1.54,.32-.43-.16-.72-.52-.81-1.02-.17-.92-.32-1.84-.45-2.75-.08-.08-.14-.17-.19-.29-2.02-4.32-4.72-8.31-7.34-12.18-3.66-5.41-7.45-11.01-9.4-17.57-.04-.13-.07-.25-.11-.38Zm-6.36-89.58c1.49,5.15,2.68,10.56,3.53,16.1,1.69,10.96,2.18,22.75,1.58,38.23-.04,1.16-.1,2.32-.15,3.49-.45,10.51-.92,21.38,2.03,31.58,.04,.12,.07,.25,.11,.37,1.92,6.46,5.68,12.02,9.32,17.39,2.36,3.49,4.79,7.08,6.74,10.94-.12-1.02-.22-2.03-.3-3.04-1.68-3.1-3.61-6.05-5.5-8.93-3.96-6.04-8.06-12.28-9.7-19.82-2.17-9.95-1.67-20.3-1.19-30.3,.18-3.71,.36-7.54,.41-11.28,.15-13.1-.79-24.55-2.89-35-.99-4.92-2.31-9.86-4.03-15.01-.17-.27-.35-.54-.52-.81-.75-1.16-1.5-2.33-2.26-3.51,.58,1.74,1.07,3.49,1.5,5.05,.28,.99,.53,1.92,.78,2.73,.19,.61,.37,1.22,.55,1.84Zm2.21-.24c.96,3.32,1.76,6.57,2.41,9.82,2.1,10.49,3.05,21.99,2.9,35.14-.04,3.75-.23,7.59-.41,11.3-.48,9.96-.98,20.26,1.18,30.13,1.62,7.41,5.68,13.61,9.61,19.61,1.65,2.52,3.33,5.08,4.86,7.76-.48-8.36,.49-16.54,2.94-24.77,4.08-13.77,4.75-25.17,2.16-36.99-4.35-19.82-15.42-37.69-26.52-54.93,.31,.98,.6,1.96,.88,2.93Zm21.9,120.53c.12,.77,.24,1.55,.38,2.33,.05,.27,.18,.44,.39,.52,.27,.1,.64,.01,.9-.21,.15-.12,.38-.4,.3-.84-1.42-7.86-1.66-14.97-.72-21.73,.57-4.16,1.77-8.2,2.92-12.12,.67-2.27,1.36-4.62,1.93-6.96,2.37-9.86,2.17-20.64-.61-32.04-4.98-20.44-16.83-38.81-28.29-56.56-.97-1.5-1.95-3.03-2.93-4.55,.03,.1,.06,.19,.1,.29,.24,.71,.47,1.42,.72,2.1,.48,1.31,.93,2.61,1.36,3.89,11.57,17.92,23.4,36.48,27.94,57.2,2.61,11.93,1.95,23.44-2.17,37.32-2.55,8.61-3.49,17.16-2.82,25.93,.68,1.26,1.32,2.55,1.89,3.86,.28,.64-.11,1.2-.64,1.44-.2,.09-.42,.14-.64,.12Zm-.47-3.74c.1,1.02,.22,2.04,.37,3.06,.16,.06,.35,.01,.47-.04,.05-.02,.47-.24,.31-.58l.3-.13-.3,.13c-.36-.82-.74-1.63-1.15-2.43Zm-30.12-135.99c-.34-.25-.74-.15-1,.06-.23,.19-.38,.52-.19,.9l1.19-.96Zm.39,.52l-1.14,.92c1.37,1.34,2.46,3.35,3.37,5.56,.98,1.53,1.96,3.05,2.93,4.57-.16-.46-.33-.92-.5-1.39-.25-.69-.49-1.4-.72-2.12-.32-.97-.64-1.95-1.02-2.9-.99-1.55-1.97-3.1-2.93-4.64Z"/></g><g><path class="cls-1" d="M165.87,218.12c-20.95-20.15-38.58-46.06-47.72-73.83-8.5-25.81-11.89-53.74-13.81-80.73-1.26-17.66-1.21-35.25-.42-52.93,.05-1.2-1.72-1.13-1.83,.02-2.95,31.31,.02,63.78,5.07,94.73,2.05,12.56,4.54,25.14,8.33,37.3,3.92,12.6,10.05,24.65,16.7,36.01,8.84,15.12,19.79,28.66,32.46,40.73,.83,.79,2.06-.5,1.23-1.3h0Z"/><path class="cls-1" d="M114.05,139.06c-2.75-9.5-5.01-20.07-7.22-33.63-5.98-36.61-7.64-67.62-5.07-94.81,.07-.8,.78-1.23,1.42-1.18,.65,.04,1.09,.54,1.06,1.21-.87,19.46-.73,36.76,.42,52.89,1.64,23.03,4.69,53,13.79,80.65,8.67,26.32,25.58,52.5,47.64,73.7h0c.56,.54,.43,1.27,.02,1.71-.42,.44-1.13,.6-1.7,.06-12.95-12.33-23.89-26.05-32.52-40.8-8.02-13.7-13.33-25.16-16.73-36.08-.38-1.22-.75-2.46-1.11-3.71ZM103.57,10.4c-.07-.26-.32-.31-.43-.32-.32-.02-.69,.18-.73,.6-2.56,27.13-.9,58.09,5.07,94.64,2.5,15.32,5.07,26.81,8.32,37.26,3.38,10.86,8.68,22.28,16.67,35.94,8.6,14.69,19.5,28.37,32.4,40.66,.29,.27,.6,.15,.78-.04,.18-.19,.29-.51,0-.79h0c-22.13-21.28-39.11-47.55-47.81-73.97-9.12-27.73-12.18-57.74-13.83-80.81-1.15-16.16-1.29-33.48-.42-52.97,0-.08,0-.15-.02-.21Z"/></g><g><path class="cls-1" d="M148.34,206.87c-11.99-3.03-24.75-3.1-36.41-7.38-9.32-3.42-17.86-9.22-26.05-14.74-17.06-11.49-33.31-25.67-52.11-34.28-1.23-.56-2.23,1.18-1.02,1.86,7.55,4.23,16.36,6.1,24.74,7.86,11,2.31,22.11,4.01,33.1,6.35,10.48,2.23,20.25,4.71,28.23,12.3,4.45,4.23,8.65,8.76,13.01,13.08,4.73,4.68,8.44,10.27,13.29,14.85,1,.95,2.49-.6,1.48-1.55-4.85-4.58-8.58-10.15-13.3-14.85-4.55-4.53-8.94-9.33-13.65-13.69-6.98-6.46-15.21-9.13-24.3-11.26-10.84-2.53-21.86-4.22-32.77-6.36-9.67-1.9-20.11-3.7-28.8-8.58-.34,.62-.68,1.24-1.02,1.86,19.28,8.83,35.89,23.44,53.43,35.15,7.66,5.11,15.58,10.32,24.21,13.66,11.94,4.63,25.15,4.49,37.5,7.51,1.15,.28,1.59-1.49,.45-1.78h0Z"/><path class="cls-1" d="M31.92,151.81c-.1-.34-.04-.7,.11-.99,.27-.54,.88-.93,1.58-.76l.03-.05,.27,.15c1.57,.72,3.12,1.48,4.66,2.27,6.96,2.95,14.65,4.44,22.13,5.9l1.93,.38c3.82,.75,7.72,1.46,11.49,2.14,7,1.27,14.25,2.58,21.3,4.23,9.8,2.29,17.7,5.1,24.45,11.34,3.03,2.8,5.97,5.83,8.81,8.76,1.58,1.63,3.22,3.32,4.85,4.94,2.22,2.21,4.24,4.64,6.2,6.99,2.22,2.67,4.52,5.42,7.09,7.85,.36,.34,.51,.8,.4,1.27,0,0,0,.02,0,.03,.4,.1,.8,.19,1.2,.29h0c.77,.19,1.02,.9,.87,1.49-.15,.6-.7,1.11-1.48,.92-4.91-1.2-10.05-1.91-15.02-2.6-7.53-1.04-15.31-2.12-22.53-4.92-8.99-3.48-17.46-9.14-24.27-13.69-5.55-3.71-11.11-7.78-16.48-11.71-10.3-7.54-20.91-15.31-32.29-21.17-1.59-.67-3.13-1.42-4.62-2.25l-.31-.14,.03-.05c-.2-.18-.33-.39-.39-.6Zm1.35-1.13c-.3,0-.55,.2-.67,.44-.11,.21-.13,.48,.04,.7l.63-1.14Zm.62,.23l-.7,1.26c1.45,.67,2.88,1.37,4.3,2.1,2.57,1.09,5.25,1.98,7.95,2.74-2.35-1.4-4.73-2.73-7.14-3.98-1.5-.64-2.97-1.34-4.4-2.13Zm13.56,7.33c-1.91-.5-3.83-1.05-5.72-1.68,9.85,5.54,19.12,12.33,28.16,18.95,5.37,3.93,10.92,8,16.46,11.7,6.78,4.53,15.22,10.17,24.15,13.62,7.15,2.77,14.89,3.84,22.38,4.88,4.99,.69,10.14,1.41,15.08,2.62,.41,.1,.63-.18,.69-.44,.07-.26,0-.6-.4-.7h0c-.45-.11-.9-.22-1.36-.33-.19,.22-.43,.38-.7,.46-.46,.14-.93,.02-1.3-.33-.26-.24-.51-.49-.76-.74-3.64-.73-7.34-1.28-10.95-1.81-7.12-1.05-14.49-2.13-21.37-4.65-9.21-3.38-17.61-9.04-25.72-14.51l-.4-.27c-5.23-3.52-10.47-7.36-15.54-11.07-7.35-5.38-14.86-10.88-22.7-15.71Zm99.13,47.53c-.03-.11-.09-.22-.21-.33-2.6-2.45-4.91-5.22-7.14-7.9-1.95-2.34-3.97-4.76-6.16-6.95-1.63-1.63-3.27-3.32-4.86-4.95-2.84-2.92-5.77-5.94-8.78-8.73-6.64-6.15-14.46-8.92-24.16-11.18-7.04-1.65-14.27-2.96-21.27-4.22-3.77-.68-7.67-1.39-11.5-2.14l-1.93-.38c-5.95-1.16-12.04-2.34-17.8-4.26,1.66,.94,3.3,1.91,4.93,2.91,3.34,.86,6.67,1.56,9.84,2.23,5.35,1.12,10.82,2.12,16.1,3.08,5.58,1.02,11.35,2.07,17,3.27,10.83,2.31,20.45,4.83,28.39,12.38,2.64,2.51,5.23,5.17,7.74,7.74,1.72,1.77,3.5,3.59,5.28,5.35,2.25,2.22,4.29,4.69,6.27,7.07,1.94,2.33,3.93,4.73,6.13,6.91,.71,.15,1.42,.3,2.13,.46,0-.01,0-.02,0-.03,.02-.09,.03-.2,0-.32Zm-3.27-.33c-1.95-2.01-3.74-4.17-5.49-6.27-1.97-2.37-4-4.82-6.23-7.02-1.78-1.76-3.56-3.59-5.29-5.36-2.5-2.57-5.09-5.22-7.72-7.72-7.82-7.43-17.34-9.93-28.07-12.21-5.64-1.2-11.4-2.25-16.98-3.27-5.29-.96-10.76-1.96-16.12-3.09-2.55-.54-5.22-1.09-7.91-1.74,7.24,4.57,14.2,9.67,21.03,14.67,5.07,3.71,10.3,7.55,15.52,11.06l.4,.27c8.09,5.45,16.45,11.08,25.58,14.44,6.82,2.5,14.15,3.58,21.24,4.62,3.31,.49,6.69,.98,10.04,1.63Zm2.77,1.24c-.25-.06-.51-.11-.76-.17,0,0,.01,.01,.02,.02,.25,.24,.5,.23,.67,.18,.03,0,.05-.02,.08-.03Z"/></g><g><path class="cls-1" d="M118.63,148.03c-7.75-2.85-12.65-10.17-20.31-13.39-5.48-2.3-10.01-4.11-14.23-8.42-3.7-3.78-7.01-7.94-10.66-11.77-.89-.93-2.14,.47-1.36,1.42,6.42,7.74,12.63,15.75,22.17,19.54,5.51,2.19,9.64,4.63,14.16,8.42,3.03,2.54,6.01,4.72,9.75,6.06,1.17,.42,1.62-1.44,.47-1.86h0Z"/><path class="cls-1" d="M71.55,115.57c-.16-.54,.05-1.11,.43-1.44,.43-.38,1.12-.5,1.68,.09,1.71,1.79,3.37,3.69,4.97,5.52,1.83,2.09,3.72,4.24,5.68,6.25,4.02,4.11,8.42,5.95,13.52,8.09l.61,.25c3.75,1.57,6.87,4.14,9.89,6.63,3.17,2.61,6.46,5.31,10.41,6.76h0c.79,.29,1.03,1.13,.79,1.77-.23,.64-.84,.93-1.49,.7-3.69-1.32-6.61-3.4-9.85-6.11-4.47-3.75-8.55-6.17-14.07-8.37-9.05-3.6-15.2-11.04-21.15-18.24l-1.15-1.39c-.13-.16-.22-.33-.27-.5Zm46.97,32.76c-4.05-1.49-7.38-4.23-10.59-6.87-2.98-2.45-6.07-4.99-9.73-6.53l-.61-.25c-5.16-2.17-9.62-4.04-13.73-8.24-1.98-2.02-3.88-4.19-5.71-6.28-1.6-1.83-3.25-3.71-4.95-5.5-.35-.36-.66-.16-.78-.05-.27,.24-.39,.68-.09,1.04l1.16,1.4c5.9,7.14,11.99,14.51,20.89,18.05,5.59,2.22,9.72,4.68,14.25,8.48,3.19,2.67,6.05,4.72,9.65,6,.43,.16,.6-.17,.66-.31,.1-.27,.07-.77-.41-.94h0Z"/></g><g><path class="cls-1" d="M90.38,131.89c-2.95-3.91-8.23-3.59-12.52-5.13-7.85-2.81-18.63-10.67-15.84-20.29,2.23-7.7,10.56-8.49,15-2.06,2.49,3.61,4.88,7.71,6.43,11.82,2.36,6.27,2.2,12.27,7.06,17.4,.72,.76,2.09-.31,1.45-1.17-4.03-5.37-4.2-10.8-6.48-16.82-1.72-4.56-4.28-9.06-7.12-13.01-3.85-5.36-11.13-6.77-15.96-1.62-5.38,5.74-2.88,13.87,1.72,19.18,2.86,3.3,6.56,5.86,10.56,7.57,4.12,1.77,11.38,1.48,14.22,5.04,.68,.86,2.17,0,1.49-.91h0Z"/><path class="cls-1" d="M59.6,112.76c-1.19-4.12-.73-8.47,2.55-11.97,2.17-2.32,5.01-3.49,7.99-3.29,3.28,.22,6.37,2.02,8.48,4.95,3.06,4.27,5.54,8.79,7.16,13.08,.77,2.02,1.29,3.98,1.81,5.88,1.02,3.77,1.98,7.33,4.63,10.86,.38,.51,.28,1.18-.24,1.62-.47,.39-1.2,.51-1.71-.03-.13-.13-.25-.27-.37-.4-.43,.09-.92-.03-1.26-.45-1.74-2.18-5.27-2.87-8.69-3.54-2-.39-3.88-.76-5.4-1.41-4.22-1.81-7.91-4.46-10.68-7.66-1.93-2.23-3.47-4.88-4.26-7.64Zm26.7,6.46c-.33-1.14-.69-2.29-1.14-3.47-1.6-4.24-4.05-8.71-7.08-12.93-1.99-2.77-4.9-4.48-7.99-4.68-2.78-.18-5.43,.92-7.47,3.09-5.21,5.55-2.88,13.42,1.73,18.74,2.71,3.13,6.32,5.72,10.44,7.49,1.46,.62,3.31,.99,5.27,1.37,3.53,.69,7.18,1.4,9.07,3.77,.04,.05,.09,.1,.14,.13-.75-.94-1.36-1.91-1.87-2.9-1.64-.86-3.55-1.27-5.53-1.69-1.38-.29-2.81-.6-4.14-1.07-8.03-2.88-18.93-10.76-16.04-20.69,1.04-3.58,3.52-6.01,6.66-6.52,3.28-.53,6.7,1.14,8.92,4.36,2.91,4.22,5.09,8.22,6.47,11.89,.76,2.02,1.26,4.01,1.75,5.94,.64,2.54,1.26,4.99,2.42,7.31,1.02,.56,1.95,1.31,2.73,2.33h0c.37,.49,.31,1.08-.14,1.46,.08,.08,.15,.17,.23,.25,.24,.25,.59,.16,.81-.02,.07-.06,.4-.37,.14-.73-2.72-3.63-3.7-7.25-4.73-11.08-.21-.77-.42-1.56-.65-2.35Zm-2.27-.17c-.26-.9-.55-1.8-.89-2.71-1.36-3.62-3.52-7.57-6.4-11.75-2.08-3.01-5.25-4.58-8.28-4.09-2.92,.47-5.16,2.68-6.14,6.06-2.74,9.43,8.14,17.21,15.64,19.9,1.29,.46,2.69,.76,4.06,1.05,1.68,.36,3.39,.72,4.95,1.4-.96-2.14-1.52-4.38-2.11-6.69-.26-1.04-.53-2.09-.84-3.16Zm6.09,13.03c-.47-.62-.99-1.12-1.56-1.54,.43,.72,.93,1.43,1.51,2.12,.14-.12,.25-.31,.05-.58h0Z"/></g><g><path class="cls-1" d="M114.69,132.14c-15.38-16.76-22.29-42.12-20.09-64.47,2.1-21.42,10.64-42.42,9.1-64.14-.11-1.51-2.46-1.49-2.37,.03,1.58,24.51,4.5,49.04,11.37,72.69,3.32,11.45,8.74,23.41,6.49,35.58-1.52,8.2-7.5,15.8-5.44,24.43,.34,1.43,2.53,.79,2.19-.63-2.17-9.13,5.38-18.19,6-27.29,.72-10.57-3.41-20.7-6.39-30.62-7.23-24.1-10.26-49.15-11.85-74.18-.79,0-1.58,.02-2.37,.03,1.66,23.56-8.4,46.17-9.35,69.59-.86,21.18,6.8,44.76,21.44,60.32,.81,.86,2.06-.46,1.26-1.33h0Z"/><path class="cls-1" d="M95.11,100.96c-2.6-8.99-3.83-18.49-3.45-27.82,.42-10.28,2.62-20.56,4.74-30.49,2.67-12.46,5.42-25.34,4.66-38.28-.02-.26-.03-.52-.05-.78l-.02-.34h.04c.1-.74,.72-1.11,1.32-1.15,.68-.05,1.47,.32,1.64,1.12h.03s.02,.31,.02,.31h0c.02,.31,.04,.62,.06,.93,1.95,29.96,5.58,52.55,11.78,73.18,.53,1.77,1.1,3.55,1.67,5.33,2.62,8.19,5.33,16.67,4.73,25.41-.26,3.84-1.75,7.71-3.2,11.45-1.99,5.17-4.06,10.51-2.81,15.75,.22,.94-.42,1.62-1.14,1.79-.66,.16-1.47-.07-1.68-1.01-.23-.95-.36-1.89-.41-2.83-8.16-8.73-14.34-20.17-17.92-32.55Zm6.61-87.56c-.52,9.94-2.63,19.78-4.68,29.38-2.12,9.91-4.32,20.16-4.73,30.38-.88,21.76,7.03,44.4,20.69,59.37,0-.57,.03-1.14,.09-1.7-13.89-16.13-21.08-40.12-18.81-63.19,.82-8.36,2.65-16.78,4.41-24.93,1.44-6.64,2.91-13.41,3.85-20.23-.29-2.95-.57-5.97-.82-9.08Zm1.09,11.72c-.93,5.98-2.22,11.9-3.48,17.73-1.76,8.13-3.59,16.54-4.4,24.86-2.23,22.67,4.75,46.25,18.27,62.24,.47-3.3,1.71-6.48,2.92-9.6,1.09-2.79,2.22-5.68,2.75-8.58,1.79-9.66-1.32-19.24-4.32-28.5-.74-2.28-1.5-4.63-2.17-6.92-4.42-15.23-7.51-31.59-9.58-51.23Zm10.91,108.91c.06,.72,.18,1.44,.35,2.16,.17,.68,.77,.56,.9,.53,.41-.1,.79-.46,.66-1.01-.21-.9-.33-1.8-.38-2.7-.06,.28-.21,.54-.41,.73-.33,.31-.74,.41-1.12,.29Zm-.03-2.51c-.04,.57-.05,1.15-.02,1.73,.32,.34,.64,.1,.73,.01,.19-.18,.37-.56,.06-.9-.26-.28-.51-.56-.76-.85Zm3.76-41.16c2.04,7.05,3.41,14.25,2.06,21.53-.55,2.96-1.69,5.88-2.79,8.7-1.27,3.26-2.57,6.59-2.96,10.03,.38,.44,.77,.87,1.16,1.3h0c.15,.17,.23,.32,.3,.52-.06-4.34,1.61-8.66,3.23-12.87,1.43-3.7,2.9-7.52,3.15-11.26,.58-8.62-2.1-17.03-4.71-25.17-.57-1.79-1.14-3.57-1.67-5.34-5.58-18.58-9.08-38.74-11.15-64.41-.16,3.04-.47,6.08-.89,9.1,2.06,20.62,5.17,37.59,9.74,53.38l.08,.28c.66,2.28,1.42,4.63,2.16,6.91,.78,2.41,1.57,4.84,2.28,7.29ZM101.71,4.33c.35,5.3,.75,10.36,1.2,15.22,.57-5,.82-10.03,.53-15.07-.01-.21-.03-.41-.04-.62l-1.71,.02c0,.15,.02,.29,.03,.44Zm1.58-1.11c-.18-.38-.61-.5-.9-.48-.29,.02-.6,.16-.69,.5l1.6-.02Z"/></g><g><path class="cls-1" d="M129.4,283.43c.17-.07,.35-.15,.51-.24,.75-.37,1.88-.93,2.89,.38,1.23,1.6-.06,2.84-.68,3.44-.1,.05-.17,.26-.25,.44-.14,.31-.3,.65-.63,.89-.24,.17-.53,.32-.82,.46-.93,.47-1.14,.66-.99,1.24,.26,.94,1.08,1.12,2.4,1.3,.18,.02,.35,.05,.51,.08,3.16,.51,6.24-1.49,7.68-4.97,1.05-2.55,3.26-4.36,5.92-4.86,2.42-.45,4.89,.25,6.76,1.88,.52-.59,1.04-1.18,1.56-1.77-3.01-4.18-2.87-8.05,.43-12.84,1.75-2.55,3.34-5.23,1.81-7.55-.03-.05-.07-.1-.1-.15l-2.01,4.06c-.47,.95-1,1.89-1.51,2.79-1,1.77-2.03,3.61-2.66,5.6l-.42,1.33-.65-1.24c-2.02-3.86,.29-5.71,2.33-7.33,.73-.58,1.42-1.14,1.93-1.77l2.89-3.59c-1.11-1.86-1.07-3.63-1.04-5.34,.02-.82,.03-1.59-.07-2.36-.63-4.72-2.44-9.42-5.54-14.37-.62-.99-1.55-1.66-2.83-2.03-.46-.13-.92-.26-1.39-.38-2.04-.55-4.14-1.12-6.06-2.33-.52-.33-1.01-.44-1.46-.33-.57,.14-1.13,.64-1.61,1.45-1.96,3.28-4.16,7.2-5.73,11.37-.51,1.36-.99,2.22-2.96,1.84-.42-.08-.88-.11-1.36-.13-.54-.03-1.1-.06-1.67-.17l-.21-.04c-2.52-.51-4.1-.7-4.83,1.85-.18,.63-.83,1.07-1.3,1.39-4.73,3.19-4.64,5.49-1.95,10.78,.15,.3,.31,.59,.47,.91l.56,1.08-.56,.25c-1.48,.66-2.95,.63-4.37,.6-.95-.02-1.85-.04-2.73,.15-1.94,.41-2.84,1.37-2.77,2.92,.08,1.61-.32,3.04-.7,4.42-.14,.5-.27,.99-.39,1.49-.71,3.12,.2,6.67,2.38,9.26,1.84,2.18,4.32,3.35,6.82,3.21,5.03-.28,9.85-1.3,14.33-3.05Zm15.64-3.67c-3.38,.05-4.59,2.19-5.99,4.68-1.2,2.13-2.45,4.34-5.21,5.14l-1.24,.36,.56-1.17c.33-.69,.66-1.36,.98-2,.85-1.7,1.65-3.31,2.24-4.99,.57-1.61,1.63-2.79,3.09-3.42,1.68-.73,3.73-.63,5.79,.28l2.42,1.07-2.65,.04Zm1.87-4.41l.81,1.19-1.38-.27c-.15-.02-.34-.03-.51-.15-.13-.09-.41-.28-.51-.58-3.79-.59-5.56-3.53-7.25-6.41h0s-.95-.33-.95-.33l.9-.69,.46-1.07,1.37,1.19-.27,.19c2.47,1.03,4.12,3,5.71,4.9,.33,.39,.65,.78,.99,1.16l2.17,.19-1.53,.68Zm-13.09-25.21c-1.21-.61-1.64-1.42-1.8-1.98-.21-.77-.04-1.63,.47-2.43,1.12-1.74,2-3.63,2.86-5.46,.35-.74,.69-1.48,1.05-2.21l.06-.12c.24-.5,.54-1.12,1.16-1.31,.36-.11,.74-.06,1.14,.15,.75,.4,1.55,.77,2.33,1.12,2.69,1.22,5.47,2.48,6.94,5.72,.86,1.9,2.07,3.81,3.57,5.67,1.93,2.39,2.41,5.3,1.26,7.61-.54,1.1-.84,2.32-1.16,3.61-.51,2.1-1.03,4.26-2.67,5.96-.54,.56-1.21,1.08-2.04,1.52l-.57,.31-.24-.6c-.24-.6-.49-1.19-.74-1.78-.55-1.29-1.11-2.63-1.53-3.99-1.63-5.26-5.02-9.23-10.09-11.8Zm-17.04,9.33c-.75-1.57-.91-2.98-.44-4.08,.4-.95,1.24-1.65,2.49-2.07,5.95-2,11.81-1.59,16.51,1.16,4.59,2.69,7.64,7.33,8.79,13.43l.22,1.18-1.06-.56c-1.6-.84-2.87-1.98-4.1-3.08-.86-.77-1.68-1.5-2.58-2.12-.14-.1-.28-.21-.43-.32-.65-.51-.9-.65-1.41-.33-.56,.35-.51,.66-.24,1.52l.1,.33c1.24,4.28,3.1,7.88,5.67,11l1.38,1.68-2.03-.77c-1.65-.62-3.39-.98-5.07-1.33-.73-.15-1.46-.3-2.18-.47-8.69-2.06-12.63-8.9-15.63-15.16Zm-8.4,19.43c-1.73-2.95-1.62-6.84,.3-10.95,.16-.34,.45-.66,.78-.89,1.29-.87,5.39-.74,7.76-.26,1.54,.31,2.47,.74,2.85,1.31,3.8,5.75,9.68,7.89,15.87,9.73l1.68,.5-1.65,.6c-1.21,.44-2.41,.91-3.61,1.39-4.76,1.87-9.68,3.81-15.01,3.41-4.15-.31-7.34-2.03-8.98-4.84Z"/><path class="cls-1" d="M105.75,279.24c-.51-1.75-.59-3.59-.2-5.31,.12-.5,.25-.99,.39-1.49,.38-1.38,.77-2.78,.7-4.34-.08-1.71,.94-2.8,3.03-3.25,.92-.19,1.83-.17,2.8-.15,1.38,.03,2.81,.06,4.23-.57l.25-.11-.4-.77c-.17-.32-.32-.62-.48-.91-2.74-5.4-2.84-7.9,2.05-11.2,.43-.29,1.02-.69,1.17-1.21,.85-2.97,2.96-2.54,5.2-2.08l.21,.04c.55,.11,1.09,.14,1.62,.17,.47,.02,.96,.05,1.41,.14,1.77,.35,2.12-.36,2.6-1.63,1.57-4.2,3.79-8.13,5.75-11.43,.53-.89,1.15-1.44,1.81-1.6,.54-.13,1.11,0,1.71,.37,1.88,1.18,3.95,1.74,5.96,2.29,.47,.13,.94,.25,1.4,.39,1.37,.4,2.36,1.1,3.02,2.17,3.12,4.99,4.94,9.73,5.58,14.5,.11,.8,.09,1.58,.07,2.41-.04,1.67-.07,3.38,.99,5.17l.18,.29c1.65,2.49,0,5.27-1.81,7.91-3.22,4.68-3.35,8.41-.44,12.47l.15,.21-.17,.19c-.52,.59-1.04,1.18-1.56,1.77l-.21,.24-.25-.21c-1.82-1.58-4.18-2.24-6.49-1.81-2.55,.47-4.67,2.22-5.68,4.66-1.5,3.63-4.73,5.71-8.04,5.17-.16-.03-.33-.05-.51-.07-1.15-.16-2.33-.31-2.67-1.54-.24-.87,.29-1.18,1.15-1.62,.27-.13,.55-.28,.77-.44,.26-.18,.39-.47,.52-.76l.05-.11c.07-.17,.15-.35,.29-.45,.81-.78,1.58-1.72,.62-2.98-.78-1.02-1.55-.75-2.48-.29-.18,.09-.36,.18-.54,.25h0c-4.51,1.76-9.36,2.79-14.43,3.07-2.6,.14-5.18-1.07-7.08-3.33-1.05-1.24-1.81-2.7-2.25-4.23Zm12.08-14.9l-.88,.39c-1.55,.69-3.05,.66-4.5,.63-.93-.02-1.81-.04-2.65,.14-1.78,.38-2.58,1.2-2.51,2.58,.08,1.66-.32,3.11-.71,4.52-.14,.51-.28,.99-.39,1.48-.69,3.02,.19,6.47,2.31,8.98,1.77,2.1,4.16,3.23,6.55,3.1,5-.28,9.78-1.29,14.23-3.02,.17-.06,.33-.15,.49-.23,.74-.37,2.12-1.05,3.29,.47,1.41,1.83-.13,3.31-.71,3.87l-.08,.06s-.02,.09-.04,.16l-.05,.12c-.15,.33-.33,.73-.74,1.02-.26,.19-.57,.34-.86,.49-.93,.46-.9,.55-.82,.87,.23,.7,.8,.88,2.13,1.07,.18,.02,.35,.05,.52,.08,3,.49,5.95-1.43,7.33-4.78,1.09-2.65,3.4-4.54,6.16-5.05,2.4-.45,4.85,.19,6.79,1.75,.39-.45,.79-.9,1.18-1.34-2.91-4.19-2.73-8.21,.58-13.01,1.6-2.33,3.06-4.76,2-6.84l-1.75,3.53c-.48,.97-1.01,1.9-1.52,2.81-1,1.77-2.02,3.58-2.63,5.54l-.65,2.08-.6-1.14-1.92,.85,1.04,1.53-2.16-.43c-.14-.01-.39-.04-.63-.2-.13-.08-.39-.26-.55-.55-3.85-.69-5.66-3.73-7.25-6.45l-1.23-.41c1.06,2.33,2.36,4.43,3.94,6.35l1.87,2.27c.96,.07,1.97,.33,2.97,.77l3.78,1.67-4.14,.06c-3.19,.05-4.3,2.02-5.71,4.51-1.24,2.19-2.51,4.45-5.4,5.3l-1.94,.57,.88-1.82c.33-.7,.66-1.36,.99-2,.84-1.69,1.64-3.29,2.22-4.95,.6-1.7,1.73-2.94,3.27-3.61,.74-.32,1.54-.49,2.39-.51l-2.19-.83c-1.61-.61-3.33-.97-4.99-1.31-.78-.16-1.5-.31-2.22-.48-8.83-2.09-12.81-9.01-15.85-15.33h0c-.79-1.66-.95-3.16-.45-4.35,.44-1.05,1.35-1.8,2.69-2.25,6.04-2.03,12-1.61,16.78,1.18,4.68,2.74,7.77,7.46,8.95,13.65l.35,1.84-1.66-.87c-1.64-.86-2.92-2.01-4.17-3.13-.85-.76-1.66-1.48-2.55-2.09-.14-.09-.28-.2-.41-.31-.69-.54-.77-.53-1.06-.34-.33,.21-.38,.27-.1,1.15l.1,.33c.45,1.55,.98,3.01,1.6,4.39l1.2-.92,.6-1.41,2.02,1.76-.15,.1c2.25,1.1,3.81,2.96,5.31,4.76l.07,.09c.27,.33,.55,.65,.82,.97l2.77,.24-.29-.56c-2.15-4.11,.38-6.12,2.41-7.74,.73-.59,1.4-1.12,1.88-1.72l2.75-3.42c-1.04-1.87-1-3.62-.97-5.32,.02-.81,.03-1.56-.07-2.31-.63-4.68-2.42-9.33-5.49-14.24-.58-.92-1.44-1.54-2.65-1.89-.46-.13-.92-.26-1.38-.38-2.07-.56-4.19-1.14-6.15-2.37-.44-.28-.85-.38-1.21-.29-.48,.12-.97,.56-1.4,1.3-1.95,3.27-4.15,7.17-5.7,11.32-.53,1.42-1.11,2.48-3.33,2.04-.41-.08-.87-.1-1.32-.13-.52-.03-1.12-.06-1.72-.18l-.21-.04c-2.68-.55-3.83-.55-4.45,1.62-.21,.75-.92,1.22-1.43,1.57-4.56,3.08-4.48,5.18-1.84,10.37,.15,.29,.31,.59,.47,.91l.73,1.39Zm25.43,1.33c-1.41-4.88-4.18-8.62-8.09-10.91-4.62-2.7-10.38-3.1-16.24-1.13-1.15,.39-1.93,1.02-2.3,1.89-.43,1.01-.27,2.33,.44,3.81,2.97,6.19,6.86,12.96,15.42,14.98,.71,.17,1.43,.32,2.14,.46,1.74,.36,3.49,.72,5.15,1.35l.89,.34-.6-.73c-2.6-3.16-4.48-6.8-5.73-11.12l-.1-.33c-.27-.86-.4-1.4,.37-1.89,.7-.45,1.13-.16,1.78,.35,.15,.12,.28,.22,.41,.3,.93,.63,1.75,1.37,2.62,2.14,1.21,1.09,2.47,2.21,4.04,3.04l.46,.25-.1-.52c-.15-.79-.33-1.56-.55-2.3Zm2.93,13.75l-1.06-.47c-1.97-.87-3.94-.97-5.53-.28-1.37,.59-2.38,1.71-2.91,3.23-.6,1.7-1.4,3.31-2.25,5.02-.32,.64-.65,1.3-.98,2l-.25,.51,.54-.16c2.63-.77,3.84-2.91,5.01-4.99,1.39-2.46,2.7-4.79,6.26-4.84l1.16-.02Zm-7.6-11.85l-.32,.74-.48,.37,.48,.16,.06,.1c1.57,2.68,3.32,5.7,7.03,6.28l.2,.03,.06,.19c.06,.19,.27,.33,.38,.41,.11,.07,.23,.09,.36,.1l.64,.12-.59-.86,.73-.33-1.04-.09-.09-.1c-.31-.36-.61-.72-.92-1.08l-.07-.09c-1.57-1.88-3.19-3.81-5.59-4.81l-.54-.23,.41-.29-.72-.63Zm16.56-4.58l-1.45,1.8c-.52,.65-1.22,1.21-1.95,1.8-2.06,1.64-4.17,3.31-2.27,6.95l.28,.54,.18-.58c.63-2.02,1.67-3.86,2.67-5.64,.52-.91,1.04-1.85,1.51-2.79l1.03-2.08Zm-47.93,14.03c-.78-2.7-.39-5.88,1.16-9.2,.18-.39,.51-.76,.89-1.02,1.41-.95,5.63-.79,8.01-.31,1.65,.33,2.62,.79,3.06,1.45,3.74,5.66,9.56,7.77,15.69,9.6l2.62,.78-2.57,.93c-1.23,.45-2.49,.94-3.61,1.38-4.8,1.89-9.75,3.84-15.15,3.44-4.26-.32-7.54-2.1-9.24-5l.28-.16-.28,.16c-.38-.64-.67-1.33-.88-2.05Zm29.37,1.36l-.74-.22c-6.25-1.87-12.19-4.02-16.05-9.87-.32-.49-1.22-.89-2.65-1.17-2.57-.51-6.41-.53-7.52,.21-.29,.2-.53,.47-.67,.76-1.87,4-1.99,7.78-.31,10.65,1.58,2.71,4.68,4.37,8.72,4.67,5.25,.4,10.13-1.53,14.85-3.39,1.13-.44,2.39-.94,3.63-1.39l.72-.26Zm-4.87-30.08s0-.03-.01-.05c-.23-.86-.05-1.82,.51-2.69,1.1-1.71,1.98-3.59,2.83-5.4l.33,.06-.3-.14c.34-.72,.67-1.44,1.03-2.15l.06-.11c.26-.53,.61-1.24,1.35-1.48,.44-.14,.91-.08,1.39,.18,.74,.4,1.53,.76,2.31,1.11,2.75,1.25,5.58,2.53,7.1,5.88,.85,1.88,2.04,3.77,3.52,5.6,2.01,2.49,2.5,5.54,1.3,7.96-.53,1.07-.82,2.27-1.13,3.54-.52,2.14-1.05,4.34-2.75,6.11-.6,.62-1.29,1.14-2.12,1.58l-.89,.48-.37-.94c-.23-.57-.46-1.13-.7-1.69l-.03-.08c-.55-1.3-1.12-2.64-1.54-4.02-1.6-5.17-4.94-9.08-9.92-11.61-1.28-.65-1.77-1.51-1.95-2.14Zm21.15,4.1c-.29-.99-.8-1.98-1.53-2.88-1.52-1.88-2.73-3.81-3.61-5.74-1.42-3.13-4.14-4.36-6.78-5.56-.79-.36-1.59-.72-2.35-1.13-.32-.17-.62-.22-.89-.13-.48,.15-.74,.68-.97,1.14l-.06,.12c-.35,.71-.68,1.43-1.02,2.14l-.03,.07c-.86,1.84-1.75,3.73-2.87,5.48-.46,.71-.61,1.48-.43,2.16,.15,.5,.53,1.22,1.63,1.78,5.15,2.61,8.6,6.65,10.25,11.99,.42,1.35,.98,2.68,1.52,3.96l.03,.08c.24,.57,.48,1.13,.71,1.71l.11,.26,.25-.13c.77-.41,1.41-.89,1.96-1.46,1.58-1.64,2.09-3.76,2.59-5.81,.32-1.31,.62-2.55,1.18-3.68,.66-1.32,.75-2.86,.31-4.38Z"/></g><g><path class="cls-1" d="M165.6,134.04c-.58,.05-1.1,.44-1.49,1.13-.48,.84-1.08,1.71-1.94,1.77-.9,.07-1.61-.75-2.46-1.82-1.96-2.49-3.16-3.53-4.02-3.46-.94,.08-1.92,1.53-3.2,3.85-.16,.3-.46,.37-.7,.44-.08,.02-.17,.04-.27,.08l-.41,.15-.26-.36c-1.57-2.17-2.81-3.15-4.85-2.12-5.84,2.97-8.97,7.84-9.04,14.1-.07,6.96,4.6,10.61,8.54,12.44,1.62,.75,2.17,1.94,2.66,2.99,.3,.65,.54,1.23,.78,1.82,1.05,2.6,1.96,4.85,5.08,5.44,.44,.08,.76,.27,.95,.56,.07,.1,.11,.21,.14,.31,.78-.05,1.55-.11,2.33-.16,.11-.19,.24-.38,.41-.56,.39-.41,.78-.81,1.17-1.21,2.21-2.27,4.3-4.41,5.55-7.31,.37-.84,1.13-1.46,1.87-2.05,.23-.19,.46-.37,.68-.56,.39-.35,.8-.7,1.21-1.05,2.34-2.02,4.77-4.11,5.45-7.36,1.4-6.69-2.56-11.49-6.38-16.13l-.14-.17c-.44-.53-1.05-.82-1.63-.77Zm-26.92,12.09c.5-4.54,2.85-8.02,6.96-10.35,.53-.3,1.14-.66,1.67-.4,.15,.07,.41,.26,.47,.69,.06,.39,.3,.79,.55,1.2,.5,.81,1.11,1.81,.4,3.1-.34,.63-.82,1.18-1.2,1.6-3.48,3.81-4.25,7.78-2.36,12.15l.77,1.06-.59,.31c-.44,.25-.74,.23-.95-.03-.11-.13-.21-.28-.32-.42-4.01-1.61-5.88-4.69-5.42-8.9Zm16.18,22.14l.16,1.59-1.14-1.12c-3.05-3.01-4.42-5.79-5.46-11.02l-.34-1.7,1.29,1.16c3.38,3.04,5.02,6.36,5.49,11.1Zm7.64-9.65c.83,3.36-1.03,5.45-2.68,7.29-.54,.61-1.1,1.23-1.55,1.88l-.59,.86-.41-.96c-1.4-3.26-.35-5.54,4.31-9.38l.71-.58,.22,.89Zm-1.53-2.62c-1.14,1.04-2.47,1.88-3.77,2.72-.5,.32-1,.64-1.49,.96-1.24,.84-1.9-.12-2.22-.57-.06-.08-.12-.17-.18-.25-1.15-1.48-2.64-2.72-4.54-3.77h0c-1.4-.77-2.44-2.17-2.86-3.85-.44-1.77-.16-3.62,.79-5.06,1.74-2.68,3.7-5.38,5.82-8.02,1-1.25,2.18-1.93,3.41-1.97,1.31-.04,2.59,.62,3.82,1.96,3.32,3.65,4.81,7.78,4.31,11.95-.29,2.66-1.5,4.47-3.08,5.91Zm6.75-17.76c.3,.4,.62,.77,.92,1.14,.68,.82,1.32,1.59,1.78,2.49,2.47,4.85,3.56,8.1-1.78,12.7-.31,.27-.66,.66-1.02,1.08-.33,.37-.68,.78-1.05,1.12-.72,.66-1.51,1.06-2.31,.49-.51-.37-.8-.8-.87-1.29-.12-.86,.49-1.6,1.07-2.32,.33-.42,.68-.84,.81-1.21,1.04-3.02,.92-5.81-.34-8.3-.81-1.59-1-2.81-.6-3.84,.37-.97,1.26-1.71,2.71-2.27l.4-.15,.26,.34Z"/><path class="cls-1" d="M137.16,151.78c-.34-1.19-.53-2.51-.52-3.97,.07-6.38,3.25-11.36,9.22-14.38,2.25-1.14,3.63-.05,5.27,2.22l.11,.16,.18-.07c.11-.04,.21-.07,.3-.09,.24-.07,.41-.12,.49-.28,1.37-2.48,2.38-3.94,3.46-4.03,.99-.08,2.24,.96,4.3,3.58,.78,1,1.44,1.75,2.18,1.7,.7-.05,1.24-.84,1.68-1.61,.44-.79,1.05-1.23,1.75-1.29h0c.69-.06,1.4,.27,1.91,.89l.14,.17c3.88,4.7,7.89,9.56,6.45,16.4-.7,3.34-3.15,5.46-5.52,7.51-.44,.38-.84,.73-1.24,1.08-.2,.18-.42,.36-.64,.54-.76,.61-1.49,1.2-1.82,1.97-1.28,2.95-3.38,5.12-5.61,7.4l-.21,.21c-.32,.33-.64,.66-.96,.99-.13,.14-.25,.29-.37,.5l-.09,.15-2.77,.19-.07-.26c-.02-.09-.05-.16-.1-.22-.14-.21-.39-.36-.74-.42-3.29-.62-4.28-3.06-5.32-5.64-.23-.58-.47-1.17-.77-1.81-.49-1.05-.99-2.13-2.5-2.84-3.2-1.49-6.88-4.15-8.21-8.77Zm36.07-6.83c-1.05-3.63-3.6-6.73-6.1-9.75l-.14-.17c-.37-.45-.88-.7-1.35-.65h0c-.6,.05-1,.55-1.24,.97-.52,.92-1.19,1.86-2.2,1.94-1.06,.08-1.83-.8-2.74-1.95-1.16-1.47-2.8-3.41-3.74-3.34-.83,.07-1.91,1.81-2.95,3.69-.22,.41-.62,.52-.89,.59-.08,.02-.16,.04-.25,.07l-.64,.24-.4-.56c-1.5-2.07-2.59-2.95-4.44-2.02-5.73,2.91-8.79,7.68-8.86,13.81-.07,6.79,4.5,10.35,8.35,12.14,1.72,.8,2.33,2.1,2.82,3.15,.3,.65,.54,1.25,.78,1.84,1.06,2.62,1.89,4.68,4.83,5.24,.53,.1,.92,.34,1.16,.7,.03,.05,.06,.1,.09,.15l1.92-.13c.12-.18,.23-.33,.37-.47,.32-.34,.64-.67,.96-1l.21-.22c2.19-2.24,4.25-4.36,5.48-7.21,.4-.92,1.19-1.56,1.96-2.18,.26-.21,.47-.38,.66-.55,.4-.36,.8-.71,1.21-1.06,2.32-2.01,4.69-4.06,5.34-7.18,.47-2.22,.32-4.23-.22-6.1Zm-34.6,4.96c-.33-1.14-.42-2.41-.27-3.81h0c.52-4.64,2.91-8.21,7.12-10.59,.58-.33,1.29-.74,1.97-.41,.17,.08,.57,.33,.65,.94,.05,.32,.27,.69,.51,1.08,.51,.83,1.21,1.97,.41,3.43-.36,.66-.86,1.23-1.25,1.66-3.39,3.7-4.14,7.56-2.3,11.8l.96,1.3-.92,.49c-.71,.41-1.13,.16-1.35-.11-.09-.11-.18-.24-.27-.36-2.79-1.14-4.56-2.98-5.26-5.4Zm.38-3.73c-.45,4.05,1.35,7.02,5.21,8.57l.09,.04,.06,.08c.1,.14,.19,.28,.3,.4,.06,.07,.15,.18,.54-.04l.27-.14-.55-.76c-1.99-4.56-1.2-8.65,2.38-12.56,.36-.4,.82-.93,1.16-1.53,.62-1.12,.08-2-.4-2.77-.27-.45-.53-.87-.6-1.33-.04-.27-.18-.39-.29-.45-.37-.18-.9,.12-1.37,.39-4.02,2.28-6.31,5.68-6.8,10.1h0Zm6.66,5.39c-.02-.08-.04-.16-.07-.24-.46-1.86-.16-3.8,.83-5.32,1.75-2.68,3.71-5.39,5.84-8.05,1.06-1.33,2.33-2.05,3.66-2.09,1.41-.04,2.78,.65,4.07,2.07,3.39,3.72,4.9,7.94,4.39,12.2-.26,2.43-1.28,4.37-3.19,6.11h0c-1.16,1.05-2.5,1.91-3.81,2.75-.51,.32-1,.64-1.49,.97-1.51,1.02-2.38-.24-2.67-.66-.06-.08-.11-.16-.17-.24-1.13-1.45-2.58-2.65-4.44-3.68-1.41-.77-2.47-2.16-2.95-3.81Zm17.64-6.67c-.66-2.27-1.93-4.48-3.8-6.53-1.15-1.27-2.35-1.89-3.57-1.85-1.13,.04-2.23,.68-3.17,1.85-2.12,2.64-4.07,5.33-5.8,7.99-.89,1.37-1.16,3.13-.74,4.81,.39,1.59,1.38,2.92,2.7,3.65,1.94,1.07,3.46,2.33,4.64,3.85,.07,.09,.13,.18,.19,.27,.42,.6,.87,1.1,1.77,.49,.49-.33,.99-.65,1.49-.97,1.29-.82,2.61-1.67,3.73-2.68,1.79-1.63,2.73-3.44,2.98-5.71,.21-1.74,.06-3.47-.43-5.16Zm-14.47,16c-.27-.94-.51-1.96-.74-3.1l-.53-2.66,2.02,1.81c3.45,3.1,5.12,6.48,5.59,11.31l.24,2.49-1.78-1.75c-2.43-2.4-3.82-4.66-4.81-8.09Zm-.25-3.97l.15,.74c1.02,5.16,2.38,7.9,5.37,10.86l.5,.49-.07-.7c-.46-4.65-2.07-7.91-5.38-10.89l-.56-.51Zm8.01,9.88c-.84-2.9,.46-5.18,4.77-8.73l1.1-.91,.35,1.39c.87,3.53-1.05,5.68-2.75,7.58-.54,.6-1.09,1.22-1.53,1.85l-.93,1.34-.64-1.5c-.15-.35-.28-.69-.37-1.03Zm5.49-8.48l-.31,.26c-4.57,3.77-5.55,5.87-4.21,9l.18,.42,.26-.38c.46-.67,1.03-1.3,1.58-1.91,1.59-1.78,3.4-3.8,2.6-6.99l-.1-.39Zm1.05-2.02c-.03-.09-.04-.18-.06-.27-.13-1,.54-1.83,1.14-2.57,.32-.4,.65-.8,.75-1.11,1-2.94,.9-5.64-.32-8.04-.85-1.68-1.05-2.98-.62-4.1,.41-1.06,1.36-1.86,2.9-2.45l.63-.24,.41,.54c.3,.39,.6,.76,.9,1.11,.7,.85,1.36,1.63,1.84,2.57,2.46,4.82,3.66,8.34-1.85,13.1-.3,.26-.65,.66-.99,1.05-.33,.38-.69,.8-1.07,1.14-.37,.34-1.51,1.38-2.71,.51-.49-.35-.81-.77-.95-1.24Zm2.78-10.55c.61,2.1,.5,4.38-.33,6.81-.14,.42-.51,.87-.86,1.3-.54,.67-1.1,1.36-1,2.08,.05,.4,.3,.75,.74,1.06,.36,.26,.9,.44,1.9-.47,.35-.32,.69-.71,1.01-1.08,.36-.41,.72-.83,1.06-1.12,5.27-4.55,4.08-7.64,1.7-12.31-.45-.87-1.08-1.63-1.74-2.43-.32-.38-.63-.76-.93-1.15l-.11-.15-.18,.07c-1.36,.52-2.19,1.2-2.53,2.08-.36,.93-.17,2.07,.59,3.57,.29,.57,.52,1.15,.69,1.74Z"/></g></svg>