<?xml version="1.0" encoding="UTF-8"?><svg id="Camada_1" xmlns="http://www.w3.org/2000/svg" viewBox="0 0 305.4 436.11"><defs><style>.cls-1{fill:#d88e45;}</style></defs><g><path class="cls-1" d="M.39,1.63c6.54,31.1,13.64,62.23,24.6,92.12,9.82,26.79,22.2,51.41,44.33,69.96,22.12,18.53,44.57,37.44,70.91,49.62,24.55,11.36,50.52,19.67,76.63,26.64,23.96,6.4,48.41,12.05,73.09,14.88,1.44,.16,1.51-2.06,.1-2.23-21.28-2.65-42.41-7.42-63.17-12.71-25.92-6.61-51.77-14.45-76.34-25.11-10.85-4.71-21.54-9.99-31.46-16.46-12.75-8.32-24.47-18.57-36.41-27.99-11.97-9.44-23.59-18.8-32.22-31.5-7.95-11.7-13.99-24.67-19.21-37.78C18.4,68.88,10.13,34.89,2.47,1.17,2.17-.17,.11,.28,.39,1.63H.39Z"/><path class="cls-1" d="M291.23,253.03c.16,.3,.22,.65,.18,.97-.1,.8-.72,1.29-1.51,1.2-27.01-3.09-53.27-9.58-73.14-14.89-30.75-8.21-55.12-16.69-76.68-26.66-26.16-12.11-48.67-30.97-70.43-49.21l-.56-.47c-23.83-19.97-35.84-46.65-44.44-70.11C13.35,63.06,6.02,30.14,.03,1.7H.03C-.15,.81,.45,.19,1.14,.04c.69-.15,1.49,.16,1.69,1.05,7.4,32.61,15.71,67.18,28.72,99.85,6.22,15.62,12.32,27.61,19.18,37.71,8.85,13.03,21.23,22.8,32.15,31.42,3.19,2.51,6.41,5.13,9.53,7.66,8.61,6.99,17.51,14.21,26.85,20.31,8.74,5.7,18.72,10.92,31.41,16.43,21.49,9.32,45.73,17.29,76.28,25.09,17.27,4.41,40.05,9.83,63.12,12.7,.56,.07,.94,.38,1.15,.78ZM38.37,123.73c7.5,14.21,17.33,28.1,31.18,39.7l.56,.47c21.73,18.21,44.2,37.04,70.27,49.11,21.52,9.96,45.85,18.42,76.57,26.62,19.84,5.3,46.07,11.78,73.03,14.87,.59,.07,.69-.42,.71-.57,.04-.34-.11-.87-.7-.95-23.11-2.88-45.92-8.31-63.21-12.72-30.6-7.8-54.87-15.79-76.39-25.13-12.73-5.52-22.74-10.76-31.51-16.49-9.37-6.12-18.29-13.35-26.91-20.35-3.12-2.53-6.34-5.15-9.53-7.66-10.96-8.65-23.38-18.45-32.3-31.58-6.89-10.14-13.01-22.17-19.25-37.84C17.85,68.49,9.53,33.88,2.12,1.25c-.11-.48-.52-.57-.83-.51-.32,.07-.65,.32-.55,.81H.74C6.72,29.96,14.04,62.85,25.32,93.62c3.56,9.72,7.71,19.99,13.05,30.11Z"/></g><g><path class="cls-1" d="M25.98,94.52c3.55,8.03-2.62,16.81-4.61,24.53-1.66,6.46-2.32,13.16-2.14,19.82,.36,13.35,3.99,26.42,9.06,38.71,13.79,33.43,38.23,61.22,50.89,95.27,.57,1.52,2.8,.33,2.24-1.18-12.7-34.04-37.17-61.8-51.02-95.21-5.87-14.16-9.76-29.56-8.71-44.99,.52-7.57,2.54-14.51,5.11-21.59,1.98-5.44,3.37-10.79,.85-16.26-.51-1.11-2.16-.22-1.67,.88h0Z"/><path class="cls-1" d="M27.94,93.42s.02,.05,.04,.07c2.67,5.79,.97,11.57-.84,16.53-2.2,6.07-4.53,13.36-5.09,21.49-.93,13.61,1.99,28.69,8.68,44.83,6.55,15.81,15.65,30.62,24.45,44.93,9.78,15.91,19.88,32.35,26.57,50.28,.22,.59,.11,1.21-.29,1.7-.41,.49-1.03,.75-1.58,.65-.48-.08-.85-.41-1.04-.92-6.64-17.86-16.7-34.28-26.43-50.16-8.8-14.36-17.9-29.21-24.46-45.11-5.78-14.02-8.75-26.72-9.08-38.84-.19-6.96,.54-13.66,2.15-19.92,.57-2.22,1.47-4.48,2.41-6.87,2.3-5.82,4.69-11.83,2.21-17.43-.35-.79,.1-1.5,.71-1.78,.63-.29,1.27-.07,1.59,.53Zm9.96,99.71c-2.84-5.39-5.5-10.89-7.83-16.51-6.73-16.24-9.67-31.43-8.74-45.15,.56-8.21,2.91-15.57,5.13-21.68,1.83-5.05,3.41-10.44,.86-15.98-.2-.4-.56-.29-.67-.24-.2,.09-.54,.38-.34,.82h0c2.6,5.88,.16,12.03-2.2,17.99-.94,2.37-1.82,4.6-2.39,6.78-1.6,6.2-2.31,12.83-2.13,19.72,.32,12.02,3.28,24.64,9.03,38.58,6.53,15.84,15.62,30.67,24.41,45,9.75,15.91,19.83,32.36,26.49,50.28,.1,.27,.26,.42,.49,.46,.3,.05,.67-.11,.91-.4,.14-.17,.35-.52,.17-.99-6.66-17.86-16.76-34.28-26.51-50.16-5.69-9.25-11.5-18.71-16.68-28.52Z"/></g><g><path class="cls-1" d="M38.03,122.12c5.29,2.87,10.72,1.83,16.28,.21,7.23-2.11,14.29-3.67,21.87-3.7,15.47-.05,30.58,4.83,44.33,11.61,9.76,4.81,18.94,10.55,27.92,16.63,.03-.12,.08-.23,.17-.31,.45-.36,.92-.69,1.39-1.01,.14-.1,.28-.19,.42-.29-9.21-6.24-18.63-12.14-28.65-17.05-11.93-5.85-24.74-10.32-38.04-11.55-6.64-.61-13.36-.39-19.92,.85-7.84,1.49-17,7.07-24.78,3.01-1.07-.56-2.06,1.03-.99,1.61Z"/><path class="cls-1" d="M151.05,145.26l-.86,.59c-.45,.3-.93,.63-1.37,.99,0,0-.03,.03-.05,.11l-.12,.51-.43-.29c-10.77-7.29-19.37-12.41-27.88-16.6-15.67-7.72-30.53-11.62-44.17-11.57-8.14,.03-15.57,1.88-21.77,3.68-5.07,1.48-10.95,2.8-16.55-.24-.63-.34-.83-1.02-.49-1.66,.31-.58,1.05-.99,1.82-.59,5.43,2.83,11.58,.84,17.54-1.08,2.44-.79,4.75-1.53,7.01-1.96,6.35-1.2,13.09-1.49,20.02-.85,12.07,1.11,24.55,4.9,38.17,11.58,8.73,4.28,17.58,9.55,28.7,17.08l.44,.3Zm-2.75,1.09s.05-.04,.07-.06c.46-.37,.94-.71,1.4-1.02-10.88-7.35-19.59-12.52-28.17-16.73-13.53-6.64-25.94-10.41-37.91-11.51-6.86-.63-13.53-.35-19.82,.84-2.21,.42-4.5,1.16-6.92,1.94-6.1,1.97-12.4,4-18.09,1.03-.43-.22-.74,.09-.85,.29-.05,.11-.21,.46,.2,.68h0c5.36,2.91,10.85,1.68,16,.18,6.24-1.82,13.74-3.69,21.97-3.71,13.75-.05,28.72,3.87,44.49,11.64,8.45,4.16,16.98,9.24,27.63,16.43Z"/></g><g><path class="cls-1" d="M82.79,274.79c-3.97-12.15-7.78-24.35-11.79-36.49-2.04-6.18-3.98-12.41-5.34-18.78-1.38-6.41-2.12-12.85-4.48-19.01-9.03-23.66-31.9-38.94-39.75-63.26-.32-1-2.04-1.38-2.3-.1-2.51,12.14-6.31,22.66-4.92,35.3,1.45,13.16,6.72,25.62,14.17,36.49,7.91,11.55,18.27,20.06,27.92,30,10.71,11.03,18.16,24.6,24.98,38.24,.71,1.43,2.91,.27,2.2-1.16-5.56-11.11-11.52-22.11-19.3-31.86-8.49-10.63-19.63-18.67-28.26-29.21-8.77-10.72-15.6-23.14-18.38-36.8-1.3-6.39-1.72-12.99-.99-19.47,.81-7.13,3.42-13.83,4.86-20.83-.77-.03-1.54-.06-2.3-.1,7.69,23.83,29.36,38.94,39.06,61.61,2.7,6.3,3.58,12.88,4.93,19.54,1.3,6.39,3.19,12.63,5.21,18.82,4.09,12.52,8.16,25.06,12.44,37.52,.43,1.25,2.46,.83,2.04-.45h0Z"/><path class="cls-1" d="M58.2,193.09c1.24,2.35,2.36,4.77,3.32,7.28,1.71,4.49,2.6,9.2,3.45,13.76,.33,1.74,.66,3.54,1.04,5.3,1.4,6.52,3.39,12.86,5.33,18.75,2.24,6.79,4.46,13.7,6.6,20.39,1.68,5.24,3.36,10.48,5.06,15.71,.26,.52,.53,1.05,.79,1.57,.26,.52,.23,1.09-.07,1.56-.33,.5-.95,.81-1.53,.78-.53-.03-.98-.33-1.24-.85-6.22-12.45-13.78-26.68-24.91-38.15-2.71-2.79-5.52-5.51-8.23-8.14-6.89-6.67-14.02-13.58-19.73-21.91-7.95-11.6-12.88-24.28-14.24-36.66-1.08-9.82,.94-18.33,3.09-27.33,.58-2.45,1.19-4.98,1.73-7.57l-.07-.21h.11c.02-.1,.04-.2,.06-.3,.14-.66,.6-1.07,1.25-1.11,.76-.04,1.54,.47,1.76,1.17,4.06,12.58,12.32,22.93,20.31,32.94,5.78,7.25,11.72,14.68,16.12,23.02Zm22.72,77.13c-1.23-3.8-2.45-7.61-3.67-11.42-2.14-6.69-4.36-13.6-6.6-20.39-1.95-5.9-3.95-12.27-5.35-18.82-.38-1.78-.72-3.58-1.04-5.32-.85-4.53-1.72-9.21-3.42-13.64-4.31-11.3-11.95-20.87-19.33-30.11-7.72-9.68-15.7-19.66-19.95-31.73-.21,.95-.44,1.9-.68,2.84,4.43,10.98,11.82,20.28,18.99,29.31,6.94,8.73,14.11,17.75,18.61,28.27,2.18,5.08,3.2,10.46,4.19,15.65,.25,1.32,.5,2.64,.77,3.96,1.37,6.72,3.4,13.26,5.2,18.78l1.49,4.56c2.22,6.79,4.48,13.72,6.79,20.64,1.39,2.47,2.71,4.94,3.99,7.41Zm-5.8-10.55c-1.92-5.8-3.81-11.59-5.67-17.27l-1.49-4.56c-1.81-5.53-3.84-12.1-5.22-18.86-.27-1.33-.52-2.65-.77-3.97-1.03-5.39-1.99-10.49-4.14-15.5-4.47-10.43-11.61-19.42-18.51-28.11-7.01-8.82-14.23-17.91-18.73-28.6-.3,1.12-.6,2.23-.91,3.33-1.13,4.08-2.29,8.3-2.78,12.59-.7,6.18-.37,12.7,.98,19.36,2.56,12.59,8.72,24.93,18.3,36.64,4.21,5.14,9.1,9.77,13.84,14.25,4.95,4.68,10.08,9.52,14.43,14.97,3.99,4.99,7.49,10.31,10.68,15.73ZM21.12,137.48s-.03-.08-.04-.12c-.14-.43-.64-.69-1.03-.67-.31,.02-.51,.2-.58,.53-.01,.06-.03,.12-.04,.19l1.68,.07Zm-.69,3c.19-.76,.36-1.52,.52-2.28l-1.36-.06c.26,.79,.54,1.57,.83,2.34Zm-.3,1.21c-.36-.9-.7-1.82-1.02-2.75-.47,2.17-.98,4.31-1.47,6.38-2.13,8.94-4.14,17.39-3.07,27.09,1.35,12.26,6.23,24.82,14.11,36.33,5.67,8.27,12.45,14.84,19.63,21.8,2.72,2.63,5.53,5.35,8.25,8.15,10.07,10.38,17.23,22.98,23.11,34.5-1.14-3.35-2.28-6.71-3.4-10.08-3.63-6.44-7.67-12.82-12.38-18.72-4.32-5.41-9.42-10.23-14.36-14.9-4.75-4.49-9.66-9.13-13.9-14.31-9.66-11.81-15.87-24.25-18.45-36.96-1.37-6.74-1.7-13.33-.99-19.59,.49-4.35,1.67-8.59,2.8-12.7,.39-1.4,.78-2.82,1.15-4.25Zm62.2,132.88c-1.33-2.63-2.7-5.28-4.13-7.94,.95,2.84,1.92,5.67,2.89,8.49,.18,.51,.72,.56,1.01,.46,.19-.06,.49-.24,.34-.68h0c-.04-.11-.07-.22-.11-.34Zm-.73,2.47c.14,.27,.36,.41,.62,.43,.33,.02,.69-.17,.88-.45,.12-.18,.22-.46,.03-.83-.06-.12-.12-.23-.18-.35-.15,.2-.36,.35-.64,.44-.36,.12-.77,.11-1.13-.05,.13,.26,.26,.53,.4,.79,0,0,0,.02,.01,.02Z"/></g><g><path class="cls-1" d="M88.12,179.73c18.2,27.39,24.14,59.48,34.42,90.14,8.88,26.49,22.13,53.66,41.77,73.91,1.12,1.15,2.82-.47,1.81-1.7-19.47-23.67-33.94-49.67-43.05-79.01-9-28.97-15.81-58.84-33.11-84.31-.74-1.09-2.59-.15-1.84,.97h0Z"/><path class="cls-1" d="M98.11,191.68c9.42,17.85,15.19,37.34,20.8,56.31,1.46,4.92,2.96,10,4.51,14.98,8.94,28.8,23,54.61,42.98,78.89,.66,.8,.41,1.75-.17,2.27-.54,.48-1.45,.66-2.17-.09-17.27-17.8-31.35-42.71-41.86-74.04-2.66-7.94-5.07-16.09-7.4-23.98-6.65-22.52-13.52-45.82-26.99-66.08h0c-.41-.62-.27-1.34,.35-1.75,.62-.42,1.58-.39,2.1,.37,2.88,4.25,5.48,8.63,7.85,13.12Zm40.6,110.11c-6.5-12.32-11.8-25.14-15.98-38.61-1.55-4.98-3.05-10.07-4.51-14.99-7.01-23.69-14.26-48.18-28.56-69.23-.31-.46-.84-.35-1.1-.18-.17,.11-.4,.36-.15,.75h0c13.52,20.35,20.41,43.7,27.08,66.27,2.33,7.88,4.73,16.03,7.39,23.96,10.47,31.23,24.5,56.05,41.69,73.77,.42,.44,.9,.3,1.17,.05,.32-.28,.49-.8,.1-1.27-10.69-12.99-19.7-26.43-27.13-40.52Z"/></g><g><path class="cls-1" d="M164.51,265.79c.67-.19,1.34-.34,2.03-.38,0,0,0,0,0,0,.07-.06,.14-.09,.23-.11,.09-.03,.19-.04,.28-.07-5.79-18.43-12.55-36.44-23.57-52.66-.74-1.09-2.59-.15-1.84,.97,10.76,16.19,17.24,34.04,22.86,52.25Z"/><path class="cls-1" d="M151.64,225.48c7.04,13.34,11.87,27.24,15.77,39.64l.11,.36-.5,.13s-.08,.02-.12,.03l-.03,.03-.13,.05-.09,.05h-.08c-.58,.04-1.2,.16-1.96,.37l-.34,.1-.1-.34c-5.34-17.29-11.79-35.57-22.82-52.16-.42-.61-.27-1.34,.35-1.75,.62-.42,1.58-.39,2.1,.37,2.89,4.26,5.49,8.66,7.85,13.12Zm14.96,39.49c-5.17-16.41-11.99-35.4-23.41-52.2-.31-.46-.84-.35-1.1-.18-.17,.11-.41,.35-.15,.75,11.01,16.56,17.47,34.77,22.8,52.01,.61-.16,1.15-.25,1.66-.29,.04-.03,.11-.06,.19-.09Z"/></g><g><path class="cls-1" d="M10.01,42.21c7.78,9.02,21.23,11.63,32.1,15.15,12.66,4.1,25.53,7.75,38.73,9.65,27.37,3.94,57.74-4.59,81.92,12.41,1.01,.71,1.92-.86,1-1.6-20.18-16.15-47.76-10.5-71.57-11.95-13.86-.85-27.43-4.06-40.69-8.06-6.53-1.97-12.99-4.14-19.45-6.34-7.39-2.52-15-4.84-20.47-10.73-.94-1.01-2.45,.42-1.56,1.46h0Z"/><path class="cls-1" d="M164.34,77.98c.26,.49,.17,1.09-.13,1.5-.41,.55-1.09,.65-1.66,.25-16.15-11.36-35.45-11.25-54.12-11.15-9.16,.05-18.63,.1-27.64-1.2-14.28-2.06-28.23-6.25-38.79-9.67-1.86-.6-3.76-1.17-5.78-1.77-9.36-2.78-19.97-5.94-26.48-13.49h0c-.61-.7-.38-1.55,.15-2.03,.51-.46,1.34-.57,1.95,.08,5.09,5.47,12.17,7.87,19.01,10.18l1.31,.44c5.83,1.99,12.62,4.28,19.44,6.34,15.76,4.76,28.66,7.31,40.61,8.04,5.83,.36,12.02,.28,18.01,.21,18.89-.22,38.43-.45,53.76,11.82,.16,.13,.28,.28,.36,.43ZM10.28,41.97c6.38,7.39,16.42,10.38,26.14,13.27,2.02,.6,3.92,1.17,5.79,1.77,10.53,3.41,24.45,7.59,38.67,9.64,8.96,1.29,18.4,1.24,27.54,1.19,18.78-.1,38.2-.2,54.54,11.28,.34,.24,.57,.05,.67-.09,.15-.21,.26-.64-.1-.94-15.13-12.1-34.53-11.88-53.3-11.66-6,.07-12.21,.14-18.07-.22-12-.73-24.96-3.3-40.77-8.07-6.83-2.06-13.63-4.36-19.46-6.34l-1.31-.44c-6.93-2.35-14.1-4.77-19.31-10.38-.42-.45-.86-.11-.94-.03-.2,.18-.44,.6-.08,1.02h0Z"/></g><g><path class="cls-1" d="M29.84,53.12c10.39,7.73,20.6,16.57,32.21,22.43,9.8,4.95,20.22,6.17,31.07,5.08,22.88-2.31,49.31-14.38,70.25,.85,1.12,.82,2.3-.83,1.48-1.81-6.9-8.2-16.3-12.85-26.05-16.85-11.04-4.52-22.37-9.19-34.3-10.64-6.08-.74-12.21-.44-18.32-.76-6.33-.33-12.55-1.88-18.88-2.02-11.95-.27-23.49,4.2-35.47,2.23-1.48-.24-1.57,2.09-.1,2.33,11.01,1.81,21.47-1.75,32.41-2.2,5.98-.25,11.73,1.07,17.64,1.68,5.37,.55,10.77,.39,16.16,.59,12.07,.47,23.17,4.31,34.3,8.69,11.34,4.46,22.84,8.99,30.89,18.56,.49-.6,.99-1.2,1.48-1.81-17.68-12.87-40.08-6.81-59.7-3.06-13.74,2.63-27.66,3.84-40.65-2.41-12-5.76-22.61-14.88-33.33-22.66-1.09-.79-2.17,.98-1.1,1.77h0Z"/><path class="cls-1" d="M165.32,79.72c.34,.65,.14,1.42-.29,1.87-.51,.55-1.23,.63-1.84,.2l-.05,.06-.2-.24c-15.39-11.03-33.78-7.31-51.58-3.71-6.33,1.28-12.31,2.49-18.21,3.09-11.85,1.2-22.08-.48-31.27-5.11-8.91-4.49-17.06-10.79-24.94-16.87-2.4-1.85-4.88-3.77-7.33-5.59-.75-.56-.71-1.48-.28-2.07,.45-.62,1.2-.73,1.81-.29,.1,.07,.19,.14,.29,.21,.15-.02,.3-.02,.46,0,6.84,1.12,13.68,.11,20.3-.87,4.93-.73,10.02-1.48,15.12-1.37,3.41,.08,6.83,.56,10.14,1.04,2.86,.41,5.83,.83,8.76,.98,2.26,.12,4.56,.15,6.79,.18,3.79,.05,7.7,.11,11.55,.58,11.88,1.44,23.2,6.08,34.14,10.57l.25,.1c9.42,3.86,19.1,8.57,26.11,16.86l.08,.06-.02,.02s0,0,0,0c.07,.09,.14,.18,.19,.28Zm-1.67,1.51c.41,.25,.73,0,.85-.13,.25-.27,.38-.73,.15-1.09l-1,1.22Zm-.52-.51l.96-1.17c-1.71-1.22-3.48-2.27-5.28-3.15,1.52,1.32,2.97,2.76,4.32,4.33Zm-6.49-6.1c1.99,.81,3.94,1.8,5.85,2.98-6.7-6.83-15.36-10.99-23.82-14.45l-.25-.1c-10.9-4.47-22.17-9.08-33.95-10.52-3.81-.46-7.7-.52-11.47-.57-2.24-.03-4.55-.06-6.82-.18-2.96-.15-5.94-.58-8.82-.99-3.29-.47-6.68-.96-10.05-1.03-5.04-.11-10.11,.64-15,1.36-6.41,.95-13.03,1.93-19.71,.99,.84,.62,1.69,1.25,2.53,1.88,5.77,.42,11.47-.43,17.02-1.25,3.9-.58,7.94-1.18,12-1.34,4.13-.17,8.2,.41,12.14,.97,1.81,.26,3.69,.52,5.55,.71,3.51,.36,7.11,.41,10.58,.47,1.82,.03,3.7,.05,5.55,.13,12.55,.49,24.35,4.75,34.42,8.72,8.42,3.31,17.05,6.71,24.26,12.24ZM32.12,54.39c1.77,1.34,3.54,2.71,5.27,4.04,7.85,6.07,15.98,12.34,24.82,16.8,9.06,4.57,19.16,6.22,30.87,5.04,5.86-.59,11.82-1.8,18.13-3.08,17.05-3.45,34.64-7.01,49.78,2.26-1.48-1.53-3.06-2.91-4.71-4.19-14.41-5.83-31.06-2.51-46.04,.48-1.77,.35-3.53,.7-5.26,1.04-13.3,2.55-27.46,4.01-40.87-2.44-9.1-4.37-17.46-10.71-25.54-16.84-1.22-.93-2.46-1.87-3.71-2.81-.91-.07-1.82-.17-2.73-.31Zm4.04,.39c.95,.72,1.9,1.44,2.84,2.15,8.05,6.11,16.38,12.42,25.42,16.76,13.23,6.36,27.25,4.9,40.43,2.38,1.73-.33,3.49-.68,5.26-1.03,14.26-2.84,30.03-5.98,44.03-1.33-6.7-4.61-14.45-7.66-22.02-10.64-10.47-4.12-21.74-8.19-34.18-8.67-1.84-.07-3.72-.1-5.54-.13-3.49-.05-7.1-.11-10.64-.47-1.87-.19-3.76-.46-5.58-.72-3.91-.55-7.95-1.13-12.01-.96-4.01,.17-8.03,.76-11.92,1.34-5.24,.78-10.62,1.57-16.08,1.32Zm-5-1.63c.11,.22,.32,.4,.63,.45,.65,.11,1.3,.19,1.95,.26-.82-.61-1.63-1.21-2.44-1.8-.17,.12-.23,.33-.25,.44-.03,.19,0,.44,.11,.65Zm-.8-.09c-.05-.22-.06-.45-.02-.67,.05-.31,.18-.57,.37-.76-.42-.29-.71,.04-.79,.14-.18,.25-.3,.74,.13,1.06h0c.1,.08,.21,.15,.31,.23Z"/></g><g><path class="cls-1" d="M100.02,200.72c8.02,11.32,20.19,18.64,25.98,31.65,6.3,14.14,7.27,29.97,10.2,44.99,2.5,12.81,5.94,25.47,11.05,37.5,2.88,6.76,6.32,13.21,10.18,19.46,2.2,3.57,4.07,7.84,7.83,10.01,1.19,.69,2.55-.85,1.55-1.9-19.77-20.79-43.11-41.31-55-67.94-5.96-13.36-7.23-26.48-6.02-40.91,1.09-12.96-.78-25.15-5.63-37.22-.62-1.54-2.9-.32-2.28,1.2,3.01,7.48,5.12,15.3,5.66,23.37,.49,7.32-.74,14.52-.98,21.82-.38,12.11,2.75,24,7.92,34.88,12.31,25.92,35.05,46.02,54.54,66.5,.52-.63,1.04-1.27,1.55-1.9-4.8-2.76-8.55-11.43-11.13-16.14-3.27-5.97-6.08-12.18-8.46-18.55-4.96-13.29-7.98-27.2-10.31-41.17-2.16-12.94-3.88-26.5-10.19-38.22-6.14-11.41-17.26-18.33-24.89-28.55-.65-.86-2.19,.22-1.56,1.12h0Z"/><path class="cls-1" d="M126.99,228.36c5.56,10.53,7.51,22.52,9.4,34.12,.21,1.28,.42,2.56,.63,3.83,2.82,16.92,6,29.6,10.29,41.1,2.43,6.5,5.27,12.72,8.44,18.5,.46,.83,.95,1.78,1.47,2.81,1.25,2.42,2.75,5.32,4.44,7.85,1.77,1.81,3.53,3.63,5.25,5.44l.2,.12-.04,.05s0,0,0,0c.64,.68,.51,1.51,.09,2.03-.43,.54-1.26,.9-2.09,.43,0,0-.01,0-.02,0l-.03,.04-.13-.13c-2-1.2-3.45-2.97-4.71-4.89-2.13-2.19-4.27-4.36-6.38-6.5-16.51-16.78-33.58-34.12-43.67-55.36-5.64-11.88-8.32-23.67-7.95-35.05,.09-2.69,.31-5.42,.53-8.05,.37-4.49,.76-9.14,.45-13.73-.5-7.49-2.34-15.1-5.63-23.26-.24-.59-.15-1.21,.24-1.7,.4-.51,1.03-.78,1.6-.7,.51,.07,.9,.4,1.11,.92,.39,.96,.76,1.93,1.11,2.9,.1,.07,.19,.16,.27,.27,3.17,4.24,7.01,7.98,10.73,11.6,5.21,5.06,10.59,10.3,14.19,16.99,.07,.13,.14,.26,.21,.39Zm27.11,96.03c-2.78-5.27-5.29-10.89-7.47-16.72-4.31-11.55-7.5-24.27-10.33-41.24-.21-1.27-.42-2.55-.63-3.83-1.88-11.54-3.82-23.47-9.32-33.9-.07-.13-.13-.25-.2-.38-3.55-6.6-8.89-11.79-14.06-16.82-3.35-3.26-6.81-6.63-9.8-10.38,.36,1.08,.7,2.16,1.01,3.24,2.53,3,5.3,5.77,8,8.48,5.67,5.68,11.53,11.55,15.02,19.38,4.61,10.34,6.39,21.71,8.12,32.7,.64,4.07,1.3,8.29,2.1,12.37,2.79,14.29,6.39,26.53,11.03,37.43,2.18,5.13,4.74,10.21,7.76,15.42,.25,.25,.5,.51,.75,.76,1.08,1.09,2.16,2.2,3.25,3.31-1.02-1.77-1.95-3.56-2.77-5.15-.52-1.02-1.01-1.96-1.47-2.79-.34-.62-.68-1.25-1.01-1.88Zm-2.35,.76c-1.79-3.39-3.39-6.76-4.83-10.15-4.65-10.94-8.28-23.24-11.07-37.57-.8-4.09-1.46-8.31-2.1-12.39-1.72-10.95-3.5-22.27-8.07-32.52-3.43-7.7-9.25-13.53-14.88-19.17-2.36-2.36-4.77-4.78-7.03-7.35,2.41,8.99,3.19,18.11,2.39,27.62-1.34,15.9,.51,28.46,5.99,40.73,9.2,20.59,25.27,37.53,41.24,53.79-.56-1-1.1-2-1.62-2.99Zm-50.99-126.21c-.3-.82-.61-1.63-.94-2.45-.11-.28-.3-.44-.54-.48-.32-.05-.7,.13-.93,.43-.13,.17-.32,.52-.14,.98,3.32,8.23,5.18,15.91,5.68,23.48,.31,4.65-.08,9.32-.45,13.84-.22,2.62-.44,5.33-.53,8.01-.36,11.27,2.29,22.95,7.88,34.72,10.03,21.12,27.06,38.43,43.53,55.16,1.39,1.42,2.81,2.85,4.22,4.29-.06-.1-.11-.2-.17-.3-.42-.72-.83-1.44-1.26-2.13-.81-1.32-1.6-2.63-2.35-3.93-16.62-16.89-33.67-34.41-43.29-55.94-5.53-12.39-7.4-25.06-6.05-41.09,.84-9.95-.07-19.46-2.78-28.85-1.02-1.22-2.01-2.47-2.93-3.78-.44-.63-.15-1.33,.37-1.71,.2-.14,.43-.24,.67-.28Zm1.35,3.96c-.34-1.08-.7-2.17-1.09-3.25-.18-.03-.38,.06-.5,.15-.05,.03-.46,.37-.21,.71l-.3,.21,.3-.21c.58,.82,1.18,1.61,1.8,2.39Zm63.42,141.17c.43,.19,.84,0,1.07-.29,.2-.26,.3-.65,0-1.02l-1.08,1.32Zm-.54-.48l1.03-1.26c-1.79-1.15-3.43-3.09-4.92-5.29-1.41-1.44-2.82-2.88-4.22-4.31,.28,.46,.57,.93,.85,1.4,.43,.7,.85,1.42,1.27,2.15,.57,.98,1.14,1.97,1.76,2.92,1.42,1.46,2.84,2.93,4.23,4.38Z"/></g><g><path class="cls-1" d="M144.56,215.31c27.34,17.2,52.35,41.43,68.56,69.58,15.06,26.17,25.04,55.79,33.21,84.72,5.35,18.93,9.26,38.08,12.38,57.49,.21,1.31,2.13,.84,1.99-.44-3.84-34.73-14.39-69.39-26.86-101.92-5.06-13.2-10.61-26.33-17.46-38.71-7.11-12.83-16.49-24.55-26.28-35.41-13.03-14.45-27.99-26.73-44.49-37-1.08-.68-2.13,1-1.05,1.69h0Z"/><path class="cls-1" d="M218.74,289.65c5.13,9.72,9.97,20.71,15.44,34.97,14.75,38.49,23.54,71.86,26.88,102.01,.1,.88-.57,1.51-1.28,1.61-.72,.1-1.31-.34-1.43-1.07-3.44-21.36-7.49-40.15-12.38-57.45-6.97-24.68-17.04-56.61-33.18-84.64-15.36-26.69-39.66-51.35-68.44-69.45h0c-.74-.46-.76-1.28-.4-1.85,.36-.57,1.1-.9,1.83-.45,16.87,10.49,31.86,22.96,44.57,37.06,11.81,13.1,20.18,24.37,26.33,35.48,.69,1.24,1.37,2.5,2.05,3.79Zm40.4,137.62c.14,.27,.41,.26,.54,.25,.36-.05,.71-.35,.66-.81-3.33-30.09-12.11-63.4-26.84-101.83-6.17-16.11-11.55-28.03-17.44-38.66-6.13-11.06-14.46-22.29-26.23-35.35-12.66-14.05-27.61-26.47-44.42-36.93-.37-.23-.69-.03-.84,.22-.15,.25-.2,.62,.17,.86h0c28.87,18.16,53.26,42.92,68.68,69.7,16.17,28.12,26.26,60.08,33.25,84.8,4.89,17.32,8.95,36.14,12.39,57.53,.01,.09,.04,.16,.07,.22Z"/></g><g><path class="cls-1" d="M166.17,223.6c13.72,.6,27.62-2.21,41.28-.17,10.92,1.63,21.51,6.01,31.66,10.17,21.15,8.66,42.03,20.42,64.42,25.56,1.46,.34,2.16-1.79,.7-2.25-9.16-2.9-19.17-2.95-28.69-2.97-12.48-.03-24.96,.62-37.44,.55-11.9-.07-23.09-.56-33.49-7.02-5.79-3.6-11.38-7.58-17.1-11.3-6.21-4.03-11.5-9.27-17.81-13.16-1.31-.8-2.57,1.22-1.26,2.02,6.31,3.88,11.62,9.11,17.81,13.16,5.97,3.9,11.83,8.13,17.94,11.82,9.05,5.46,18.61,6.51,28.98,6.78,12.36,.32,24.73-.33,37.09-.46,10.95-.11,22.71-.5,33.27,2.84,.23-.75,.46-1.5,.7-2.25-22.97-5.26-44.33-17.42-66.06-26.21-9.48-3.84-19.28-7.71-29.42-9.4-14.04-2.34-28.37,.78-42.5,.28-1.31-.05-1.4,1.98-.09,2.03h0Z"/><path class="cls-1" d="M305.23,257.27c.18,.35,.2,.75,.11,1.1-.18,.65-.75,1.21-1.55,1.18l-.02,.06-.33-.11c-1.87-.43-3.73-.9-5.58-1.42-8.23-1.64-16.94-1.53-25.41-1.43l-2.18,.02c-4.32,.05-8.72,.16-12.98,.26-7.91,.2-16.08,.4-24.13,.2-11.17-.29-20.41-1.56-29.16-6.83-3.93-2.37-7.81-5-11.56-7.54-2.09-1.42-4.25-2.88-6.39-4.28-2.91-1.9-5.66-4.09-8.33-6.21-3.02-2.4-6.14-4.88-9.48-6.94-.47-.29-.74-.76-.72-1.29,0-.01,0-.02,0-.03-.46-.01-.91-.03-1.37-.05h0c-.88-.04-1.31-.75-1.28-1.43,.03-.68,.52-1.36,1.4-1.33,5.61,.2,11.36-.18,16.92-.55,8.42-.56,17.14-1.14,25.62,.28,10.57,1.76,21.06,6.01,29.49,9.43,6.87,2.78,13.84,5.96,20.57,9.03,12.91,5.88,26.2,11.95,39.91,15.76,1.88,.37,3.73,.83,5.54,1.41l.37,.08-.02,.06c.26,.15,.45,.35,.56,.57Zm-1.21,1.54c.33-.07,.55-.34,.63-.63,.07-.25,.04-.55-.2-.76l-.43,1.39Zm-.72-.11l.47-1.53c-1.72-.4-3.44-.84-5.15-1.32-3.04-.6-6.16-.97-9.27-1.19,2.87,.99,5.76,1.91,8.67,2.72,1.78,.35,3.54,.79,5.27,1.32Zm-16.41-4.92c2.19,.11,4.41,.28,6.6,.54-11.96-3.81-23.58-9.11-34.91-14.27-6.73-3.07-13.68-6.24-20.54-9.02-8.4-3.4-18.85-7.63-29.34-9.38-8.4-1.4-17.07-.83-25.45-.27-5.58,.37-11.35,.75-17,.55-.46-.02-.64,.33-.65,.64-.01,.3,.14,.66,.59,.68h0c.52,.02,1.03,.04,1.55,.05,.16-.28,.39-.51,.66-.66,.47-.25,1.01-.23,1.49,.06,.33,.21,.67,.42,1,.63,4.12-.02,8.27-.27,12.32-.5,7.98-.47,16.24-.95,24.3,.25,10.79,1.61,21.19,5.87,31.26,9.99l.49,.2c6.48,2.65,13.05,5.65,19.4,8.55,9.21,4.2,18.62,8.49,28.24,11.97Zm-118.56-29.37c.06,.11,.15,.22,.3,.31,3.38,2.08,6.52,4.58,9.55,6.99,2.65,2.11,5.39,4.29,8.27,6.17,2.14,1.4,4.31,2.87,6.4,4.29,3.74,2.54,7.61,5.16,11.52,7.52,8.61,5.19,17.74,6.44,28.8,6.72,8.03,.2,16.19,0,24.09-.2,4.26-.11,8.66-.22,12.99-.26l2.18-.03c6.74-.08,13.62-.16,20.32,.63-2.02-.64-4.02-1.33-6.02-2.05-3.83-.19-7.61-.2-11.21-.21-6.07-.02-12.24,.13-18.21,.27-6.3,.15-12.82,.31-19.23,.27-12.31-.07-23.34-.65-33.67-7.07-3.44-2.14-6.86-4.44-10.16-6.67-2.27-1.53-4.62-3.12-6.95-4.63-2.95-1.91-5.73-4.13-8.42-6.27-2.63-2.1-5.35-4.26-8.22-6.14-.81,0-1.62,0-2.42-.02,0,.01,0,.02,0,.04,0,.1,.01,.22,.08,.34Zm3.63-.37c2.57,1.75,5.01,3.7,7.39,5.59,2.68,2.13,5.44,4.34,8.36,6.23,2.34,1.52,4.68,3.1,6.96,4.64,3.3,2.23,6.71,4.53,10.14,6.66,10.18,6.32,21.1,6.89,33.3,6.96,6.4,.04,12.91-.12,19.21-.27,5.97-.14,12.15-.29,18.23-.27,2.9,0,5.92,.02,9,.12-8.91-3.34-17.63-7.32-26.19-11.22-6.35-2.9-12.91-5.89-19.38-8.54l-.49-.2c-10.02-4.11-20.39-8.35-31.09-9.94-7.98-1.19-16.2-.71-24.15-.24-3.71,.22-7.5,.44-11.29,.49Zm-3.29-.72c.29,0,.58,0,.87,0,0,0-.02,0-.02-.01-.33-.2-.6-.13-.77-.04-.03,.01-.05,.03-.08,.05Z"/></g><g><path class="cls-1" d="M211.74,280.93c9.07,1.36,16.05,8.22,25.12,9.99,6.49,1.27,11.82,2.21,17.38,5.95,4.88,3.28,9.41,7.07,14.25,10.41,1.18,.82,2.23-1,1.15-1.86-8.73-6.98-17.29-14.29-28.53-16.27-6.48-1.14-11.53-2.87-17.31-5.97-3.87-2.08-7.6-3.78-11.98-4.39-1.37-.19-1.44,1.93-.09,2.13h0Z"/><path class="cls-1" d="M270.28,305.63c.29,.55,.2,1.21-.14,1.67-.38,.51-1.1,.8-1.85,.28-2.26-1.56-4.49-3.25-6.65-4.88-2.46-1.86-5-3.78-7.59-5.52-5.3-3.56-10.5-4.58-16.53-5.76l-.72-.14c-4.43-.87-8.41-2.96-12.26-4.98-4.04-2.12-8.22-4.32-12.84-5.01h0c-.93-.14-1.37-1-1.26-1.75,.11-.75,.71-1.2,1.46-1.1,4.31,.6,7.96,2.21,12.1,4.43,5.71,3.07,10.7,4.79,17.2,5.94,10.66,1.88,19.03,8.59,27.12,15.08l1.57,1.26c.18,.14,.31,.31,.41,.49Zm-58.48-25.06c4.75,.71,8.98,2.93,13.07,5.09,3.8,2,7.73,4.06,12.06,4.91l.72,.14c6.11,1.19,11.38,2.22,16.8,5.87,2.61,1.75,5.16,3.68,7.63,5.55,2.15,1.63,4.38,3.31,6.63,4.86,.46,.32,.75,.02,.86-.12,.24-.32,.27-.83-.14-1.16l-1.57-1.26c-8.02-6.44-16.32-13.09-26.79-14.93-6.58-1.16-11.63-2.9-17.42-6.01-4.07-2.19-7.65-3.77-11.85-4.35-.51-.07-.62,.32-.64,.48-.05,.32,.09,.85,.65,.93h0Z"/></g><g><path class="cls-1" d="M246.12,292.12c4.09,3.58,9.76,2.05,14.78,2.76,9.18,1.29,22.68,7.41,21.81,18.51-.69,8.88-9.58,11.62-15.85,5.62-3.53-3.37-7.05-7.29-9.66-11.41-3.99-6.29-5.16-12.85-11.6-17.34-.95-.66-2.21,.81-1.31,1.6,5.6,4.94,7.01,10.8,10.84,16.84,2.9,4.57,6.7,8.89,10.68,12.55,5.39,4.97,13.64,4.86,17.73-1.83,4.56-7.46,0-15.74-6.19-20.48-3.85-2.95-8.46-4.89-13.2-5.86-4.88-.99-12.71,.96-16.61-2.28-.94-.78-2.36,.5-1.41,1.33h0Z"/><path class="cls-1" d="M283.92,306c2.22,4.21,2.7,9.05-.08,13.6-1.84,3.01-4.67,4.92-7.95,5.38-3.62,.51-7.39-.76-10.34-3.47-4.29-3.95-8.01-8.32-10.73-12.62-1.29-2.03-2.31-4.04-3.29-5.99-1.96-3.87-3.8-7.53-7.48-10.77-.53-.47-.57-1.21-.11-1.81,.42-.53,1.19-.82,1.86-.36,.17,.12,.33,.24,.49,.35,.45-.2,1.01-.18,1.47,.2,2.39,1.98,6.38,1.94,10.25,1.89,2.26-.03,4.4-.05,6.2,.31,4.99,1.02,9.61,3.07,13.35,5.93,2.6,1.99,4.87,4.53,6.36,7.36Zm-30.51-1.02c.61,1.16,1.27,2.34,2.02,3.51,2.7,4.25,6.37,8.57,10.62,12.48,2.79,2.57,6.34,3.77,9.75,3.29,3.06-.43,5.7-2.22,7.43-5.04,4.41-7.21,.11-15.25-6.1-20-3.65-2.79-8.16-4.8-13.05-5.79-1.72-.35-3.82-.33-6.04-.3-4,.05-8.13,.1-10.72-2.06-.06-.05-.12-.09-.18-.11,1.03,.86,1.91,1.77,2.69,2.74,1.98,.57,4.15,.58,6.39,.59,1.57,0,3.2,.02,4.75,.23,9.38,1.32,23.02,7.44,22.12,18.89-.32,4.12-2.48,7.34-5.77,8.59-3.45,1.32-7.55,.27-10.69-2.74-4.12-3.94-7.39-7.8-9.72-11.48-1.29-2.03-2.28-4.08-3.24-6.07-1.27-2.62-2.49-5.15-4.28-7.41-1.24-.38-2.42-.98-3.49-1.92h0c-.51-.45-.58-1.1-.18-1.62-.1-.08-.21-.15-.31-.22-.32-.22-.68-.05-.88,.21-.06,.08-.35,.49,.02,.82,3.78,3.34,5.66,7.05,7.65,10.99,.4,.79,.81,1.6,1.24,2.41Zm2.51-.33c.48,.92,1,1.84,1.58,2.75,2.3,3.63,5.53,7.45,9.61,11.34,2.94,2.81,6.75,3.8,9.93,2.58,3.07-1.17,5.01-4.08,5.31-7.98,.85-10.88-12.74-16.89-21.5-18.12-1.5-.21-3.1-.22-4.65-.23-1.91,0-3.86-.02-5.7-.4,1.53,2.11,2.65,4.42,3.8,6.8,.52,1.07,1.04,2.16,1.62,3.25Zm-9.56-12.81c.64,.56,1.33,1,2.04,1.33-.63-.69-1.34-1.35-2.12-1.97-.12,.16-.2,.39,.08,.64h0Z"/></g><g><path class="cls-1" d="M219.61,297.32c20.51,14.77,33.74,40.81,36.39,65.61,2.54,23.78-2.02,48.55,4.55,71.83,.46,1.62,3.02,1.07,2.57-.56-7.24-26.31-15.95-52.34-28.74-76.52-6.2-11.71-14.79-23.5-15.08-37.25-.2-9.26,4.6-18.88,.42-27.81-.69-1.48-2.93-.29-2.24,1.18,4.42,9.45-1.76,21-.38,31.04,1.6,11.66,8.37,21.75,13.85,31.88,13.3,24.59,22.23,51.16,29.61,78.04,.86-.19,1.71-.38,2.57-.56-7.11-25.26-1.26-52.12-5.51-77.82-3.84-23.23-17.49-47.17-36.92-60.79-1.08-.75-2.13,.97-1.08,1.73h0Z"/><path class="cls-1" d="M247.94,326.83c4.85,9.2,8.33,19.25,10.02,29.5,1.86,11.28,1.78,22.95,1.71,34.25-.09,14.16-.19,28.79,3.56,42.7,.08,.28,.15,.56,.23,.84l.1,.37h-.04c.05,.83-.53,1.38-1.17,1.56-.73,.2-1.67-.02-2.03-.85h-.03s-.09-.32-.09-.32h0c-.09-.33-.19-.67-.28-1-8.87-32.16-17.92-55.92-29.3-76.97-.98-1.81-1.99-3.61-3.02-5.42-4.7-8.32-9.55-16.93-10.88-26.58-.58-4.24,.17-8.78,.9-13.18,1.01-6.07,2.04-12.35-.49-17.77-.45-.97,.1-1.86,.84-2.21,.68-.32,1.62-.25,2.05,.72,.46,.98,.82,1.98,1.08,2.98,10.85,7.67,20.15,18.71,26.83,31.38Zm12.53,96.76c-1.67-10.94-1.6-22.12-1.53-33.02,.07-11.26,.15-22.9-1.7-34.12-3.94-23.87-17.65-46.73-35.89-59.93,.13,.62,.22,1.24,.29,1.87,18.75,14.42,31.98,38.91,34.71,64.51,.99,9.28,.9,18.85,.81,28.12-.07,7.55-.14,15.24,.37,22.88,.99,3.15,1.96,6.37,2.94,9.7Zm-3.82-12.5c-.33-6.72-.27-13.45-.21-20.08,.09-9.24,.18-18.8-.81-28.03-2.68-25.17-15.59-49.25-33.91-63.61,.23,3.69-.4,7.43-1.02,11.1-.56,3.28-1.13,6.68-1.06,9.96,.23,10.91,5.77,20.63,11.12,30.04,1.32,2.31,2.68,4.7,3.92,7.05,8.24,15.57,15.28,32.68,21.97,53.58Zm-36.41-116.04c-.23-.76-.52-1.52-.87-2.27-.34-.71-.97-.43-1.09-.37-.43,.2-.76,.67-.49,1.25,.44,.93,.77,1.88,1.02,2.85,0-.32,.11-.63,.28-.88,.29-.41,.72-.61,1.15-.57Zm.59,2.73c-.09-.63-.21-1.26-.36-1.89-.43-.3-.71,.04-.79,.15-.17,.24-.27,.7,.14,.99,.34,.25,.68,.49,1.02,.75Zm5.18,45.63c-3.8-7.21-6.92-14.73-7.1-22.96-.07-3.35,.51-6.78,1.07-10.1,.65-3.83,1.31-7.75,.96-11.58-.51-.39-1.03-.78-1.56-1.15h0c-.2-.15-.32-.3-.44-.5,1.04,4.71,.2,9.79-.62,14.73-.72,4.34-1.46,8.83-.89,12.96,1.31,9.51,6.12,18.05,10.79,26.32,1.02,1.82,2.04,3.63,3.02,5.44,10.26,18.96,18.61,40.1,26.65,67.57-.51-3.35-.85-6.72-1.08-10.1-6.88-21.97-14.1-39.73-22.62-55.89l-.15-.29c-1.23-2.33-2.59-4.72-3.91-7.03-1.39-2.45-2.8-4.91-4.12-7.42Zm36.51,90.06c-1.57-5.69-3.15-11.11-4.74-16.29,.51,5.57,1.37,11.1,2.82,16.51,.06,.22,.12,.44,.18,.67l1.86-.41c-.04-.16-.09-.32-.13-.47Zm-1.47,1.56c.29,.37,.77,.4,1.09,.31,.32-.09,.61-.31,.64-.7l-1.74,.38Z"/></g><g><path class="cls-1" d="M169.52,136.04c-.17,.11-.34,.24-.51,.37-.73,.57-1.84,1.44-3.23,.24-1.7-1.47-.58-3.1-.04-3.89,.1-.08,.12-.32,.17-.53,.08-.37,.18-.78,.48-1.11,.23-.24,.5-.46,.78-.68,.91-.72,1.09-.98,.79-1.58-.49-.97-1.43-.98-2.91-.88-.2,.01-.39,.03-.58,.03-3.55,.15-6.46,3.03-7.24,7.14-.57,3.01-2.57,5.48-5.35,6.62-2.53,1.04-5.37,.82-7.78-.52-.43,.76-.86,1.52-1.3,2.28,4.21,3.87,4.94,8.11,2.42,14.07-1.34,3.17-2.46,6.44-.27,8.62,.05,.05,.1,.1,.14,.15l1.27-4.87c.3-1.14,.66-2.28,1.01-3.38,.69-2.15,1.4-4.38,1.63-6.69l.15-1.54,.98,1.2c3.06,3.75,.97,6.28-.88,8.5-.66,.8-1.29,1.56-1.7,2.36l-2.33,4.56c1.63,1.78,1.98,3.71,2.33,5.57,.16,.89,.32,1.73,.61,2.55,1.75,4.99,4.78,9.7,9.26,14.39,.9,.94,2.06,1.45,3.54,1.57,.53,.04,1.06,.07,1.6,.1,2.34,.14,4.76,.29,7.12,1.17,.64,.24,1.2,.25,1.66,.03,.59-.28,1.08-.95,1.42-1.94,1.39-4.01,2.91-8.78,3.67-13.67,.25-1.6,.58-2.64,2.81-2.66,.48,0,.98-.08,1.51-.16,.59-.09,1.21-.19,1.85-.19h.23c2.86-.01,4.62-.16,4.83-3.1,.05-.73,.66-1.35,1.1-1.81,4.43-4.54,3.81-7.02-.31-12.17-.23-.29-.47-.57-.72-.88l-.86-1.05,.56-.4c1.46-1.05,3.07-1.35,4.61-1.63,1.04-.19,2.02-.37,2.93-.77,2.01-.89,2.78-2.13,2.36-3.8-.45-1.73-.34-3.38-.23-4.97,.04-.57,.08-1.14,.09-1.71,.07-3.56-1.72-7.21-4.68-9.54-2.49-1.96-5.46-2.67-8.14-1.96-5.41,1.44-10.42,3.64-14.9,6.54Zm-16.19,7.52c3.66-.82,4.5-3.42,5.46-6.44,.83-2.59,1.68-5.27,4.5-6.77l1.27-.68-.35,1.4c-.21,.83-.42,1.63-.62,2.4-.54,2.05-1.05,3.98-1.31,5.93-.25,1.88-1.15,3.4-2.59,4.41-1.66,1.17-3.92,1.52-6.36,1l-2.88-.62,2.87-.64Zm-1.04,5.22l-1.15-1.12,1.57-.02c.17-.02,.37-.04,.59,.05,.16,.07,.51,.21,.68,.51,4.26-.21,6.85,2.58,9.33,5.35h0s1.11,.14,1.11,.14l-.82,.96-.26,1.27-1.76-.99,.25-.27c-2.92-.56-5.15-2.33-7.32-4.05-.44-.35-.89-.7-1.33-1.04l-2.4,.29,1.51-1.08Zm19.92,24.48c1.45,.39,2.11,1.17,2.4,1.75,.4,.79,.41,1.77,.04,2.74-.83,2.14-1.36,4.4-1.88,6.58-.21,.88-.42,1.76-.65,2.64l-.04,.14c-.15,.6-.34,1.34-.97,1.69-.36,.2-.79,.23-1.27,.09-.9-.27-1.86-.49-2.78-.7-3.2-.72-6.51-1.47-8.84-4.66-1.37-1.88-3.11-3.68-5.16-5.37-2.63-2.16-3.81-5.23-3.09-7.99,.35-1.32,.39-2.71,.44-4.19,.08-2.4,.17-4.87,1.57-7.08,.46-.74,1.07-1.45,1.88-2.12l.55-.46,.4,.6c.39,.59,.8,1.18,1.2,1.77,.88,1.28,1.8,2.61,2.57,4,2.96,5.36,7.54,8.91,13.64,10.57Zm16.44-13.99c1.17,1.54,1.66,3.04,1.4,4.34-.23,1.13-.98,2.07-2.24,2.81-6.02,3.52-12.49,4.39-18.22,2.46-5.6-1.89-9.96-6.26-12.59-12.63l-.51-1.23,1.28,.37c1.93,.56,3.57,1.51,5.16,2.43,1.11,.65,2.16,1.25,3.28,1.72,.18,.07,.36,.16,.54,.25,.82,.41,1.13,.51,1.61,.05,.53-.51,.41-.83-.09-1.71l-.19-.34c-2.32-4.37-5.14-7.87-8.65-10.69l-1.88-1.51,2.38,.38c1.93,.31,3.91,.31,5.82,.31,.83,0,1.65,0,2.48,.02,9.92,.28,15.75,6.84,20.42,12.97Zm4.76-23.03c2.54,2.83,3.3,7.08,2.14,11.98-.1,.41-.33,.82-.65,1.15-1.21,1.23-5.7,2.02-8.38,2.04-1.75,.01-2.86-.24-3.4-.78-5.43-5.4-12.31-6.4-19.46-7.01l-1.94-.17,1.66-1.02c1.22-.75,2.42-1.54,3.62-2.32,4.76-3.11,9.67-6.33,15.56-7.09,4.59-.59,8.44,.56,10.86,3.24Z"/><path class="cls-1" d="M196.19,135.27c.94,1.79,1.45,3.78,1.41,5.74-.01,.57-.05,1.14-.09,1.7-.11,1.59-.21,3.2,.22,4.88,.47,1.84-.39,3.26-2.56,4.22-.96,.42-1.95,.6-3.01,.8-1.51,.28-3.07,.57-4.47,1.57l-.24,.17,.61,.75c.26,.31,.49,.6,.72,.89,4.2,5.25,4.87,7.95,.29,12.65-.4,.42-.95,.98-1,1.58-.25,3.42-2.65,3.43-5.19,3.44h-.23c-.62,0-1.22,.1-1.8,.18-.52,.08-1.05,.16-1.56,.17-2,.02-2.23,.87-2.46,2.36-.77,4.93-2.29,9.7-3.68,13.73-.37,1.08-.93,1.83-1.61,2.15-.55,.26-1.21,.25-1.94-.02-2.31-.86-4.7-1.01-7-1.15-.54-.03-1.08-.07-1.61-.1-1.58-.12-2.81-.67-3.77-1.68-4.52-4.73-7.57-9.47-9.34-14.52-.3-.85-.46-1.7-.62-2.6-.34-1.82-.68-3.7-2.24-5.4l-.26-.27c-2.35-2.34-1.19-5.74,.19-9.02,2.45-5.82,1.75-9.91-2.34-13.67l-.21-.2,.14-.25c.43-.76,.87-1.52,1.3-2.28l.18-.31,.31,.18c2.33,1.31,5.06,1.49,7.47,.5,2.66-1.09,4.58-3.46,5.13-6.35,.81-4.28,3.86-7.27,7.58-7.44,.18,0,.37-.02,.57-.03,1.29-.09,2.6-.19,3.25,1.07,.45,.9-.04,1.35-.89,2.02-.26,.21-.53,.43-.74,.65-.24,.26-.32,.6-.4,.94l-.03,.13c-.04,.2-.08,.41-.22,.56-.71,1.04-1.34,2.23,0,3.38,1.08,.93,1.86,.46,2.76-.25,.17-.14,.35-.28,.53-.4h0c4.51-2.93,9.56-5.14,15.01-6.59,2.79-.74,5.88,0,8.46,2.03,1.42,1.12,2.58,2.53,3.41,4.09Zm-9.79,18.94l.87-.62c1.53-1.1,3.17-1.4,4.76-1.7,1.02-.19,1.98-.36,2.85-.75,1.85-.81,2.53-1.89,2.15-3.38-.46-1.79-.35-3.46-.24-5.08,.04-.59,.08-1.14,.09-1.7,.07-3.45-1.67-6.99-4.54-9.25-2.4-1.89-5.25-2.58-7.83-1.9-5.37,1.43-10.35,3.61-14.8,6.5-.16,.11-.32,.23-.48,.36-.73,.57-2.07,1.62-3.69,.23-1.95-1.68-.6-3.63-.1-4.37l.07-.08s0-.1,.01-.18l.03-.15c.09-.39,.2-.87,.57-1.27,.25-.26,.54-.5,.82-.72,.9-.71,.86-.8,.69-1.13-.41-.71-1.07-.78-2.56-.68-.2,.01-.4,.03-.58,.03-3.38,.15-6.15,2.9-6.9,6.85-.59,3.13-2.67,5.7-5.56,6.89-2.51,1.03-5.32,.89-7.78-.37-.33,.58-.65,1.15-.98,1.73,4.11,3.9,4.82,8.32,2.3,14.28-1.22,2.89-2.26,5.87-.64,7.89l1.1-4.23c.3-1.16,.67-2.3,1.02-3.4,.68-2.15,1.39-4.35,1.61-6.61l.24-2.41,.91,1.11,1.89-1.36-1.48-1.43,2.45-.02c.15-.02,.43-.05,.73,.08,.16,.06,.48,.2,.72,.48,4.34-.12,7,2.78,9.34,5.38l1.43,.17c-1.68-2.3-3.57-4.29-5.72-6.02l-2.54-2.04c-1.06,.14-2.21,.09-3.4-.17l-4.49-.96,4.49-1c3.46-.77,4.23-3.16,5.19-6.19,.85-2.66,1.73-5.41,4.68-6.98l1.99-1.05-.54,2.18c-.21,.83-.42,1.63-.62,2.4-.54,2.03-1.04,3.94-1.3,5.88-.27,1.98-1.22,3.59-2.74,4.66-.73,.51-1.57,.88-2.49,1.09l2.57,.41c1.89,.3,3.84,.3,5.73,.3,.88,0,1.7,0,2.52,.02,10.08,.28,15.97,6.92,20.7,13.11h0c1.24,1.62,1.75,3.22,1.47,4.63-.25,1.24-1.06,2.27-2.42,3.06-6.11,3.57-12.69,4.46-18.52,2.49-5.71-1.92-10.13-6.36-12.81-12.84l-.79-1.92,2,.58c1.98,.57,3.64,1.53,5.24,2.46,1.1,.64,2.14,1.24,3.24,1.7,.17,.07,.35,.16,.52,.24,.87,.44,.95,.4,1.23,.13,.32-.3,.35-.38-.15-1.27l-.19-.34c-.84-1.58-1.75-3.05-2.73-4.41l-1.09,1.27-.34,1.67-2.59-1.46,.14-.15c-2.7-.69-4.81-2.36-6.85-3.98l-.1-.08c-.37-.29-.74-.59-1.12-.87l-3.06,.36,.45,.55c3.26,3.99,.96,6.75-.88,8.96-.67,.81-1.27,1.54-1.66,2.29l-2.22,4.34c1.55,1.8,1.91,3.71,2.25,5.56,.16,.88,.32,1.71,.59,2.5,1.74,4.94,4.74,9.61,9.18,14.26,.83,.87,1.92,1.35,3.31,1.46,.53,.04,1.06,.07,1.59,.1,2.37,.14,4.81,.29,7.22,1.19,.54,.2,1.01,.22,1.38,.04,.5-.23,.93-.83,1.24-1.73,1.38-3.99,2.89-8.73,3.65-13.6,.26-1.67,.65-2.95,3.17-2.97,.46,0,.97-.08,1.46-.16,.58-.09,1.23-.19,1.91-.19h.23c3.04,0,4.29-.26,4.47-2.77,.06-.86,.72-1.54,1.2-2.03,4.27-4.38,3.7-6.65-.33-11.7-.23-.29-.46-.57-.72-.88l-1.1-1.35Zm-27.97,4.28c2.63,4.99,6.49,8.44,11.26,10.05,5.63,1.9,12,1.03,17.92-2.43,1.17-.68,1.87-1.55,2.07-2.57,.24-1.19-.23-2.59-1.34-4.05-4.63-6.06-10.38-12.55-20.15-12.83-.81-.02-1.62-.02-2.44-.02-1.98,0-3.95,0-5.9-.31l-1.04-.17,.82,.66c3.54,2.85,6.4,6.39,8.74,10.8l.18,.33c.49,.87,.75,1.44,.02,2.14-.66,.64-1.2,.43-2.02,.02-.2-.1-.35-.18-.51-.24-1.15-.48-2.21-1.09-3.33-1.74-1.57-.91-3.18-1.85-5.08-2.39l-.56-.16,.22,.54c.34,.83,.71,1.62,1.11,2.38Zm-6.29-14.3l1.26,.27c2.34,.5,4.5,.17,6.08-.94,1.36-.95,2.2-2.39,2.44-4.17,.27-1.98,.78-3.92,1.32-5.97,.2-.77,.41-1.56,.62-2.39l.15-.61-.56,.29c-2.69,1.43-3.52,4.04-4.33,6.56-.95,2.99-1.86,5.82-5.72,6.68l-1.26,.28Zm10.94,11.18l.18-.88,.44-.52-.56-.07-.09-.09c-2.31-2.56-4.9-5.45-9.06-5.24h-.22s-.11-.18-.11-.18c-.11-.2-.37-.3-.5-.36-.14-.06-.27-.04-.42-.03h-.72s.83,.81,.83,.81l-.72,.52,1.15-.14,.12,.09c.42,.32,.83,.64,1.24,.97l.1,.08c2.13,1.69,4.33,3.43,7.16,3.98l.64,.12-.38,.41,.93,.52Zm-16.98,8.71l1.17-2.29c.42-.83,1.05-1.59,1.72-2.4,1.88-2.25,3.79-4.54,.91-8.08l-.43-.53-.07,.68c-.24,2.34-.95,4.58-1.64,6.74-.36,1.11-.72,2.24-1.01,3.38l-.65,2.49Zm48.99-26.06c1.45,2.76,1.75,6.31,.81,10.27-.11,.47-.38,.95-.74,1.31-1.32,1.35-5.95,2.13-8.64,2.15-1.87,.01-3.03-.27-3.66-.89-5.35-5.32-12.15-6.3-19.24-6.91l-3.03-.26,2.59-1.59c1.24-.76,2.5-1.59,3.61-2.32,4.8-3.14,9.74-6.38,15.71-7.15,4.71-.61,8.68,.58,11.17,3.36l-.27,.24,.27-.24c.55,.62,1.03,1.3,1.42,2.03Zm-32.26,5.14l.85,.07c7.22,.62,14.17,1.63,19.69,7.12,.46,.46,1.52,.69,3.14,.68,2.91-.02,7.09-.87,8.13-1.93,.27-.28,.47-.64,.56-.98,1.14-4.78,.41-8.92-2.06-11.65-2.33-2.59-6.08-3.7-10.54-3.12-5.8,.75-10.68,3.95-15.4,7.03-1.12,.74-2.39,1.57-3.64,2.33l-.73,.45Zm12.07,31.63s.02,.03,.02,.05c.45,.88,.47,1.96,.05,3.04-.81,2.11-1.35,4.35-1.86,6.52h-.37s.35,.09,.35,.09c-.2,.86-.41,1.72-.63,2.57l-.04,.14c-.16,.63-.38,1.49-1.14,1.92-.45,.25-.97,.29-1.56,.12-.89-.27-1.84-.48-2.76-.69-3.27-.74-6.64-1.5-9.05-4.8-1.35-1.85-3.07-3.64-5.1-5.3-2.74-2.25-3.97-5.46-3.21-8.37,.33-1.28,.38-2.65,.43-4.11,.08-2.44,.17-4.96,1.62-7.27,.51-.81,1.15-1.53,1.95-2.2l.86-.72,.62,.94c.38,.57,.76,1.13,1.14,1.69l.05,.08c.89,1.29,1.81,2.62,2.59,4.03,2.91,5.27,7.42,8.76,13.41,10.39,1.54,.42,2.27,1.25,2.61,1.89Zm-23.94,.3c.54,1.02,1.32,1.97,2.32,2.79,2.08,1.7,3.83,3.53,5.22,5.43,2.25,3.08,5.49,3.81,8.63,4.52,.93,.21,1.9,.43,2.81,.7,.39,.12,.72,.1,.99-.06,.49-.28,.65-.9,.79-1.46l.04-.15c.22-.85,.42-1.71,.63-2.56l.02-.09c.52-2.19,1.06-4.45,1.89-6.61,.34-.88,.33-1.75-.02-2.45-.27-.51-.85-1.2-2.17-1.56-6.19-1.68-10.85-5.3-13.86-10.74-.76-1.38-1.67-2.69-2.55-3.97l-.05-.08c-.39-.56-.77-1.13-1.15-1.7l-.17-.26-.24,.2c-.74,.62-1.33,1.28-1.8,2.03-1.35,2.13-1.43,4.56-1.51,6.9-.05,1.5-.1,2.91-.46,4.27-.42,1.59-.17,3.28,.65,4.83Z"/></g><g><path class="cls-1" d="M163.79,306.73c.62-.19,1.1-.73,1.37-1.56,.33-1.02,.79-2.1,1.71-2.37,.96-.27,1.92,.45,3.09,1.43,2.7,2.27,4.24,3.13,5.15,2.86,1-.29,1.74-2.1,2.62-4.92,.1-.36,.41-.51,.66-.63,.08-.04,.17-.09,.27-.15l.41-.26,.36,.33c2.2,2.01,3.76,2.8,5.76,1.21,5.69-4.54,7.99-10.55,6.66-17.37-1.49-7.59-7.4-10.5-12.09-11.61-1.93-.45-2.8-1.63-3.57-2.66-.47-.64-.86-1.22-1.26-1.81-1.73-2.6-3.22-4.84-6.75-4.77-.5,0-.89-.12-1.16-.4-.1-.1-.16-.2-.22-.31-.83,.23-1.67,.47-2.5,.7-.08,.23-.18,.46-.32,.7-.33,.53-.67,1.05-1,1.58-1.89,2.96-3.68,5.77-4.39,9.2-.21,1-.9,1.84-1.57,2.66-.21,.26-.42,.51-.61,.77-.35,.47-.71,.95-1.08,1.42-2.09,2.73-4.26,5.55-4.27,9.23-.02,7.59,5.37,11.92,10.58,16.11l.19,.15c.6,.48,1.33,.66,1.95,.47Zm26.56-19.22c.47,5.05-1.29,9.36-5.24,12.83-.5,.45-1.1,.97-1.73,.81-.18-.05-.51-.19-.67-.65-.15-.41-.5-.79-.87-1.18-.72-.77-1.62-1.72-1.14-3.28,.23-.76,.63-1.47,.95-2.01,2.93-4.93,2.88-9.42-.17-13.75l-1.08-.98,.57-.47c.42-.37,.75-.42,1.04-.18,.15,.12,.29,.25,.44,.39,4.73,.85,7.46,3.77,7.9,8.47Zm-22.59-20.44l-.53-1.7,1.49,.97c3.99,2.58,6.12,5.3,8.42,10.76l.75,1.78-1.66-.97c-4.36-2.55-6.89-5.79-8.47-10.84Zm-6.14,12.22c-1.66-3.47-.11-6.16,1.27-8.53,.45-.78,.92-1.59,1.26-2.4l.45-1.07,.66,.95c2.26,3.23,1.63,5.94-2.57,11.17l-.64,.79-.44-.92Zm2.26,2.51c1-1.39,2.26-2.6,3.49-3.81,.47-.46,.94-.92,1.4-1.38,1.16-1.19,2.1-.3,2.55,.12,.08,.08,.17,.16,.25,.23,1.59,1.36,3.48,2.36,5.79,3.07h0c1.69,.52,3.14,1.82,3.98,3.55,.88,1.83,.99,3.9,.29,5.69-1.29,3.31-2.81,6.68-4.53,10.04-.81,1.59-1.94,2.59-3.27,2.91-1.42,.34-2.96-.09-4.59-1.27-4.43-3.22-6.99-7.38-7.38-12.03-.28-2.96,.63-5.2,2.02-7.13Zm-3.34,20.84c-.42-.37-.85-.7-1.26-1.03-.92-.74-1.8-1.43-2.5-2.31-3.78-4.71-5.7-8.01-.93-14.22,.28-.37,.57-.87,.87-1.4,.27-.48,.56-1,.89-1.45,.64-.88,1.4-1.5,2.4-1.05,.64,.28,1.05,.69,1.24,1.2,.32,.91-.17,1.85-.64,2.77-.27,.53-.55,1.07-.61,1.5-.45,3.52,.31,6.53,2.24,8.95,1.24,1.55,1.72,2.83,1.52,4.04-.19,1.14-.99,2.15-2.44,3.08l-.41,.26-.36-.32Z"/><path class="cls-1" d="M190.74,281.02c.64,1.22,1.14,2.61,1.46,4.2,1.37,6.96-.98,13.09-6.79,17.73-2.19,1.74-3.94,.87-6.23-1.22l-.16-.14-.18,.11c-.11,.07-.21,.12-.3,.16-.25,.13-.42,.22-.47,.41-.93,3.01-1.7,4.82-2.86,5.16-1.06,.31-2.65-.54-5.49-2.93-1.08-.91-1.97-1.58-2.75-1.36-.75,.21-1.16,1.2-1.47,2.13-.31,.95-.86,1.58-1.61,1.8h0c-.74,.22-1.59,.02-2.28-.54l-.19-.16c-5.28-4.24-10.74-8.63-10.71-16.39,0-3.79,2.2-6.65,4.31-9.41,.39-.51,.75-.98,1.1-1.45,.18-.24,.38-.48,.58-.73,.69-.83,1.35-1.64,1.54-2.55,.72-3.5,2.53-6.33,4.44-9.32l.18-.28c.27-.43,.55-.86,.82-1.3,.11-.18,.2-.38,.29-.63l.06-.18,2.97-.83,.13,.26c.04,.09,.1,.16,.15,.22,.2,.2,.5,.3,.9,.29,3.72-.07,5.34,2.36,7.05,4.93,.39,.58,.77,1.16,1.24,1.79,.77,1.03,1.56,2.1,3.36,2.52,3.82,.9,8.42,2.97,10.91,7.69Zm-37.71,15.56c1.96,3.72,5.44,6.51,8.83,9.24l.19,.16c.51,.41,1.11,.56,1.62,.41h0c.64-.19,.97-.83,1.13-1.33,.36-1.12,.88-2.3,1.95-2.6,1.13-.32,2.17,.45,3.42,1.5,1.59,1.34,3.81,3.08,4.82,2.79,.89-.26,1.67-2.4,2.37-4.68,.15-.5,.56-.71,.84-.85,.08-.04,.17-.08,.25-.14l.64-.4,.56,.52c2.09,1.92,3.49,2.63,5.29,1.19,5.58-4.46,7.84-10.34,6.53-17.02-1.46-7.41-7.23-10.24-11.82-11.32-2.06-.48-3.01-1.76-3.78-2.79-.48-.64-.87-1.23-1.27-1.82-1.74-2.61-3.11-4.67-6.44-4.61-.6,.01-1.08-.16-1.42-.5-.05-.04-.09-.09-.13-.14l-2.06,.58c-.09,.22-.18,.41-.29,.59-.27,.44-.55,.87-.82,1.3l-.18,.28c-1.87,2.93-3.64,5.71-4.34,9.08-.23,1.09-.95,1.96-1.64,2.81-.24,.29-.43,.52-.6,.75-.35,.48-.72,.95-1.08,1.42-2.07,2.71-4.19,5.47-4.2,9.01,0,2.52,.6,4.67,1.61,6.59Zm36.52-13.19c.62,1.17,1,2.53,1.15,4.08h0c.48,5.17-1.32,9.59-5.36,13.13-.55,.49-1.24,1.1-2.06,.89-.2-.05-.69-.23-.92-.88-.12-.34-.45-.69-.79-1.06-.75-.79-1.76-1.87-1.22-3.64,.25-.8,.65-1.53,.98-2.08,2.85-4.79,2.8-9.16-.16-13.35l-1.33-1.2,.89-.74c.68-.6,1.19-.43,1.5-.18,.13,.1,.25,.21,.38,.33,3.29,.62,5.63,2.21,6.94,4.69Zm.43,4.15c-.42-4.51-3.05-7.33-7.6-8.15l-.11-.02-.08-.07c-.14-.13-.27-.26-.41-.37-.08-.07-.2-.16-.58,.17l-.26,.22,.77,.7c3.19,4.51,3.25,9.14,.24,14.2-.31,.52-.69,1.2-.91,1.93-.42,1.36,.36,2.19,1.05,2.93,.4,.43,.77,.83,.95,1.31,.1,.28,.28,.39,.42,.42,.45,.11,.95-.33,1.4-.73,3.86-3.38,5.59-7.6,5.12-12.52h0Zm-8.46-4.36c.04,.08,.09,.17,.13,.25,.92,1.92,1.03,4.09,.3,5.98-1.29,3.31-2.82,6.7-4.54,10.07-.86,1.68-2.07,2.76-3.51,3.1-1.52,.37-3.17-.08-4.89-1.33-4.52-3.28-7.12-7.53-7.53-12.29-.26-2.7,.4-5.04,2.09-7.37h0c1.02-1.41,2.29-2.65,3.53-3.85,.48-.47,.95-.92,1.4-1.39,1.41-1.45,2.65-.27,3.05,.11,.08,.08,.16,.15,.24,.22,1.55,1.32,3.4,2.3,5.66,3,1.7,.53,3.17,1.79,4.07,3.49Zm-17.69,11.23c1.23,2.33,3.11,4.44,5.6,6.24,1.54,1.12,2.99,1.53,4.3,1.21,1.22-.29,2.27-1.24,3.03-2.73,1.71-3.35,3.23-6.71,4.51-10,.66-1.7,.56-3.66-.28-5.4-.78-1.64-2.16-2.87-3.76-3.36-2.35-.73-4.29-1.75-5.92-3.14-.09-.08-.18-.17-.27-.25-.59-.56-1.19-1-2.04-.13-.46,.47-.93,.93-1.41,1.39-1.22,1.19-2.47,2.4-3.45,3.76-1.58,2.17-2.2,4.36-1.95,6.88,.16,1.94,.71,3.79,1.63,5.52Zm12.13-20.66c.51,.96,1,2.02,1.5,3.21l1.17,2.78-2.6-1.52c-4.45-2.59-7.03-5.9-8.63-11.04l-.83-2.65,2.33,1.51c3.19,2.07,5.21,4.21,7.06,7.72Zm1.16,4.27l-.33-.78c-2.27-5.39-4.37-8.06-8.29-10.6l-.65-.42,.23,.74c1.55,4.96,4.03,8.14,8.31,10.63l.73,.43Zm-10.94-8.95c1.57,2.97,.66,5.74-3.22,10.57l-1,1.24-.69-1.44c-1.75-3.64-.14-6.42,1.28-8.87,.45-.77,.91-1.57,1.24-2.36l.71-1.67,1.04,1.49c.24,.35,.46,.69,.64,1.03Zm-4.07,10.46l.28-.35c4.12-5.13,4.71-7.64,2.56-10.74l-.29-.42-.2,.47c-.35,.83-.83,1.65-1.28,2.44-1.33,2.3-2.84,4.9-1.26,8.19l.19,.4Zm-.69,2.43c.05,.09,.09,.18,.12,.28,.37,1.06-.17,2.12-.66,3.05-.26,.5-.52,1.02-.57,1.38-.43,3.42,.29,6.34,2.16,8.68,1.31,1.64,1.81,3.01,1.59,4.32-.21,1.25-1.06,2.33-2.6,3.32l-.63,.41-.57-.49c-.41-.36-.83-.69-1.23-1.01-.96-.76-1.85-1.47-2.58-2.38-3.76-4.69-5.86-8.25-.93-14.67,.27-.35,.56-.86,.84-1.36,.27-.49,.57-1.02,.91-1.49,.33-.45,1.33-1.84,2.84-1.17,.62,.27,1.06,.66,1.31,1.13Zm-.65,12.1c-1.13-2.15-1.53-4.66-1.17-7.48,.06-.49,.36-1.06,.64-1.61,.44-.85,.89-1.73,.62-2.49-.15-.42-.5-.75-1.04-.99-.45-.2-1.08-.28-1.96,.93-.31,.43-.59,.93-.86,1.4-.3,.53-.6,1.07-.9,1.46-4.71,6.14-2.72,9.23,.93,13.78,.68,.85,1.54,1.53,2.45,2.26,.43,.34,.86,.68,1.27,1.04l.16,.14,.18-.11c1.36-.87,2.11-1.8,2.28-2.83,.18-1.1-.28-2.29-1.45-3.75-.44-.55-.82-1.13-1.14-1.74Z"/></g></svg>