<?xml version="1.0" encoding="UTF-8"?><svg id="Camada_1" xmlns="http://www.w3.org/2000/svg" viewBox="0 0 795.18 271.63"><defs><style>.cls-1{fill:#d88e45;}.cls-2{fill:#a35f31;}</style></defs><g><path class="cls-2" d="M59.07,205.43l-23.31,66.2h0c-2.85,0-5.38-1.8-6.32-4.49L7.36,204.07c-1.02-2.72-4.87-15.16-7.36-16.75H8.34c1.65,0,2.98,1.34,2.98,2.98v.07c0,4.07,2.38,10.86,3.73,14.82l21.05,59.75,19.8-56.35c1.47-4.41,2.83-9.17,2.83-13.81v-.07c0-4.07,3.32-7.4,7.39-7.4h1.78c-3.28,2.04-7.69,14.71-8.83,18.11Z"/><path class="cls-2" d="M105.24,228.74c0-8.03-7.13-13.13-14.6-13.13-5.3,0-9.59,2.87-11.94,7.05-1.76,3.12-5.88,3.88-8.46,1.4l-.19-.19c6-5.66,13.13-9.62,21.61-9.62,12.11,0,20.26,8.03,20.26,20.26,0,5.55-1.36,33.27,2.94,36.21h0c-5.18,.43-9.62-3.66-9.62-8.86v-12.08c-2.83,11.09-10.52,21.73-23.09,21.73-8.71,0-14.48-4.87-14.48-13.81,0-20.71,37.57-14.26,37.57-28.97Zm0,11.32v-6.68c-6.34,9.39-29.2,7.24-29.2,24.78,0,6.11,3.51,10.86,9.73,10.86,12.33,0,19.46-18.11,19.46-28.97Z"/><path class="cls-2" d="M130.36,253.18v-49.79c0-11.54-.91-14.94-2.83-16.07h0c5-.77,9.51,3.09,9.51,8.15v57.71c0,11.54,.91,16.41,2.94,17.54h-12.45c1.92-1.13,2.83-6,2.83-17.54Z"/><path class="cls-2" d="M201.88,255.33c-1.7,5.66-9.05,16.18-22.18,16.18-15.28,0-27.61-11.88-27.61-28.63s10.41-28.63,25.69-28.63c11.47,0,20.74,6.8,23.01,18.12,.57,2.87-1.68,5.54-4.6,5.54h-35.95c-.11,1.02-.11,2.04-.11,2.94,0,18.9,10.75,27.16,22.18,27.16s17.31-9.51,18.56-13.35l1.02,.68Zm-41.53-18.78h33.16c.23-11.54-3.28-20.93-15.16-20.93-12.67,0-17.2,9.96-17.99,20.93Zm9.85-29.76l6.11-11.43h0c2.67,0,3.98,3.25,2.06,5.1l-7.04,6.78-1.13-.45Z"/><path class="cls-2" d="M237.3,218.44c-6.68,0-13.81,7.47-13.81,25.12v9.62c0,11.54,.91,16.41,2.94,17.54h0c-5.59,0-10.08-4.67-9.78-10.25,.11-2.06,.16-4.48,.16-7.29v-20.6c0-11.43-.91-16.3-2.83-17.54h0c5.15-.43,9.56,3.64,9.55,8.81,0,2.3-.02,4.96-.05,7.94,2.49-10.3,8.37-17.54,17.43-17.54,4.75,0,8.15,2.15,12.56,6.79h0c-1.97,3.06-6.38,3.51-8.77,.77-1.64-1.88-4.01-3.37-7.41-3.37Z"/><path class="cls-2" d="M269.09,199.65c-3.39,0-6.22-2.72-6.22-6.22s2.83-6.11,6.22-6.11,6.22,2.72,6.22,6.11-2.83,6.22-6.22,6.22Zm-3.39,53.53v-20.6c0-3.05,.34-15.62-2.83-17.54h0c5.57,0,9.97,4.7,9.65,10.26-.18,3.1-.14,6.01-.14,7.27v20.6c0,3.06-.23,15.73,2.94,17.54h-12.45c3.17-1.81,2.83-14.48,2.83-17.54Z"/><path class="cls-2" d="M324.77,228.74c0-8.03-7.13-13.13-14.6-13.13-5.3,0-9.59,2.87-11.94,7.05-1.76,3.12-5.88,3.88-8.46,1.4l-.19-.19c6-5.66,13.13-9.62,21.61-9.62,12.11,0,20.26,8.03,20.26,20.26,0,5.55-1.36,33.27,2.94,36.21h0c-5.18,.43-9.62-3.66-9.62-8.86v-12.08c-2.83,11.09-10.52,21.73-23.09,21.73-8.71,0-14.48-4.87-14.48-13.81,0-20.71,37.57-14.26,37.57-28.97Zm0,11.32v-6.68c-6.34,9.39-29.2,7.24-29.2,24.78,0,6.11,3.51,10.86,9.73,10.86,12.33,0,19.46-18.11,19.46-28.97Z"/><path class="cls-2" d="M378.18,253.18v-48.43c0-1.99,.14-7.99-.63-12.44-.45-2.59,1.48-4.98,4.11-4.98h25.38c11.77,0,19.69,7.81,19.69,19.69,0,9.17-4.75,16.18-13.81,18.33,12.68,1.36,19.47,10.3,19.46,22.76,0,12.52-10.26,22.62-22.77,22.62h-34.26c3.17-1.92,2.83-14.48,2.83-17.54Zm7.02-28.29h15.73c12.45,0,18.33-5.21,18.33-17.88s-5.88-17.77-18.33-17.77h-15.73v35.65Zm0,43.91h18.33c13.58,0,21.27-6.9,21.27-20.71s-7.69-21.27-21.27-21.27h-18.33v41.98Z"/><path class="cls-2" d="M448.23,253.18v-49.79c0-11.54-.91-14.94-2.83-16.07h0c5-.77,9.51,3.09,9.51,8.15v57.71c0,11.54,.91,16.41,2.94,17.54h-12.45c1.92-1.13,2.83-6,2.83-17.54Z"/><path class="cls-2" d="M525.29,242.88c0,16.75-12.45,28.63-27.72,28.63s-27.61-11.88-27.61-28.63,12.33-28.63,27.61-28.63,27.72,11.77,27.72,28.63Zm-8.15,0c0-16.18-8.83-27.27-19.58-27.27s-19.58,11.09-19.58,27.27,8.83,27.27,19.58,27.27,19.58-11.2,19.58-27.27Z"/><path class="cls-2" d="M570.78,257.59c0-14.71-33.5-12.79-33.5-29.31,0-8.6,8.49-14.03,19.12-14.03,9.51,0,16.41,5.32,21.05,9.62h0c-2.55,2.46-6.79,1.8-8.37-1.37-2.01-4.05-5.88-6.89-12-6.89-8.15,0-12.22,3.51-12.22,10.18,0,13.69,33.38,12.33,33.38,27.95,0,9.73-7.02,17.77-20.94,17.77-9.5,0-17.2-5.32-21.84-9.62h0c3.12-3.08,8.28-2.21,10.32,1.67,2,3.81,5.49,6.59,10.96,6.59,8.6,0,14.03-4.87,14.03-12.56Z"/><path class="cls-2" d="M622.84,257.59c0-14.71-33.5-12.79-33.5-29.31,0-8.6,8.49-14.03,19.12-14.03,9.51,0,16.41,5.32,21.05,9.62h0c-2.55,2.46-6.79,1.8-8.37-1.37-2.01-4.05-5.88-6.89-12-6.89-8.15,0-12.22,3.51-12.22,10.18,0,13.69,33.38,12.33,33.38,27.95,0,9.73-7.02,17.77-20.94,17.77-9.5,0-17.2-5.32-21.84-9.62h0c3.12-3.08,8.28-2.21,10.31,1.67s5.49,6.59,10.96,6.59c8.6,0,14.03-4.87,14.03-12.56Z"/><path class="cls-2" d="M697.07,242.88c0,16.75-12.45,28.63-27.72,28.63s-27.61-11.88-27.61-28.63,12.33-28.63,27.61-28.63,27.72,11.77,27.72,28.63Zm-8.15,0c0-16.18-8.83-27.27-19.58-27.27s-19.58,11.09-19.58,27.27,8.83,27.27,19.58,27.27,19.58-11.2,19.58-27.27Z"/><path class="cls-2" d="M738.6,214.25c9.73,0,16.18,5.55,16.97,17.54,3.28-10.3,10.75-17.54,19.8-17.54,10.3,0,16.97,6.34,16.97,20.26v18.78c0,11.43,.91,16.3,2.83,17.43h0c-5.53,0-9.98-4.63-9.67-10.15,.11-2.08,.17-4.53,.17-7.39v-18.67c0-8.37-2.6-17.54-12.79-17.54-11.32,0-17.2,13.24-17.2,26.59v9.73c0,11.43,.9,16.3,2.83,17.43h0c-5.53,0-9.98-4.63-9.68-10.15,.11-2.08,.17-4.53,.17-7.39v-18.67c0-8.37-2.72-17.54-12.79-17.54-11.32,0-17.31,13.24-17.31,26.59v9.62c0,11.54,.91,16.41,2.94,17.54h0c-5.59,0-10.08-4.67-9.78-10.25,.11-2.06,.16-4.48,.16-7.29v-20.6c0-11.43-.91-16.3-2.83-17.54h0c5.15-.43,9.56,3.64,9.55,8.81,0,2.24-.02,4.82-.05,7.71,3.4-10.18,10.75-17.31,19.69-17.31Z"/></g><g><g><path class="cls-1" d="M328.92,130.12c10.8-4.73,21.57-9.65,31.59-15.89,8.98-5.59,16.99-11.94,22.05-21.38,5.06-9.43,10.23-19.01,12.66-29.49,2.27-9.77,3.33-19.83,3.89-29.84,.51-9.18,.72-18.49-.12-27.66-.05-.53-.86-.39-.82,.13,.65,7.93,.51,15.96,.15,23.9-.44,9.91-1.34,19.89-3.35,29.62-.89,4.3-2,8.58-3.6,12.67-2.06,5.26-4.89,10.29-7.41,15.34-2.53,5.06-5.04,9.99-9,14.08-3.65,3.77-7.9,6.94-12.27,9.83-10.72,7.09-22.44,12.66-34.1,17.98-.46,.21-.14,.93,.32,.72h0Z"/><path class="cls-1" d="M398.24,5.53c.1-.08,.22-.13,.34-.14,.3-.03,.52,.16,.55,.46,.92,10.04,.54,20.07,.12,27.68-.66,11.79-1.9,21.27-3.89,29.86-2.42,10.41-7.57,20.01-12.55,29.29l-.13,.24c-5.45,10.16-14.23,16.54-22.1,21.43-10.34,6.43-21.74,11.58-31.61,15.9h0c-.31,.14-.58-.04-.69-.27-.11-.24-.05-.55,.25-.69,11.28-5.15,23.21-10.78,34.09-17.97,5.2-3.44,9.09-6.56,12.24-9.81,4.06-4.2,6.68-9.43,8.98-14.05,.67-1.35,1.38-2.72,2.06-4.04,1.89-3.65,3.84-7.43,5.35-11.28,1.41-3.6,2.55-7.62,3.59-12.64,1.76-8.51,2.83-17.91,3.35-29.59,.3-6.6,.55-15.29-.15-23.88-.02-.21,.07-.37,.2-.48Zm-27.85,101.58c4.59-3.79,8.89-8.41,12.06-14.32l.13-.24c4.97-9.27,10.11-18.85,12.52-29.22,1.99-8.57,3.22-18.04,3.88-29.81,.43-7.6,.8-17.62-.12-27.64-.02-.22-.2-.22-.26-.21-.13,.01-.31,.11-.29,.32,.7,8.61,.45,17.3,.15,23.91-.52,11.7-1.59,21.12-3.35,29.64-1.04,5.04-2.19,9.07-3.61,12.69-1.51,3.86-3.47,7.65-5.36,11.31-.68,1.32-1.39,2.69-2.06,4.04-2.31,4.63-4.93,9.88-9.03,14.11-3.16,3.27-7.07,6.4-12.29,9.85-10.9,7.2-22.83,12.84-34.12,17.99-.17,.08-.17,.23-.12,.34,.05,.11,.17,.21,.34,.14h0c9.86-4.32,21.25-9.46,31.57-15.88,3.26-2.03,6.68-4.31,9.95-7.01Z"/></g><g><path class="cls-1" d="M360.71,113.81c2.65-1.89,6.3-.32,9.26-.18,2.47,.12,4.95-.15,7.36-.72,4.82-1.14,9.29-3.44,13.37-6.21,11.1-7.53,19.34-18.51,30.75-25.67,.51-.32-.09-1.04-.6-.72-11.4,7.18-19.63,18.17-30.72,25.72-4.7,3.2-10,5.78-15.68,6.56-2.79,.38-5.46,.17-8.22-.22-2.12-.31-4.17-.41-5.97,.92-.36,.27,.08,.8,.45,.54h0Z"/><path class="cls-1" d="M360.16,113.18s.02-.01,.02-.02c1.9-1.41,4.13-1.23,6.07-.95,2.37,.34,5.19,.64,8.19,.22,5.01-.69,10.27-2.89,15.62-6.54,5.25-3.57,9.94-8,14.47-12.27,5.04-4.75,10.25-9.66,16.25-13.45,.2-.12,.43-.13,.64-.02s.35,.32,.36,.53c0,.18-.08,.34-.26,.45-5.98,3.76-11.19,8.65-16.22,13.38-4.55,4.28-9.26,8.71-14.53,12.29-4.65,3.16-9.04,5.2-13.42,6.23-2.51,.59-5,.84-7.4,.72-.85-.04-1.74-.19-2.68-.36-2.29-.4-4.65-.81-6.5,.51-.26,.19-.55,.08-.7-.12-.15-.21-.12-.46,.07-.62Zm35.45-11.14c-1.74,1.44-3.54,2.82-5.41,4.09-5.39,3.67-10.68,5.89-15.74,6.58-3.03,.42-5.87,.12-8.26-.22-1.97-.28-4.05-.45-5.87,.9-.13,.1-.06,.23-.04,.26,.05,.07,.18,.17,.33,.06h0c1.94-1.39,4.36-.97,6.7-.56,.93,.16,1.81,.31,2.64,.35,2.37,.11,4.83-.13,7.32-.72,4.34-1.03,8.7-3.05,13.33-6.19,5.26-3.57,9.96-7.99,14.5-12.26,5.04-4.74,10.25-9.64,16.26-13.42,.09-.06,.13-.13,.13-.21,0-.11-.09-.23-.21-.3-.07-.04-.21-.09-.37,.01-5.98,3.77-11.18,8.67-16.21,13.42-2.93,2.76-5.93,5.59-9.1,8.21Z"/></g><g><path class="cls-1" d="M369.82,107.35c.64-2.14-.15-4.03-1.15-5.93-1.31-2.46-2.41-4.91-2.99-7.66-1.19-5.61-.56-11.47,.87-16.97,1.01-3.91,2.4-7.67,3.93-11.39-.05,0-.09-.01-.12-.04-.16-.13-.32-.28-.47-.43-.05-.04-.09-.09-.14-.13-1.57,3.82-3,7.68-4.03,11.69-1.22,4.77-1.88,9.76-1.32,14.68,.28,2.46,.87,4.88,1.81,7.17,1.13,2.73,3.85,5.64,2.96,8.77-.12,.43,.53,.67,.66,.24Z"/><path class="cls-1" d="M369.69,64.57l.28,.27c.14,.14,.3,.29,.46,.42,0,0,.01,0,.04,0h.19s-.07,.19-.07,.19c-1.83,4.46-3.04,7.97-3.92,11.38-1.62,6.27-1.91,11.96-.87,16.91,.62,2.95,1.86,5.51,2.98,7.63,.92,1.73,1.84,3.76,1.16,6.03-.08,.25-.31,.38-.56,.3-.24-.07-.44-.31-.35-.62,.62-2.18-.57-4.27-1.72-6.29-.47-.83-.92-1.61-1.24-2.4-.92-2.22-1.53-4.64-1.82-7.2-.51-4.47-.07-9.29,1.32-14.73,.9-3.49,2.14-7.1,4.03-11.71l.07-.18Zm.6,.92s-.02-.01-.03-.02c-.17-.14-.33-.29-.47-.43-1.85,4.51-3.07,8.06-3.95,11.49-1.39,5.42-1.82,10.2-1.32,14.64,.29,2.54,.9,4.94,1.8,7.13,.32,.77,.76,1.55,1.23,2.37,1.18,2.06,2.39,4.2,1.74,6.49-.05,.17,.09,.26,.17,.29,.04,.01,.18,.04,.23-.12h0c.65-2.17-.21-4.07-1.14-5.82-1.13-2.13-2.38-4.71-3.01-7.7-1.05-4.99-.76-10.72,.87-17.03,.87-3.38,2.07-6.86,3.88-11.27Z"/></g><g><path class="cls-1" d="M421.88,79.57c-4.11,2.36-8.25,4.66-12.36,7.04-2.09,1.21-4.21,2.38-6.42,3.36s-4.5,1.74-6.57,3.06c-7.91,5.07-11.73,14.53-19.97,19.21-.34,.19-.35,.84,.14,.84,4.6,0,8.7,.58,13.19-.88s8.8-4.38,12.18-7.9c3.6-3.75,5.9-8.15,8.78-12.4,3.2-4.72,7.56-8.45,12-11.96,.47-.37-.12-1.08-.59-.71-3.62,2.86-7.16,5.85-10.11,9.42-3.22,3.89-5.29,8.54-8.47,12.47-3.23,3.99-7.23,7.41-11.97,9.45-2.22,.95-4.59,1.61-7,1.83-2.65,.24-5.28-.2-7.93-.19l.14,.84c8.07-4.59,11.92-13.6,19.42-18.84,2.08-1.46,4.41-2.27,6.72-3.27,2.22-.96,4.34-2.11,6.44-3.31,4.24-2.43,8.48-4.85,12.68-7.35,.42-.25,.12-.95-.32-.71h0Z"/><path class="cls-1" d="M394.07,94.67c.76-.63,1.56-1.22,2.39-1.75,1.5-.96,3.15-1.64,4.74-2.29,.61-.25,1.23-.51,1.85-.78,2.26-1,4.41-2.2,6.4-3.35,2.29-1.33,4.64-2.65,6.91-3.94,1.78-1.01,3.55-2.01,5.32-3.03,.17-.14,.34-.27,.51-.4,.17-.13,.38-.17,.57-.09,.21,.08,.37,.28,.4,.5,.03,.2-.05,.38-.22,.51-4.05,3.2-8.65,7.02-11.97,11.93-.81,1.19-1.58,2.42-2.33,3.6-1.9,3.01-3.87,6.12-6.46,8.82-3.61,3.76-7.84,6.51-12.24,7.94-3.49,1.13-6.73,1.04-10.16,.94-.93-.03-1.9-.05-2.88-.06l-.07,.04v-.04s-.08,0-.12,0c-.25,0-.43-.14-.5-.37-.07-.27,.05-.59,.29-.73,4.26-2.43,7.4-6.21,10.43-9.86,2.19-2.65,4.45-5.36,7.14-7.59Zm26.29-14.08c-1.29,.73-2.58,1.46-3.87,2.19-2.27,1.28-4.61,2.61-6.9,3.94-2,1.15-4.16,2.36-6.43,3.37-.62,.27-1.25,.53-1.85,.78-1.58,.65-3.21,1.32-4.69,2.27-3.78,2.42-6.67,5.91-9.47,9.29-2.93,3.54-5.95,7.19-10.01,9.64,.36,0,.72,.02,1.08,.03,3.65-2.44,6.47-5.82,9.21-9.11,2.65-3.18,5.38-6.46,8.86-8.89,1.68-1.17,3.56-1.95,5.37-2.7,.46-.19,.92-.38,1.38-.58,2.34-1.01,4.56-2.24,6.42-3.31l1.54-.89c2.3-1.32,4.64-2.66,6.98-4.02,.79-.69,1.59-1.36,2.39-2.01Zm-3.39,2.9c-1.96,1.14-3.92,2.26-5.84,3.36l-1.54,.89c-1.87,1.07-4.1,2.31-6.45,3.32-.46,.2-.92,.39-1.38,.58-1.88,.78-3.66,1.52-5.32,2.67-3.45,2.41-6.17,5.68-8.81,8.85-2.67,3.21-5.43,6.52-8.97,8.96,.43,.02,.86,.05,1.28,.08,1.57,.1,3.19,.21,4.78,.06,2.3-.21,4.64-.82,6.96-1.82,4.38-1.88,8.39-5.05,11.92-9.41,1.55-1.92,2.86-4.04,4.13-6.1,1.33-2.15,2.7-4.38,4.35-6.37,1.51-1.82,3.18-3.5,4.91-5.06Zm-40.29,28.84s-.03,.02-.04,.02c-.15,.08-.2,.29-.16,.42,.03,.11,.11,.17,.24,.17,.02,0,.05,0,.07,0l-.1-.62Zm1.14,.02c-.29-.01-.58-.02-.87-.02l.08,.5c.27-.15,.53-.31,.79-.48Zm.46,.02c-.3,.2-.61,.39-.92,.58,.83,0,1.64,.03,2.43,.05,3.41,.1,6.63,.19,10.07-.93,4.35-1.42,8.54-4.14,12.12-7.87,2.57-2.68,4.45-5.64,6.43-8.77,.75-1.19,1.53-2.41,2.34-3.61,3.01-4.44,7.04-7.99,10.78-11-1.13,.67-2.27,1.33-3.4,2-2.07,1.8-4.07,3.75-5.86,5.91-1.64,1.98-3,4.19-4.32,6.34-1.27,2.06-2.59,4.2-4.15,6.13-3.56,4.4-7.61,7.59-12.03,9.49-2.34,1.01-4.71,1.62-7.04,1.84-1.62,.15-3.25,.04-4.82-.06-.54-.03-1.08-.07-1.63-.1Zm43.55-32.62c-.85,.68-1.71,1.38-2.57,2.1,.96-.56,1.92-1.12,2.87-1.69,.17-.1,.15-.3,.09-.4-.04-.06-.12-.16-.27-.07h0s-.08,.04-.11,.07Zm.95,.08c.09-.07,.12-.16,.11-.26-.02-.12-.11-.24-.23-.29-.07-.03-.18-.04-.31,.05-.04,.03-.08,.06-.11,.09,.08,.04,.16,.11,.21,.2,.07,.12,.1,.27,.07,.42,.09-.07,.17-.14,.26-.2,0,0,0,0,0,0Z"/></g><g><path class="cls-1" d="M386.96,84.81c8.57-8.68,19.77-13.26,30.13-19.31,8.95-5.23,17.81-12.09,23.68-20.75,.33-.49-.38-.99-.75-.53-7.12,8.86-15.47,16.08-25.44,21.6-9.84,5.45-20.17,10.19-28.11,18.39-.34,.35,.14,.95,.49,.6h0Z"/><path class="cls-1" d="M390.54,80.28c5.77-4.77,12.41-8.33,18.87-11.81,1.68-.9,3.41-1.83,5.1-2.77,9.78-5.42,18.09-12.48,25.4-21.57,.24-.3,.6-.28,.84-.11,.22,.16,.35,.48,.13,.8-5.16,7.62-13.14,14.61-23.72,20.79-2.68,1.57-5.46,3.06-8.15,4.5-7.68,4.11-15.62,8.37-21.95,14.79h0c-.19,.2-.46,.2-.66,0-.2-.19-.26-.54-.02-.79,1.32-1.37,2.72-2.64,4.17-3.84Zm36.92-23.06c-3.98,3.29-8.24,6.18-12.81,8.72-1.69,.94-3.42,1.87-5.1,2.77-8.07,4.33-16.42,8.82-22.98,15.6-.14,.15-.06,.33,.02,.41,.05,.05,.16,.12,.28,0h0c6.37-6.45,14.32-10.71,22.02-14.84,2.69-1.44,5.46-2.93,8.14-4.49,10.55-6.16,18.5-13.13,23.64-20.71,.13-.19,.04-.35-.07-.43-.13-.09-.33-.12-.47,.06-3.91,4.86-8.11,9.15-12.66,12.91Z"/></g><g><path class="cls-1" d="M412.44,50.58c-.12-.23-.22-.46-.29-.71,0,0,0,0,0,0-.03-.02-.04-.05-.06-.08-.02-.03-.03-.06-.04-.1-6.25,3.49-12.28,7.31-17.34,12.53-.34,.35,.14,.95,.49,.6,5.07-5.13,11.06-8.83,17.25-12.25Z"/><path class="cls-1" d="M398.77,58.3c4.31-3.56,8.99-6.37,13.2-8.72l.12-.07,.08,.17s.01,.03,.02,.04h.01s.03,.05,.03,.05l.02,.03v.03c.06,.21,.15,.43,.29,.68l.06,.12-.11,.06c-5.87,3.24-12.02,6.97-17.22,12.22-.19,.2-.46,.2-.66,0-.2-.19-.26-.54-.02-.79,1.33-1.37,2.73-2.65,4.17-3.84Zm13.21-8.41c-5.57,3.12-11.95,7.03-17.19,12.44-.14,.15-.07,.33,.02,.41,.05,.05,.16,.12,.28,0,5.18-5.25,11.31-8.97,17.16-12.21-.1-.21-.18-.4-.23-.58-.01-.01-.03-.03-.05-.06Z"/></g><g><path class="cls-1" d="M342.92,123.56c2.69-3.51,2.62-8.59,3.08-12.8,.53-4.91,.89-9.86,.58-14.79-.64-10.24-6.03-20.62-1.68-30.68,.18-.42-.46-.63-.66-.24-4.34,8.55-.2,18.14,1.06,26.89,.74,5.1,.6,10.27,.15,15.38-.22,2.52-.52,5.03-.83,7.54-.36,2.87-.63,5.81-2.35,8.24-.3,.42,.34,.86,.65,.45h0Z"/><path class="cls-1" d="M344.26,64.83c.16-.13,.38-.15,.55-.07,.23,.11,.32,.35,.21,.58-2.9,6.72-1.41,13.72,.04,20.49,.71,3.32,1.44,6.76,1.65,10.13,.33,5.34-.14,10.72-.58,14.81-.08,.72-.14,1.45-.21,2.23-.3,3.61-.65,7.7-2.9,10.64h0c-.21,.27-.53,.26-.75,.1-.2-.15-.31-.44-.12-.71,1.6-2.26,1.94-5.01,2.26-7.67l.06-.51c.28-2.27,.6-4.9,.83-7.54,.54-6.08,.49-10.96-.15-15.35-.31-2.14-.8-4.39-1.28-6.56-1.51-6.84-3.06-13.92,.23-20.41,.03-.07,.08-.12,.13-.16Zm-1.44,58.66c2.2-2.87,2.53-6.75,2.84-10.49,.07-.78,.13-1.51,.21-2.24,.44-4.08,.91-9.45,.58-14.77-.21-3.35-.94-6.77-1.65-10.09-1.45-6.81-2.96-13.85-.02-20.65,.06-.14-.03-.21-.08-.24-.09-.04-.25-.05-.33,.11-3.25,6.41-1.7,13.44-.21,20.23,.48,2.17,.97,4.42,1.29,6.58,.64,4.41,.69,9.31,.15,15.42-.23,2.64-.55,5.28-.83,7.55l-.06,.51c-.33,2.69-.67,5.48-2.31,7.8-.13,.19,.03,.32,.06,.34,.08,.06,.25,.12,.37-.05h0Z"/></g><g><path class="cls-1" d="M345.39,115.54c2.02-4.36,4.46-8.73,5.71-13.39,1.06-3.93,.71-7.81-.5-11.66-2.57-8.13-8.95-16.82-5-25.57,.21-.47-.47-.77-.77-.4-2.46,3.12-3.44,6.89-4.15,10.73-.81,4.35-1.65,8.82-1.27,13.26,.19,2.26,.76,4.47,1.11,6.71s.26,4.7,.69,7.01c.81,4.36,3.3,8.21,3.49,12.71,.02,.56,.88,.41,.85-.14-.18-4.13-2.26-7.66-3.25-11.6-.54-2.15-.5-4.34-.72-6.53-.21-1.99-.67-3.94-1-5.91-.74-4.42-.18-8.74,.57-13.11,.76-4.45,1.54-8.97,4.41-12.62l-.77-.4c-3.34,7.39,.55,15.07,3.4,21.91,1.99,4.79,3.48,9.75,2.2,14.94-1.19,4.79-3.7,9.33-5.71,13.81-.2,.46,.52,.71,.73,.27h0Z"/><path class="cls-1" d="M344.81,64.34c.21-.17,.5-.16,.7-.04,.24,.14,.32,.4,.21,.65h.03s-.07,.11-.07,.11c-2.84,6.42-.1,12.82,2.55,19.01,.94,2.2,1.83,4.28,2.5,6.38,1.33,4.21,1.49,8.05,.51,11.74-.96,3.57-2.63,7.01-4.24,10.33-.49,1.01-1,2.06-1.48,3.08-.15,.32-.49,.37-.73,.26-.26-.12-.36-.38-.24-.64,.02-.04,.04-.08,.05-.12-.02-.05-.03-.11-.03-.17-.11-2.57-.99-4.98-1.85-7.3-.64-1.73-1.29-3.53-1.64-5.39-.23-1.24-.31-2.52-.39-3.76-.07-1.07-.14-2.18-.3-3.25-.13-.83-.29-1.67-.45-2.48-.27-1.38-.54-2.81-.66-4.24-.37-4.42,.46-8.88,1.26-13.19l.02-.1c.69-3.71,1.67-7.58,4.15-10.76l.02-.04h0s0,0,0,0c.03-.03,.06-.06,.09-.09Zm.68,.49c.06-.17-.06-.26-.11-.3-.12-.07-.29-.08-.41,.03l.52,.27Zm-.15,.23l-.5-.26c-.31,.71-.56,1.43-.75,2.16,.36-.65,.78-1.29,1.24-1.9Zm-1.72,2.82c.14-.78,.36-1.57,.64-2.35-1.97,2.95-2.83,6.41-3.45,9.74l-.02,.1c-.8,4.29-1.62,8.73-1.25,13.12,.12,1.42,.39,2.84,.66,4.21,.16,.81,.32,1.66,.45,2.49,.17,1.09,.24,2.2,.31,3.28,.08,1.23,.16,2.5,.38,3.73,.34,1.84,.99,3.62,1.63,5.34,.83,2.26,1.68,4.59,1.85,7.08,.16-.35,.33-.71,.49-1.06-.28-2.13-1.02-4.13-1.74-6.09-.51-1.37-1.03-2.79-1.39-4.25-.37-1.49-.47-3.01-.57-4.48-.04-.68-.09-1.38-.16-2.07-.13-1.3-.39-2.61-.63-3.88-.13-.66-.26-1.35-.37-2.03-.77-4.59-.11-9.2,.57-13.16,.57-3.31,1.15-6.7,2.61-9.73Zm2.06,46.74c.35-.74,.72-1.49,1.07-2.22,1.61-3.31,3.27-6.73,4.23-10.28,.98-3.64,.81-7.43-.5-11.59-.66-2.08-1.55-4.16-2.49-6.35-2.54-5.93-5.16-12.05-2.94-18.25-.44,.65-.83,1.33-1.17,2.03-1.03,5.67,1.43,11.47,3.65,16.68,.26,.62,.52,1.23,.77,1.83,1.93,4.64,3.53,9.67,2.2,15.03-.9,3.64-2.57,7.15-4.18,10.55-.24,.51-.49,1.04-.74,1.56,.04,.34,.07,.67,.09,1.02Zm-.16-1.5c.19-.4,.38-.8,.57-1.19,1.61-3.39,3.27-6.89,4.17-10.5,1.31-5.28-.28-10.26-2.19-14.86-.25-.6-.51-1.21-.77-1.83-2.11-4.96-4.44-10.45-3.81-15.89-1.17,2.78-1.69,5.82-2.2,8.8-.71,4.11-1.33,8.51-.57,13.07,.11,.67,.24,1.36,.37,2.02,.24,1.27,.5,2.59,.63,3.9,.07,.69,.12,1.4,.16,2.08,.09,1.46,.19,2.97,.56,4.43,.36,1.45,.88,2.86,1.39,4.23,.68,1.84,1.37,3.74,1.69,5.74Zm-.21,1.94c.07-.06,.12-.15,.12-.26-.01-.24-.03-.49-.05-.73-.16,.34-.32,.68-.47,1.02,.06,.05,.14,.06,.18,.06,.07,0,.16-.03,.23-.09Zm.03,.3c-.08,.03-.16,.05-.24,.06-.12,0-.22-.02-.3-.08-.07,.17,.07,.25,.11,.27,.1,.05,.29,.05,.37-.13h0s.04-.09,.06-.13Z"/></g><g><path class="cls-1" d="M393.68,78.91c3.5-3.77,5.24-8.74,9.53-11.82,4.66-3.35,10.33-4.9,15.57-7.1,4.46-1.88,8.8-4.08,12.78-6.85,2.24-1.55,4.32-3.29,6.3-5.17,1.13-1.07,2.54-2.07,3.04-3.6,.16-.48-.5-.86-.81-.42-6.06,8.75-11.74,18.77-20.52,25.1-4.4,3.17-9.07,4.63-14.4,5.27-4.79,.58-9.07,2.18-13.09,4.86-.51,.34,.1,1.08,.61,.74,2.49-1.66,5.17-3.01,8.06-3.82,2.62-.73,5.33-.83,8-1.29,4.42-.77,8.51-2.81,12.07-5.51,8.48-6.43,14.06-16.2,20.03-24.82l-.81-.42c-.64,1.95-3.5,3.97-5.02,5.26-1.92,1.64-3.96,3.13-6.1,4.47-4.45,2.81-9.27,4.95-14.17,6.85-4.54,1.76-9.33,3.41-13.11,6.59-3.68,3.09-5.35,7.65-8.49,11.19-.27,.3,.25,.78,.52,.48h0Z"/><path class="cls-1" d="M401.68,67.03c3.4-2.81,7.61-4.43,11.68-5.99,.45-.17,.9-.34,1.34-.52,5.93-2.3,10.29-4.41,14.15-6.84,2.18-1.37,4.22-2.87,6.08-4.46,.27-.23,.58-.48,.91-.75,.79-.64,1.72-1.4,2.51-2.21,.52-.78,1.05-1.56,1.58-2.32l.03-.08h.02s0,.01,0,0c.2-.28,.51-.3,.73-.19,.23,.11,.42,.39,.31,.73,0,0,0,0,0,0h.02s-.04,.06-.04,.06c-.29,.82-.82,1.48-1.42,2.08-.63,.94-1.26,1.88-1.88,2.81-4.84,7.26-9.85,14.77-16.8,20.04-3.89,2.94-7.97,4.81-12.13,5.54-.98,.17-1.99,.3-2.96,.42-1.66,.2-3.37,.42-5.02,.87-2.68,.75-5.3,1.99-8.02,3.8-.19,.13-.43,.15-.64,.04-.21-.11-.36-.31-.37-.53-.01-.19,.08-.36,.25-.47,.32-.21,.64-.42,.97-.62,.02-.04,.04-.08,.08-.12,1.3-1.47,2.37-3.15,3.4-4.77,1.45-2.27,2.94-4.62,5.1-6.44,.04-.03,.08-.07,.12-.1Zm32.82-17.1c-1.7,1.41-3.55,2.74-5.51,3.97-3.87,2.44-8.24,4.56-14.19,6.86-.45,.17-.89,.35-1.34,.52-4.05,1.55-8.23,3.16-11.61,5.95-.04,.03-.08,.07-.12,.1-2.13,1.79-3.61,4.12-5.05,6.37-.93,1.46-1.89,2.97-3.03,4.34,.36-.21,.73-.42,1.1-.61,.9-1.14,1.7-2.36,2.47-3.55,1.63-2.49,3.32-5.06,5.9-6.92,3.41-2.45,7.4-3.96,11.26-5.42,1.43-.54,2.91-1.1,4.33-1.7,4.98-2.09,9.15-4.33,12.76-6.83,1.7-1.18,3.35-2.49,5.01-3.98,.07-.11,.15-.22,.22-.33,.32-.47,.63-.95,.95-1.43-.56,.5-1.14,.98-1.66,1.39-.33,.27-.64,.52-.9,.74-.2,.17-.4,.34-.61,.51Zm.45,.8c-1.1,.91-2.2,1.74-3.32,2.52-3.62,2.52-7.81,4.76-12.81,6.86-1.42,.6-2.91,1.16-4.34,1.7-3.85,1.45-7.82,2.95-11.2,5.39-2.54,1.83-4.21,4.38-5.84,6.85-.68,1.04-1.37,2.09-2.14,3.11,3.08-1.55,6.33-2.53,9.85-2.95,5.87-.71,10.3-2.33,14.34-5.25,6.78-4.9,11.72-12.01,16.42-19.04-.32,.28-.64,.55-.96,.81Zm-41.98,28.05c-.27,.17-.55,.35-.82,.53-.09,.06-.14,.14-.13,.23,0,.12,.1,.24,.23,.31,.07,.04,.21,.08,.37-.02,2.74-1.83,5.39-3.08,8.1-3.84,1.67-.46,3.39-.68,5.06-.88,.97-.12,1.97-.24,2.95-.41,4.12-.72,8.16-2.57,12.01-5.49,6.91-5.24,11.91-12.73,16.74-19.97,.41-.61,.82-1.23,1.24-1.86-.03,.03-.06,.06-.09,.08-.23,.21-.46,.41-.68,.62-.42,.4-.83,.78-1.25,1.15-4.88,7.31-9.95,14.83-17.04,19.94-4.08,2.94-8.54,4.58-14.46,5.3-3.68,.45-7.06,1.49-10.26,3.19-.36,.46-.75,.92-1.15,1.35-.19,.21-.47,.15-.65,0-.07-.06-.12-.14-.15-.22Zm1.34-.79c-.37,.21-.73,.42-1.1,.64,0,.07,.05,.13,.09,.17,.02,.01,.17,.14,.27,.02l.1,.09-.1-.09c.25-.27,.5-.55,.73-.83Zm46.47-33.69c.04-.17-.06-.3-.19-.37-.11-.05-.26-.06-.37,.07l.56,.29Zm-.13,.23l-.54-.28c-.28,.74-.86,1.48-1.55,2.18-.42,.62-.83,1.24-1.24,1.86,.15-.14,.3-.28,.44-.42,.22-.21,.45-.41,.68-.62,.31-.28,.63-.56,.93-.86,.42-.63,.85-1.25,1.27-1.87Z"/></g><g><path class="cls-1" d="M395.62,61.63c4.18-11.22,11.09-22.14,20.09-30.15,8.36-7.44,18.37-13.31,28.25-18.46,6.47-3.37,13.13-6.24,19.94-8.84,.46-.18,.14-.84-.31-.69-12.32,4.02-24.11,10.47-34.98,17.45-4.41,2.83-8.76,5.84-12.74,9.26-4.12,3.55-7.67,7.84-10.87,12.22-4.26,5.82-7.59,12.18-10.07,18.95-.16,.44,.53,.7,.69,.25h0Z"/><path class="cls-1" d="M417.01,29.08c3.14-2.6,6.77-5.18,11.53-8.25,12.86-8.26,24.31-13.98,35.01-17.46,.31-.1,.59,.09,.68,.34,.09,.25-.03,.5-.28,.6-7.5,2.86-14.01,5.75-19.93,8.83-8.44,4.4-19.27,10.46-28.23,18.44-8.53,7.59-15.65,18.28-20.05,30.09h0c-.11,.3-.41,.37-.64,.29-.23-.09-.41-.33-.3-.63,2.54-6.92,5.93-13.3,10.09-18.98,3.86-5.28,7.33-9.17,10.9-12.24,.4-.34,.81-.69,1.22-1.03Zm46.92-25.06c.09-.07,.06-.17,.05-.22-.04-.13-.18-.23-.34-.18-10.68,3.48-22.11,9.18-34.95,17.44-5.38,3.46-9.3,6.31-12.72,9.25-3.55,3.06-7,6.93-10.85,12.19-4.14,5.66-7.53,12.02-10.06,18.92-.06,.15,.04,.25,.14,.29,.1,.04,.24,.03,.3-.13h0c4.42-11.86,11.56-22.58,20.12-30.2,8.99-7.99,19.83-14.07,28.28-18.48,5.92-3.08,12.45-5.98,19.95-8.85,.03-.01,.06-.03,.08-.04Z"/></g><g><path class="cls-1" d="M397,53.16c-.82-5.03-2.89-9.86-3.18-14.97-.23-4.09,.56-8.27,1.3-12.26,1.55-8.33,4.24-16.8,4.41-25.32,.01-.56-.81-.65-.87-.08-.36,3.55,.38,7.18,1.09,10.64,.93,4.54,2.11,9.02,3.03,13.55,.87,4.33,1.54,8.43-.02,12.69-.87,2.38-1.89,4.71-2.81,7.06-.99,2.56-2.5,4.88-3.43,7.46-.19,.53,.64,.84,.83,.3,.93-2.59,2.43-4.91,3.43-7.46s2.06-4.91,2.94-7.41c1.3-3.7,.96-7.25,.27-11.03-.82-4.51-1.99-8.96-2.97-13.43-.87-3.97-1.9-8.21-1.48-12.3l-.87-.08c-.18,8.74-2.98,17.41-4.53,25.96-.68,3.73-1.34,7.58-1.19,11.39,.21,5.27,2.43,10.24,3.31,15.41,.08,.48,.82,.36,.75-.12h0Z"/><path class="cls-1" d="M398.72,.12c.11-.09,.26-.13,.39-.12,.25,.02,.5,.18,.55,.47h.02s-.01,.13-.01,.13c-.01,.71-.05,1.42-.09,2.13,.03,3.11,.72,6.27,1.4,9.34l.17,.79c.34,1.57,.72,3.16,1.08,4.69,.67,2.86,1.36,5.81,1.89,8.75,.74,4.08,.98,7.53-.28,11.1-.56,1.6-1.22,3.21-1.87,4.77-.36,.87-.73,1.76-1.07,2.64-.47,1.2-1.06,2.37-1.63,3.49-.64,1.28-1.31,2.6-1.8,3.97-.07,.19-.22,.33-.41,.36,0,0,0,0-.01,0,.03,.17,.06,.33,.09,.5h0c.05,.32-.17,.53-.42,.57-.25,.04-.53-.08-.59-.41-.35-2.05-.92-4.11-1.48-6.1-.84-3.02-1.71-6.14-1.83-9.32-.16-3.97,.59-8.1,1.2-11.42,.49-2.71,1.12-5.47,1.72-8.15,1.16-5.13,2.36-10.41,2.71-15.68,0-.71,.02-1.42,.09-2.12v-.14s.03,0,.03,0c.03-.11,.09-.19,.16-.25Zm.65,.32c-.05-.11-.17-.17-.28-.18-.1,0-.2,.03-.26,.13l.54,.05Zm.02,.27l-.59-.06c-.02,.66-.05,1.31-.09,1.97,.01,1.15,.11,2.31,.27,3.45,.14-1.12,.26-2.24,.33-3.35,0-.67,.02-1.34,.08-2.01Zm-.55,6.33c-.13-.81-.23-1.62-.3-2.44-.48,4.63-1.53,9.25-2.55,13.75-.61,2.67-1.23,5.44-1.72,8.14-.6,3.31-1.35,7.42-1.19,11.36,.13,3.16,.99,6.26,1.82,9.26,.56,2,1.13,4.06,1.48,6.13,.03,.17,.17,.21,.28,.19,.11-.02,.23-.1,.2-.27h0c-.03-.19-.06-.38-.1-.57-.11-.04-.22-.1-.29-.19-.13-.15-.16-.35-.09-.55,.05-.14,.1-.27,.15-.41-.32-1.5-.72-2.98-1.11-4.44-.77-2.86-1.57-5.82-1.74-8.84-.23-4.04,.53-8.14,1.27-12.1l.04-.19c.47-2.55,1.07-5.16,1.64-7.69,.83-3.66,1.68-7.4,2.22-11.16Zm-1.71,45.27s.07-.07,.09-.13c.5-1.38,1.17-2.71,1.82-4,.57-1.12,1.15-2.28,1.62-3.47,.35-.88,.72-1.78,1.07-2.65,.64-1.55,1.3-3.15,1.86-4.75,1.23-3.52,1-6.93,.27-10.97-.53-2.93-1.22-5.88-1.89-8.73-.36-1.54-.73-3.13-1.08-4.7l-.17-.79c-.54-2.44-1.09-4.93-1.31-7.43-.08,.78-.18,1.56-.29,2.34,.22,1.4,.5,2.78,.77,4.08,.45,2.21,.97,4.44,1.48,6.59,.53,2.28,1.08,4.63,1.55,6.96,.9,4.47,1.53,8.52-.02,12.76-.52,1.41-1.1,2.83-1.66,4.19-.39,.94-.78,1.91-1.16,2.87-.47,1.21-1.07,2.39-1.64,3.53-.56,1.12-1.14,2.26-1.61,3.45,.06,.29,.12,.59,.18,.88,0,0,0,0,.01,0,.04,0,.08-.02,.12-.05Zm-.41-1.29c.44-1.07,.96-2.1,1.47-3.11,.57-1.13,1.16-2.3,1.63-3.51,.37-.96,.77-1.94,1.16-2.88,.56-1.37,1.14-2.78,1.65-4.18,1.53-4.17,.91-8.18,.01-12.62-.47-2.33-1.02-4.68-1.55-6.95-.5-2.16-1.02-4.39-1.48-6.6-.22-1.05-.44-2.15-.64-3.28-.54,3.49-1.33,6.96-2.1,10.36-.57,2.52-1.16,5.13-1.64,7.68l-.04,.19c-.73,3.95-1.49,8.03-1.26,12.04,.17,2.99,.97,5.94,1.74,8.79,.36,1.33,.73,2.69,1.03,4.06Zm-.01,1.25c-.02-.1-.04-.21-.06-.32,0,0,0,0,0,0-.05,.13,0,.23,.04,.28,0,0,.01,.02,.02,.02Z"/></g><g><path class="cls-1" d="M414.37,32.28c-.19-3.4,1.77-6.45,1.73-9.88-.03-2.45-.09-4.46,.85-6.76,.82-2.02,1.85-3.95,2.7-5.96,.21-.49-.53-.73-.76-.28-1.87,3.7-3.88,7.36-3.75,11.59,.07,2.44-.17,4.4-.86,6.74-.46,1.56-.8,3.05-.69,4.68,.03,.51,.81,.38,.78-.13h0Z"/><path class="cls-1" d="M418.92,9.16c.18-.15,.43-.16,.62-.07,.22,.1,.37,.34,.24,.65-.4,.94-.84,1.88-1.27,2.78-.49,1.03-.99,2.1-1.43,3.17-.89,2.19-.87,4.16-.84,6.44v.27c.02,1.68-.44,3.28-.88,4.83-.47,1.63-.95,3.31-.85,5.04h0c.02,.35-.26,.57-.54,.59-.28,.02-.49-.17-.51-.45-.11-1.61,.2-3.06,.7-4.73,.68-2.31,.93-4.25,.86-6.69-.12-4.01,1.68-7.56,3.43-10.99l.34-.66c.04-.08,.09-.14,.15-.18Zm-4.68,23.13c-.1-1.78,.39-3.48,.86-5.13,.44-1.53,.89-3.11,.87-4.75v-.27c-.03-2.31-.05-4.3,.86-6.54,.44-1.08,.95-2.15,1.44-3.19,.43-.9,.87-1.84,1.27-2.77,.08-.19-.05-.28-.11-.3-.13-.06-.32-.04-.41,.14l-.34,.67c-1.73,3.4-3.52,6.91-3.4,10.86,.08,2.48-.18,4.44-.87,6.78-.49,1.64-.79,3.06-.68,4.63,.01,.19,.16,.2,.22,.2,.12,0,.3-.1,.29-.31h0Z"/></g><g><path class="cls-1" d="M415.84,18.96c.99-1.76,0-3.7-.11-5.58-.22-3.43,.98-8.79,5.07-9.32,3.28-.42,4.94,2.6,3.24,5.33-.96,1.53-2.11,3.11-3.41,4.37-1.98,1.92-4.28,2.84-5.42,5.52-.17,.4,.46,.74,.68,.36,1.37-2.4,3.39-3.36,5.3-5.21,1.44-1.4,2.72-3.1,3.75-4.82,1.4-2.33,.73-5.32-2-6.3-3.05-1.09-5.71,1.19-6.97,3.8-.78,1.62-1.14,3.44-1.13,5.24s1.31,4.54,.43,6.2c-.21,.4,.36,.82,.59,.41h0Z"/><path class="cls-1" d="M418.02,4.18c1.36-1.13,3.08-1.66,4.94-1,1.23,.44,2.14,1.32,2.55,2.48,.46,1.28,.28,2.74-.48,4.02-1.11,1.86-2.42,3.53-3.77,4.85-.64,.62-1.29,1.14-1.93,1.65-1.26,1-2.45,1.95-3.35,3.53-.13,.23-.4,.3-.65,.18-.22-.11-.39-.37-.27-.65,.03-.07,.06-.14,.09-.21-.11-.15-.14-.35-.04-.55,.54-1.02,.22-2.46-.09-3.87-.18-.82-.35-1.59-.35-2.27,0-1.89,.39-3.72,1.14-5.29,.53-1.09,1.28-2.11,2.19-2.87Zm1.93,11.15c.38-.31,.75-.64,1.12-1,1.34-1.3,2.63-2.96,3.73-4.8,.72-1.21,.89-2.59,.46-3.79-.39-1.08-1.24-1.9-2.39-2.32-2.95-1.06-5.54,1.11-6.8,3.73-.74,1.54-1.13,3.33-1.12,5.18,0,.65,.17,1.41,.35,2.22,.32,1.45,.65,2.95,.06,4.05-.01,.03-.02,.05-.03,.07,.23-.44,.5-.83,.79-1.18,.06-.76-.1-1.55-.27-2.37-.12-.57-.24-1.16-.27-1.74-.23-3.51,.96-8.92,5.19-9.46,1.52-.19,2.85,.35,3.56,1.45,.74,1.15,.67,2.72-.19,4.09-1.12,1.79-2.27,3.27-3.44,4.4-.64,.62-1.31,1.14-1.96,1.64-.86,.66-1.68,1.29-2.37,2.11-.05,.48-.17,.95-.43,1.41h0c-.12,.22-.36,.29-.57,.19-.02,.04-.04,.09-.06,.13-.06,.13,.03,.25,.14,.3,.03,.02,.21,.09,.3-.07,.93-1.62,2.13-2.59,3.41-3.61,.26-.21,.52-.41,.78-.63Zm-.31-.89c.3-.25,.59-.5,.88-.78,1.14-1.11,2.29-2.57,3.39-4.35,.8-1.28,.87-2.74,.19-3.8-.66-1.03-1.86-1.51-3.3-1.33-4.01,.51-5.17,5.9-4.96,9.17,.04,.56,.15,1.14,.27,1.71,.14,.69,.28,1.4,.28,2.1,.65-.71,1.41-1.29,2.18-1.89,.35-.27,.7-.54,1.06-.83Zm-3.93,4.44c.16-.28,.26-.56,.33-.84-.2,.28-.39,.59-.55,.92,.07,.03,.16,.04,.23-.08h0Z"/></g><g><path class="cls-1" d="M419.73,28.19c3.82-8.56,12.27-15.33,21.08-18.17,8.44-2.72,17.78-2.93,25.74-7.08,.55-.29,.16-1.18-.4-.89-9.01,4.61-17.8,9.74-25.62,16.22-3.78,3.13-7.42,7.14-12.39,8.29-3.35,.77-7.2-.24-10.13,1.95-.48,.36,.12,1.09,.6,.72,3.1-2.32,7.76-.95,11.3-2.21,4.11-1.46,7.26-4.68,10.53-7.44,7.92-6.69,16.9-11.94,26.1-16.64l-.4-.89c-8.63,4.49-18.83,4.4-27.84,7.88-8.15,3.15-15.81,9.91-19.29,18-.19,.45,.51,.7,.71,.26h0Z"/><path class="cls-1" d="M428.3,15.67c2.97-2.46,6.36-4.48,9.95-5.87,3.95-1.53,8.2-2.38,12.31-3.21,5.15-1.04,10.47-2.1,15.24-4.52,.1-.05,.19-.1,.29-.15l.13-.07h0c.3-.07,.54,.1,.65,.32,.13,.25,.12,.61-.15,.8h0s-.11,.07-.11,.07h0c-.11,.06-.23,.12-.34,.18-11.01,5.65-18.95,10.73-25.73,16.45-.58,.49-1.16,1-1.74,1.51-2.67,2.33-5.43,4.75-8.83,5.96-1.49,.53-3.2,.6-4.85,.67-2.28,.09-4.64,.19-6.41,1.52-.32,.24-.68,.11-.87-.14-.17-.22-.21-.57,.11-.8,.32-.24,.66-.45,1-.62,1.96-4.52,5.27-8.73,9.37-12.11Zm34.19-11.86c-3.84,1.43-7.91,2.25-11.87,3.05-4.09,.82-8.33,1.67-12.26,3.19-8.37,3.23-15.63,9.94-19.05,17.56,.22-.09,.44-.17,.66-.25,3.82-7.9,11.71-14.55,20.8-17.47,3.29-1.06,6.78-1.75,10.15-2.42,2.75-.55,5.54-1.1,8.28-1.86,1.07-.6,2.17-1.19,3.3-1.8Zm-4.25,2.33c-2.41,.63-4.86,1.11-7.28,1.59-3.36,.67-6.84,1.36-10.12,2.41-8.94,2.88-16.71,9.38-20.54,17.12,1.32-.36,2.73-.42,4.11-.47,1.23-.05,2.51-.09,3.7-.37,3.94-.91,7.06-3.65,10.07-6.31,.74-.65,1.51-1.33,2.26-1.95,5.03-4.17,10.71-8.02,17.8-12.02Zm-39.38,21.98c-.26,.14-.51,.3-.76,.49-.23,.18-.08,.38-.05,.43,.1,.14,.3,.23,.49,.08,.3-.23,.62-.42,.96-.59-.12,.02-.24,0-.34-.04-.17-.08-.28-.21-.29-.38Zm.95-.42c-.22,.08-.44,.17-.66,.27-.08,.18,.07,.26,.11,.28,.1,.04,.27,.05,.35-.13,.06-.14,.13-.28,.19-.43Zm16.18-5.33c-2.33,1.93-4.83,3.63-7.8,4.31-1.21,.28-2.5,.33-3.75,.37-1.44,.05-2.91,.11-4.28,.53-.1,.22-.2,.43-.3,.65h0c-.04,.08-.09,.14-.15,.2,1.63-.73,3.54-.81,5.39-.89,1.63-.07,3.32-.14,4.77-.65,3.35-1.19,6.09-3.59,8.74-5.91,.58-.51,1.16-1.02,1.75-1.51,6.11-5.16,13.15-9.79,22.52-14.78-1.18,.44-2.38,.82-3.59,1.16-7.46,4.16-13.36,8.12-18.58,12.44l-.09,.08c-.75,.62-1.52,1.3-2.26,1.95-.78,.69-1.57,1.39-2.38,2.06Zm29.94-20.06c-1.95,1-3.8,1.98-5.56,2.95,1.98-.6,3.93-1.34,5.78-2.27,.08-.04,.15-.08,.23-.12l-.29-.64c-.05,.03-.11,.06-.16,.08Zm.68,.41c.11-.13,.09-.31,.03-.42-.06-.11-.16-.2-.3-.18l.27,.6Z"/></g><g><path class="cls-1" d="M364.95,58.56c.05,.05,.11,.11,.17,.16,.26,.22,.66,.56,.33,1.15-.4,.73-1.08,.44-1.41,.31-.03-.03-.13-.02-.21-.02-.14,0-.3,0-.44-.09-.1-.06-.21-.15-.31-.23-.33-.27-.44-.32-.63-.17-.31,.25-.25,.59-.1,1.12,.02,.07,.04,.14,.06,.21,.32,1.28,1.59,2.12,3.14,2.09,1.13-.02,2.18,.52,2.81,1.44,.57,.84,.71,1.89,.4,2.86,.31,.1,.62,.2,.93,.3,1.09-1.82,2.57-2.41,4.93-1.94,1.25,.25,2.52,.41,3.15-.55,.01-.02,.03-.04,.04-.06l-1.86-.09c-.44-.02-.88-.07-1.3-.11-.83-.09-1.7-.18-2.55-.09l-.57,.06,.36-.45c1.13-1.4,2.21-.83,3.15-.32,.34,.18,.66,.35,.99,.44l1.83,.5c.52-.73,1.2-1,1.85-1.27,.31-.13,.6-.25,.88-.41,1.68-1.01,3.16-2.47,4.53-4.45,.27-.4,.37-.86,.3-1.4-.03-.2-.05-.39-.08-.59-.13-.86-.26-1.75-.11-2.67,.04-.25,0-.45-.11-.6-.14-.19-.43-.32-.81-.37-1.56-.2-3.41-.39-5.24-.3-.6,.03-1,0-1.18-.82-.04-.17-.1-.35-.17-.54-.08-.21-.16-.43-.21-.66l-.02-.08c-.22-1.04-.41-1.66-1.49-1.52-.27,.04-.54-.14-.74-.26-1.98-1.27-2.84-.85-4.4,1.03-.09,.11-.17,.21-.27,.33l-.32,.39-.19-.17c-.49-.45-.72-1.01-.94-1.55-.15-.36-.29-.71-.5-1.01-.47-.66-.98-.85-1.56-.57-.6,.29-1.2,.38-1.79,.46-.21,.03-.42,.06-.63,.1-1.3,.24-2.49,1.17-3.11,2.42-.52,1.05-.56,2.18-.1,3.1,.93,1.86,2.11,3.51,3.5,4.92Zm3.95,5.31c-.57-1.27-1.58-1.37-2.75-1.5-1-.1-2.04-.21-2.8-1.12l-.34-.41,.53,.02c.32,.01,.62,.03,.92,.04,.78,.04,1.52,.08,2.25,.03,.7-.05,1.32,.16,1.8,.61,.55,.51,.85,1.31,.84,2.23v1.09s-.46-.99-.46-.99Zm1.98-.02l-.32,.5-.12-.57c-.02-.06-.04-.13-.03-.22,.01-.06,.04-.2,.14-.29-.4-1.53,.42-2.68,1.24-3.79h0s-.04-.42-.04-.42l.41,.23h.48s-.23,.71-.23,.71l-.12-.07c.02,1.1-.46,2.05-.92,2.96-.09,.19-.19,.37-.28,.56l.28,.85-.51-.47Zm7.38-9.08c.03-.56,.27-.85,.45-1,.26-.21,.61-.28,.99-.22,.84,.14,1.7,.16,2.53,.19,.34,0,.67,.02,1.01,.04h.05c.23,.01,.51,.02,.69,.23,.1,.12,.14,.27,.13,.46-.03,.35-.04,.71-.04,1.06-.02,1.22-.04,2.47-1.02,3.56-.58,.64-1.1,1.41-1.56,2.28-.59,1.12-1.61,1.78-2.67,1.72-.5-.03-1.01,.06-1.55,.15-.88,.15-1.78,.31-2.69-.03-.3-.11-.61-.28-.91-.52l-.21-.17,.19-.19c.19-.19,.37-.38,.55-.57,.4-.42,.81-.85,1.26-1.23,1.72-1.48,2.67-3.41,2.81-5.75Zm-6.32-4.91c.47-.54,.98-.83,1.47-.84,.43,0,.83,.2,1.19,.6,1.73,1.92,2.54,4.2,2.27,6.43-.26,2.18-1.52,4.09-3.64,5.53l-.41,.28,.04-.49c.06-.74,.28-1.41,.49-2.06,.15-.45,.29-.88,.38-1.32,.01-.07,.03-.14,.05-.21,.09-.33,.1-.45-.1-.59-.22-.15-.33-.09-.61,.16l-.11,.09c-1.41,1.17-2.47,2.46-3.23,3.95l-.41,.8-.04-.89c-.03-.72-.18-1.44-.33-2.13-.06-.3-.13-.6-.18-.9-.65-3.62,1.29-6.23,3.17-8.4Zm-8.72,.01c.83-1.14,2.32-1.73,4.19-1.68,.15,0,.32,.06,.47,.15,.54,.34,1.16,1.92,1.37,2.89,.14,.63,.13,1.06-.03,1.29-1.55,2.38-1.39,4.95-1.08,7.6l.09,.72-.5-.53c-.36-.39-.74-.76-1.12-1.14-1.49-1.49-3.03-3.03-3.75-5.11-.56-1.62-.44-3.11,.36-4.19Z"/><path class="cls-1" d="M362.65,48.93c.58-.48,1.26-.81,1.98-.95,.21-.04,.42-.07,.63-.1,.59-.08,1.18-.16,1.75-.45,.63-.31,1.21-.11,1.72,.61,.22,.32,.37,.66,.52,1.03,.21,.53,.44,1.07,.91,1.5l.08,.08,.23-.28c.09-.12,.18-.22,.27-.33,1.59-1.92,2.52-2.37,4.57-1.06,.18,.12,.43,.27,.65,.24,1.26-.17,1.45,.7,1.64,1.63l.02,.09c.05,.22,.13,.44,.2,.64,.07,.18,.14,.37,.18,.56,.16,.73,.48,.74,1.04,.71,1.85-.09,3.7,.1,5.26,.3,.42,.05,.73,.2,.9,.42,.14,.18,.18,.42,.14,.71-.14,.9-.01,1.78,.11,2.63,.03,.2,.06,.4,.08,.59,.07,.58-.03,1.07-.32,1.5-1.38,2-2.87,3.47-4.57,4.49-.28,.17-.58,.29-.9,.42-.64,.26-1.29,.53-1.79,1.22l-.08,.12c-.67,1.03-1.99,.87-3.29,.61-2.3-.45-3.73,.11-4.79,1.88l-.05,.09-.1-.03c-.31-.1-.62-.2-.93-.3l-.13-.04,.04-.13c.3-.95,.16-1.95-.38-2.75-.6-.88-1.6-1.4-2.69-1.38-1.62,.03-2.93-.85-3.27-2.19-.02-.07-.04-.13-.06-.2-.13-.46-.27-.93,.14-1.26,.29-.23,.49-.09,.8,.17,.09,.08,.19,.16,.29,.22,.11,.07,.24,.07,.37,.07h.05c.08,0,.16,0,.22,.04,.43,.18,.91,.32,1.23-.25,.26-.46,.03-.71-.3-.98-.06-.05-.13-.11-.18-.16h0c-1.4-1.42-2.59-3.08-3.53-4.95-.48-.96-.44-2.13,.1-3.22,.3-.6,.72-1.13,1.23-1.55Zm7.62,2.12l-.29-.27c-.51-.47-.75-1.05-.98-1.6-.14-.35-.28-.69-.49-.98-.44-.61-.88-.78-1.39-.53-.61,.3-1.23,.39-1.83,.47-.22,.03-.42,.06-.62,.1-1.26,.23-2.41,1.13-3.01,2.35-.5,1.01-.54,2.1-.1,2.98,.92,1.84,2.09,3.49,3.48,4.88,.05,.05,.11,.1,.17,.15,.26,.22,.74,.63,.36,1.32-.46,.83-1.27,.49-1.58,.37l-.03-.02s-.04,0-.07,0h-.06c-.15,0-.33,0-.51-.11-.11-.07-.22-.16-.32-.24-.33-.27-.36-.25-.46-.17-.23,.2-.2,.45-.05,.98,.02,.07,.04,.14,.06,.21,.31,1.21,1.52,2.01,3.01,1.99,1.18-.02,2.27,.54,2.92,1.5,.56,.83,.72,1.86,.45,2.85,.23,.07,.47,.15,.7,.23,1.11-1.79,2.66-2.38,5.01-1.91,1.14,.22,2.3,.38,2.91-.36l-1.62-.08c-.44-.02-.88-.07-1.31-.11-.83-.09-1.68-.17-2.52-.09l-.89,.09,.33-.41-.64-.58-.41,.64-.19-.89c-.02-.05-.05-.15-.03-.27,.01-.06,.04-.19,.12-.3-.37-1.57,.48-2.75,1.25-3.8l-.05-.53c-.71,.78-1.29,1.62-1.75,2.53l-.55,1.08c.13,.38,.2,.8,.2,1.25v1.7s-.71-1.55-.71-1.55c-.54-1.2-1.47-1.3-2.64-1.42-1.03-.11-2.1-.22-2.89-1.17l-.53-.64,.83,.03c.32,.01,.62,.03,.92,.04,.78,.04,1.51,.08,2.24,.03,.74-.05,1.4,.17,1.9,.64,.24,.23,.44,.5,.58,.82l-.05-.96c-.03-.71-.18-1.42-.32-2.1-.07-.32-.13-.62-.18-.92-.66-3.68,1.3-6.32,3.2-8.51h0c.5-.57,1.04-.88,1.57-.88,.47,0,.9,.21,1.29,.65,1.76,1.95,2.58,4.27,2.3,6.54-.27,2.22-1.55,4.16-3.69,5.62l-.64,.43,.06-.77c.06-.76,.28-1.44,.5-2.09,.15-.45,.29-.87,.37-1.31,.01-.07,.03-.14,.05-.21,.09-.35,.07-.38-.05-.46-.13-.09-.16-.1-.45,.15l-.11,.09c-.51,.42-.98,.86-1.4,1.32l.55,.3h.63s-.33,1.05-.33,1.05l-.06-.04c-.05,1.03-.49,1.92-.93,2.79l-.02,.04c-.08,.16-.16,.31-.23,.47l.36,1.08,.16-.2c1.2-1.48,2.38-.86,3.32-.36,.34,.18,.65,.35,.96,.43l1.74,.48c.54-.7,1.2-.97,1.85-1.24,.31-.13,.6-.24,.86-.4,1.66-1,3.13-2.45,4.48-4.41,.25-.37,.35-.8,.28-1.31-.03-.19-.05-.39-.08-.58-.13-.87-.26-1.77-.11-2.71,.03-.21,0-.38-.09-.5-.12-.16-.37-.27-.72-.32-1.55-.2-3.39-.39-5.22-.3-.62,.03-1.12-.01-1.32-.93-.04-.17-.1-.35-.17-.52-.08-.2-.16-.43-.21-.68l-.02-.09c-.23-1.1-.42-1.54-1.34-1.42-.32,.04-.61-.15-.83-.28-1.91-1.22-2.69-.84-4.22,1-.09,.1-.17,.21-.27,.33l-.41,.5Zm3.67,9.83c1.61-1.33,2.57-2.99,2.8-4.85,.26-2.19-.53-4.43-2.24-6.32-.34-.37-.7-.56-1.09-.56-.45,0-.93,.28-1.37,.79-1.85,2.14-3.77,4.72-3.14,8.28,.05,.3,.11,.59,.18,.89,.15,.72,.3,1.44,.33,2.17l.02,.39,.18-.35c.77-1.5,1.84-2.81,3.26-3.99l.11-.09c.28-.24,.46-.38,.78-.17,.28,.19,.25,.4,.16,.73-.02,.08-.04,.14-.05,.2-.09,.45-.23,.88-.38,1.34-.21,.64-.43,1.3-.49,2.02l-.02,.22,.18-.12c.27-.19,.53-.38,.78-.58Zm-4.72,3.36v-.48c0-.89-.28-1.65-.8-2.14-.45-.42-1.03-.62-1.7-.57-.74,.05-1.48,.01-2.27-.03-.29-.02-.6-.03-.92-.04h-.23s.15,.17,.15,.17c.72,.87,1.73,.97,2.71,1.08,1.16,.12,2.25,.23,2.86,1.57l.2,.44Zm3.24-4.82h-.33s-.22-.12-.22-.12l.02,.21-.03,.04c-.76,1.03-1.61,2.19-1.22,3.69l.02,.08-.06,.05c-.06,.06-.08,.16-.09,.21,0,.05,0,.1,.02,.15l.06,.26,.23-.36,.24,.22-.14-.41,.02-.05c.08-.18,.17-.35,.26-.52l.02-.04c.45-.9,.92-1.83,.9-2.9v-.24s.18,.11,.18,.11l.12-.38Zm4.45,5.51l-.92-.25c-.33-.09-.66-.26-1-.44-.96-.51-1.94-1.03-3,.28l-.16,.2,.25-.03c.87-.09,1.73,0,2.57,.09,.43,.05,.87,.09,1.3,.11l.95,.05Zm-13.16-15.82c.89-.74,2.16-1.11,3.67-1.07,.18,0,.37,.07,.53,.17,.59,.38,1.22,2,1.43,2.98,.15,.68,.13,1.12-.05,1.39-1.53,2.34-1.37,4.89-1.06,7.51l.13,1.12-.77-.82c-.37-.39-.77-.79-1.11-1.14-1.5-1.5-3.05-3.06-3.78-5.16-.58-1.66-.44-3.2,.37-4.31l.11,.08-.11-.08c.18-.25,.39-.47,.63-.67Zm4.3,11.32l-.04-.31c-.32-2.67-.48-5.27,1.1-7.69,.13-.2,.14-.6,0-1.19-.23-1.05-.85-2.51-1.31-2.81-.12-.08-.27-.12-.4-.13-1.82-.05-3.27,.53-4.08,1.63-.76,1.04-.88,2.49-.34,4.06,.71,2.05,2.24,3.58,3.72,5.06,.35,.35,.75,.75,1.12,1.14l.22,.23Zm10.57-6.77s.01,0,.02-.01c.29-.23,.68-.32,1.1-.25,.83,.14,1.68,.16,2.51,.18l.03,.14v-.13c.33,0,.66,.02,.99,.03h.05c.24,.01,.57,.03,.78,.27,.13,.14,.18,.33,.16,.56-.03,.34-.04,.71-.04,1.05-.02,1.24-.04,2.53-1.06,3.65-.57,.63-1.09,1.39-1.54,2.25-.61,1.17-1.68,1.85-2.8,1.8-.49-.02-.99,.06-1.52,.15-.89,.15-1.82,.31-2.76-.04-.33-.12-.64-.3-.95-.54l-.33-.26,.29-.3c.18-.18,.35-.36,.53-.54l.02-.02c.4-.42,.81-.85,1.27-1.24,1.69-1.45,2.62-3.36,2.76-5.66,.04-.59,.28-.92,.49-1.09Zm1.92,8.67c.33-.27,.62-.63,.84-1.05,.46-.88,.99-1.66,1.58-2.31,.95-1.05,.97-2.28,.99-3.47,0-.36,.01-.72,.04-1.07,.01-.15-.02-.27-.1-.36-.14-.16-.38-.17-.59-.18h-.06c-.33-.02-.65-.03-.98-.04h-.03c-.83-.02-1.7-.05-2.54-.19-.35-.06-.66,.01-.89,.19-.16,.14-.37,.4-.4,.91-.14,2.37-1.1,4.34-2.85,5.84-.44,.38-.85,.81-1.25,1.22l-.02,.03c-.18,.18-.35,.37-.53,.55l-.08,.08,.09,.07c.28,.22,.57,.39,.87,.5,.88,.33,1.76,.17,2.62,.03,.55-.09,1.06-.18,1.58-.16,.61,.03,1.2-.19,1.71-.6Z"/></g><g><path class="cls-1" d="M427.36,47.75c-.11-.21-.35-.34-.67-.38-.4-.04-.82-.13-.99-.44-.17-.33,.02-.73,.29-1.23,.62-1.15,.81-1.77,.65-2.09-.18-.34-.89-.47-1.98-.58-.14-.01-.22-.11-.28-.19-.02-.03-.04-.06-.07-.09l-.13-.13,.09-.16c.56-.95,.73-1.58,0-2.18-2.08-1.72-4.43-2.11-6.81-1.1-2.64,1.11-3.25,3.48-3.3,5.27-.02,.73-.38,1.14-.7,1.5-.19,.22-.38,.41-.56,.59-.81,.82-1.51,1.54-1.22,2.81,.04,.18,.02,.33-.06,.45-.03,.04-.06,.07-.1,.1,.15,.28,.3,.57,.44,.85,.09,.01,.18,.03,.28,.06,.22,.08,.43,.16,.65,.24,1.22,.46,2.37,.9,3.67,.9,.38,0,.74,.19,1.08,.37,.11,.06,.22,.11,.32,.16,.2,.09,.4,.19,.6,.28,1.15,.55,2.34,1.13,3.68,.85,2.76-.57,3.92-2.85,5.05-5.06l.04-.08c.13-.25,.14-.53,.02-.74Zm-8.99-8.19c1.8-.55,3.5-.24,5.05,.93,.2,.15,.44,.33,.42,.57,0,.07-.03,.2-.18,.29-.14,.09-.25,.24-.36,.41-.22,.32-.5,.72-1.11,.66-.29-.03-.58-.12-.8-.19-2.01-.69-3.64-.33-4.98,1.1l-.27,.46-.21-.17c-.17-.12-.21-.24-.14-.36,.03-.06,.07-.13,.11-.19-.05-1.78,.81-2.99,2.48-3.51Zm-5.72,9.75l-.58,.32,.24-.61c.64-1.64,1.46-2.62,3.27-3.87l.59-.41-.23,.68c-.59,1.78-1.58,2.94-3.3,3.89Zm4.9,1.31c-1.13,.87-2.23,.5-3.19,.18-.32-.11-.65-.21-.97-.28l-.42-.08,.3-.31c1-1.06,2.04-1.04,4.25,.09l.34,.17-.3,.23Zm.74-1.01c-.58-.26-1.12-.62-1.65-.98-.2-.14-.4-.27-.61-.4-.52-.33-.27-.74-.15-.93,.02-.04,.05-.07,.07-.11,.37-.68,.59-1.44,.68-2.33h0c.06-.65,.42-1.28,.99-1.71,.6-.46,1.34-.65,2.04-.53,1.3,.22,2.64,.52,3.99,.89,.64,.17,1.09,.51,1.3,.97,.23,.49,.19,1.08-.12,1.76-.83,1.85-2.15,3.09-3.81,3.59-1.05,.33-1.94,.16-2.74-.2Zm7.82-.36c-.1,.18-.19,.36-.28,.54-.2,.39-.38,.76-.65,1.08-1.43,1.73-2.48,2.67-5.09,1.41-.15-.07-.36-.14-.58-.21-.19-.06-.41-.13-.59-.21-.37-.16-.65-.4-.56-.79,.06-.25,.17-.43,.34-.54,.31-.18,.69-.08,1.05,.02,.21,.06,.43,.12,.59,.11,1.31-.1,2.35-.6,3.08-1.49,.47-.57,.9-.84,1.35-.86,.43-.02,.85,.2,1.3,.65l.12,.13-.09,.16Z"/><path class="cls-1" d="M415.99,39.9c.39-.32,.86-.61,1.41-.85,2.42-1.02,4.83-.63,6.95,1.13,.8,.66,.61,1.36,.03,2.35l-.04,.07,.05,.06s.06,.07,.08,.1c.06,.08,.11,.13,.18,.14,1.16,.11,1.88,.25,2.09,.65,.19,.36,0,1-.65,2.21-.25,.46-.43,.83-.29,1.1,.13,.26,.52,.33,.88,.37,.37,.04,.64,.19,.77,.45h0c.14,.25,.13,.58-.02,.87l-.04,.08c-1.14,2.24-2.32,4.55-5.14,5.13-1.38,.28-2.58-.3-3.74-.86-.22-.1-.41-.2-.61-.29-.1-.05-.2-.1-.31-.15-.35-.19-.7-.37-1.04-.37-1.33,0-2.49-.44-3.72-.91l-.12-.04c-.18-.07-.35-.13-.53-.2-.08-.03-.15-.05-.25-.06h-.07s-.53-1.02-.53-1.02l.08-.07s.05-.05,.07-.07c.06-.09,.07-.2,.04-.35-.31-1.35,.45-2.12,1.26-2.93,.18-.18,.36-.37,.56-.59,.32-.36,.64-.73,.66-1.41,.04-1.45,.44-3.28,1.97-4.54Zm8.5,12.52c1.2-.99,1.95-2.47,2.69-3.91l.04-.08c.11-.21,.12-.45,.03-.62h0c-.12-.22-.37-.29-.57-.31-.43-.05-.9-.15-1.09-.51-.2-.39,0-.82,.29-1.35,.37-.68,.83-1.62,.65-1.96-.16-.3-1-.42-1.88-.51-.19-.02-.3-.15-.37-.24-.02-.03-.04-.05-.07-.08l-.19-.2,.14-.24c.54-.91,.69-1.46,.03-2.01-2.04-1.69-4.35-2.06-6.67-1.08-2.58,1.09-3.17,3.4-3.22,5.15-.02,.78-.41,1.23-.73,1.58-.2,.22-.38,.41-.57,.6-.82,.83-1.46,1.48-1.19,2.69,.05,.22,.02,.4-.08,.55-.01,.02-.03,.04-.04,.06l.37,.7c.09,.01,.16,.03,.24,.06,.18,.07,.36,.13,.54,.2l.12,.04c1.21,.46,2.35,.89,3.62,.89,.41,0,.78,.2,1.15,.38,.12,.06,.22,.12,.32,.16,.2,.09,.4,.19,.6,.28,1.14,.55,2.3,1.11,3.59,.84,.92-.19,1.65-.57,2.27-1.08Zm-7.55-12.27c.38-.31,.84-.56,1.4-.72h0c1.84-.57,3.58-.24,5.17,.96,.22,.16,.49,.37,.48,.68,0,.08-.03,.27-.25,.4-.11,.07-.22,.21-.32,.37-.23,.33-.55,.78-1.23,.72-.31-.03-.61-.12-.83-.2-1.95-.67-3.54-.32-4.84,1.07l-.33,.57-.34-.27c-.27-.2-.25-.4-.18-.53,.03-.05,.06-.11,.09-.16-.02-1.24,.38-2.21,1.18-2.87Zm1.47-.47c-1.61,.5-2.43,1.66-2.38,3.38v.04s-.02,.03-.02,.03c-.04,.06-.07,.12-.1,.18-.02,.04-.04,.09,.1,.2l.1,.08,.2-.33c1.4-1.5,3.07-1.87,5.14-1.16,.21,.07,.49,.16,.77,.19,.53,.05,.77-.3,.98-.6,.12-.18,.24-.34,.4-.44,.1-.06,.12-.13,.12-.18,0-.17-.19-.32-.37-.45-1.52-1.15-3.18-1.45-4.93-.91h0Zm-.94,3.4s.05-.04,.08-.06c.63-.48,1.41-.68,2.15-.56,1.3,.22,2.65,.52,4,.89,.68,.18,1.16,.54,1.39,1.04,.25,.53,.21,1.16-.11,1.88-.85,1.89-2.2,3.16-3.89,3.66-.96,.3-1.86,.23-2.83-.2h0c-.59-.26-1.13-.63-1.66-.99-.21-.14-.41-.27-.61-.41-.63-.4-.3-.94-.19-1.12,.02-.03,.04-.07,.06-.1,.36-.66,.58-1.41,.66-2.28,.06-.66,.41-1.29,.96-1.74Zm5.42,5.58c.75-.62,1.38-1.47,1.84-2.51,.29-.64,.33-1.2,.12-1.65-.2-.42-.62-.73-1.22-.9-1.34-.37-2.68-.66-3.97-.88-.67-.11-1.37,.07-1.94,.51-.54,.41-.88,1-.94,1.62-.09,.91-.31,1.69-.69,2.39-.02,.04-.05,.08-.07,.12-.16,.26-.27,.51,.11,.75,.21,.13,.41,.27,.61,.41,.52,.35,1.06,.72,1.63,.97,.91,.41,1.75,.47,2.65,.19,.69-.21,1.32-.55,1.88-1.01Zm-8.42-2.85c.31-.26,.66-.52,1.05-.79l.92-.63-.35,1.06c-.61,1.81-1.61,3-3.36,3.97l-.9,.5,.37-.96c.51-1.31,1.14-2.21,2.27-3.15Zm1.46-.74l-.26,.18c-1.78,1.23-2.6,2.19-3.22,3.81l-.1,.27,.25-.14c1.68-.94,2.65-2.08,3.23-3.82l.1-.3Zm-2.42,4.65c.96-.79,2.03-.67,4.08,.37l.53,.27-.47,.36c-1.19,.91-2.32,.53-3.32,.2-.31-.1-.64-.21-.95-.27l-.66-.13,.46-.49c.11-.12,.22-.22,.33-.31Zm4.11,.69l-.15-.07c-2.18-1.11-3.13-1.13-4.09-.12l-.13,.14,.18,.04c.33,.07,.66,.18,.98,.28,.93,.31,1.99,.66,3.07-.16l.13-.1Zm.93,.07s.06-.05,.09-.07c.36-.21,.78-.1,1.16,0,.2,.06,.41,.11,.54,.1,1.27-.1,2.28-.59,2.99-1.44,.5-.6,.96-.89,1.45-.91,.47-.02,.93,.21,1.4,.69l.2,.2-.14,.24c-.1,.18-.19,.35-.27,.52-.2,.41-.39,.78-.67,1.12-1.42,1.72-2.55,2.75-5.26,1.45-.15-.07-.36-.14-.56-.2-.2-.06-.41-.13-.61-.22-.19-.09-.77-.35-.64-.94,.05-.24,.16-.43,.31-.56Zm4.44-.68c-.7,.57-1.58,.91-2.63,.99-.18,.01-.41-.05-.63-.11-.34-.09-.69-.19-.95-.04-.14,.08-.23,.24-.28,.45-.04,.18-.02,.41,.49,.64,.18,.08,.38,.14,.57,.21,.22,.07,.43,.14,.6,.22,2.58,1.25,3.56,.29,4.93-1.38,.26-.31,.44-.67,.63-1.06,.09-.18,.18-.36,.28-.54l.04-.07-.05-.06c-.42-.43-.81-.63-1.2-.61-.41,.02-.81,.27-1.25,.81-.17,.2-.35,.38-.54,.55Z"/></g></g></svg>